%TF.GenerationSoftware,KiCad,Pcbnew,(7.0.0)*%
%TF.CreationDate,2023-02-16T03:23:41+08:00*%
%TF.ProjectId,STM32F103C8T6_BreakOut_Board,53544d33-3246-4313-9033-433854365f42,rev?*%
%TF.SameCoordinates,Original*%
%TF.FileFunction,Soldermask,Bot*%
%TF.FilePolarity,Negative*%
%FSLAX46Y46*%
G04 Gerber Fmt 4.6, Leading zero omitted, Abs format (unit mm)*
G04 Created by KiCad (PCBNEW (7.0.0)) date 2023-02-16 03:23:41*
%MOMM*%
%LPD*%
G01*
G04 APERTURE LIST*
%ADD10R,1.700000X1.700000*%
%ADD11O,1.700000X1.700000*%
%ADD12C,2.200000*%
%ADD13C,0.900000*%
%ADD14O,0.800000X0.800000*%
%ADD15O,1.800000X1.150000*%
%ADD16O,2.000000X1.450000*%
G04 APERTURE END LIST*
D10*
%TO.C,J5*%
X147329999Y-82969999D03*
D11*
X149869999Y-82969999D03*
X152409999Y-82969999D03*
X154949999Y-82969999D03*
%TD*%
D10*
%TO.C,J3*%
X165119999Y-104239999D03*
D11*
X165119999Y-101699999D03*
X165119999Y-99159999D03*
X165119999Y-96619999D03*
%TD*%
D12*
%TO.C,H1*%
X167400000Y-79260000D03*
%TD*%
D13*
%TO.C,SW1*%
X122985000Y-85700000D03*
X122985000Y-88700000D03*
%TD*%
D12*
%TO.C,H3*%
X123250000Y-79260000D03*
%TD*%
%TO.C,H4*%
X123250000Y-108690000D03*
%TD*%
%TO.C,H2*%
X167400000Y-108690000D03*
%TD*%
D10*
%TO.C,J6*%
X161679999Y-78549999D03*
D11*
X159139999Y-78549999D03*
X156599999Y-78549999D03*
X154059999Y-78549999D03*
X151519999Y-78549999D03*
X148979999Y-78549999D03*
X146439999Y-78549999D03*
X143899999Y-78549999D03*
X141359999Y-78549999D03*
X138819999Y-78549999D03*
X136279999Y-78549999D03*
X133739999Y-78549999D03*
X131199999Y-78549999D03*
X128659999Y-78549999D03*
%TD*%
D14*
%TO.C,J1*%
X165625330Y-91380330D03*
X165625330Y-86380330D03*
D15*
X168375330Y-92755330D03*
D16*
X164575330Y-92605330D03*
X164575330Y-85155330D03*
D15*
X168375330Y-85005330D03*
%TD*%
D10*
%TO.C,J4*%
X128929999Y-109359999D03*
D11*
X131469999Y-109359999D03*
X134009999Y-109359999D03*
X136549999Y-109359999D03*
X139089999Y-109359999D03*
X141629999Y-109359999D03*
X144169999Y-109359999D03*
X146709999Y-109359999D03*
X149249999Y-109359999D03*
X151789999Y-109359999D03*
X154329999Y-109359999D03*
X156869999Y-109359999D03*
X159409999Y-109359999D03*
X161949999Y-109359999D03*
%TD*%
D10*
%TO.C,J2*%
X140829999Y-82899999D03*
D11*
X138289999Y-82899999D03*
X135749999Y-82899999D03*
X133209999Y-82899999D03*
%TD*%
M02*
