%TF.GenerationSoftware,KiCad,Pcbnew,(7.0.0)*%
%TF.CreationDate,2023-02-16T03:23:41+08:00*%
%TF.ProjectId,STM32F103C8T6_BreakOut_Board,53544d33-3246-4313-9033-433854365f42,rev?*%
%TF.SameCoordinates,Original*%
%TF.FileFunction,Legend,Bot*%
%TF.FilePolarity,Positive*%
%FSLAX46Y46*%
G04 Gerber Fmt 4.6, Leading zero omitted, Abs format (unit mm)*
G04 Created by KiCad (PCBNEW (7.0.0)) date 2023-02-16 03:23:41*
%MOMM*%
%LPD*%
G01*
G04 APERTURE LIST*
%ADD10C,0.100000*%
%ADD11C,0.200000*%
G04 APERTURE END LIST*
D10*
G36*
X161350383Y-87556093D02*
G01*
X161410335Y-87616045D01*
X161475681Y-87746737D01*
X161544285Y-88021154D01*
X161544285Y-88365985D01*
X161475681Y-88640403D01*
X161410334Y-88771096D01*
X161350383Y-88831048D01*
X161225338Y-88893571D01*
X161106089Y-88893571D01*
X160981045Y-88831048D01*
X160921093Y-88771097D01*
X160855746Y-88640404D01*
X160787142Y-88365988D01*
X160787142Y-88021153D01*
X160855746Y-87746737D01*
X160921093Y-87616044D01*
X160981045Y-87556092D01*
X161106089Y-87493571D01*
X161225338Y-87493571D01*
X161350383Y-87556093D01*
G37*
G36*
X155493241Y-87556093D02*
G01*
X155553193Y-87616045D01*
X155618539Y-87746737D01*
X155687143Y-88021154D01*
X155687143Y-88365985D01*
X155618539Y-88640403D01*
X155553192Y-88771096D01*
X155493241Y-88831048D01*
X155368196Y-88893571D01*
X155248947Y-88893571D01*
X155123903Y-88831048D01*
X155063951Y-88771097D01*
X154998604Y-88640404D01*
X154930000Y-88365988D01*
X154930000Y-88021153D01*
X154998604Y-87746737D01*
X155063951Y-87616044D01*
X155123903Y-87556092D01*
X155248947Y-87493571D01*
X155368196Y-87493571D01*
X155493241Y-87556093D01*
G37*
G36*
X148778957Y-87556093D02*
G01*
X148838909Y-87616045D01*
X148904255Y-87746737D01*
X148972859Y-88021154D01*
X148972859Y-88365985D01*
X148904255Y-88640403D01*
X148838908Y-88771096D01*
X148778957Y-88831048D01*
X148653912Y-88893571D01*
X148534663Y-88893571D01*
X148409619Y-88831048D01*
X148349667Y-88771097D01*
X148284320Y-88640404D01*
X148215716Y-88365988D01*
X148215716Y-88021153D01*
X148284320Y-87746737D01*
X148349667Y-87616044D01*
X148409619Y-87556092D01*
X148534663Y-87493571D01*
X148653912Y-87493571D01*
X148778957Y-87556093D01*
G37*
G36*
X151493242Y-85126093D02*
G01*
X151553194Y-85186045D01*
X151618540Y-85316737D01*
X151687144Y-85591154D01*
X151687144Y-85935985D01*
X151618540Y-86210403D01*
X151553193Y-86341096D01*
X151493242Y-86401048D01*
X151368197Y-86463571D01*
X151248948Y-86463571D01*
X151123904Y-86401048D01*
X151063952Y-86341097D01*
X150998605Y-86210404D01*
X150930001Y-85935988D01*
X150930001Y-85591153D01*
X150998605Y-85316737D01*
X151063952Y-85186044D01*
X151123904Y-85126092D01*
X151248948Y-85063571D01*
X151368197Y-85063571D01*
X151493242Y-85126093D01*
G37*
G36*
X147207527Y-85768950D02*
G01*
X147267481Y-85828903D01*
X147330002Y-85953946D01*
X147330002Y-86216053D01*
X147267480Y-86341097D01*
X147207527Y-86401048D01*
X147082484Y-86463571D01*
X146820378Y-86463571D01*
X146695334Y-86401048D01*
X146635380Y-86341095D01*
X146572859Y-86216053D01*
X146572859Y-85953946D01*
X146635380Y-85828903D01*
X146695334Y-85768949D01*
X146820378Y-85706428D01*
X147082484Y-85706428D01*
X147207527Y-85768950D01*
G37*
G36*
X147207527Y-85126093D02*
G01*
X147267481Y-85186046D01*
X147330002Y-85311089D01*
X147330002Y-85358910D01*
X147267479Y-85483955D01*
X147207528Y-85543906D01*
X147082485Y-85606428D01*
X146820378Y-85606428D01*
X146695332Y-85543905D01*
X146635381Y-85483954D01*
X146572859Y-85358910D01*
X146572859Y-85311089D01*
X146635380Y-85186046D01*
X146695334Y-85126092D01*
X146820378Y-85063571D01*
X147082484Y-85063571D01*
X147207527Y-85126093D01*
G37*
G36*
X144636099Y-85697520D02*
G01*
X144696053Y-85757475D01*
X144758574Y-85882518D01*
X144758574Y-86216053D01*
X144696052Y-86341097D01*
X144636099Y-86401048D01*
X144511056Y-86463571D01*
X144248950Y-86463571D01*
X144123906Y-86401048D01*
X144063952Y-86341095D01*
X144001431Y-86216053D01*
X144001431Y-85882518D01*
X144063953Y-85757473D01*
X144123907Y-85697520D01*
X144248950Y-85635000D01*
X144511056Y-85635000D01*
X144636099Y-85697520D01*
G37*
G36*
X142358575Y-86463571D02*
G01*
X141848950Y-86463571D01*
X141723906Y-86401048D01*
X141663952Y-86341094D01*
X141601432Y-86216054D01*
X141601432Y-86025375D01*
X141663952Y-85900331D01*
X141721297Y-85842987D01*
X141912279Y-85779327D01*
X141914168Y-85779667D01*
X141918532Y-85777857D01*
X142358575Y-85777857D01*
X142358575Y-86463571D01*
G37*
G36*
X142358575Y-85677857D02*
G01*
X141920379Y-85677857D01*
X141795335Y-85615334D01*
X141735381Y-85555381D01*
X141672860Y-85430338D01*
X141672860Y-85311089D01*
X141735381Y-85186046D01*
X141795335Y-85126092D01*
X141920379Y-85063571D01*
X142358575Y-85063571D01*
X142358575Y-85677857D01*
G37*
G36*
X139942736Y-85622268D02*
G01*
X140001432Y-85739661D01*
X140001432Y-85952581D01*
X139387147Y-85829724D01*
X139387147Y-85739661D01*
X139445842Y-85622268D01*
X139563236Y-85563571D01*
X139825343Y-85563571D01*
X139942736Y-85622268D01*
G37*
G36*
X138169522Y-85985659D02*
G01*
X138179609Y-85992142D01*
X138189825Y-85992142D01*
X138199884Y-85993952D01*
X138204248Y-85992142D01*
X138539629Y-85992142D01*
X138657022Y-86050839D01*
X138715718Y-86168232D01*
X138715718Y-86287481D01*
X138657021Y-86404874D01*
X138539629Y-86463571D01*
X138206094Y-86463571D01*
X138101433Y-86411240D01*
X138101433Y-85951615D01*
X138169522Y-85985659D01*
G37*
G36*
X136021814Y-85626093D02*
G01*
X136081768Y-85686046D01*
X136144289Y-85811089D01*
X136144289Y-86216053D01*
X136081767Y-86341097D01*
X136021814Y-86401048D01*
X135896771Y-86463571D01*
X135706093Y-86463571D01*
X135581049Y-86401048D01*
X135521097Y-86341097D01*
X135458575Y-86216053D01*
X135458575Y-85811089D01*
X135521097Y-85686044D01*
X135581049Y-85626092D01*
X135706093Y-85563571D01*
X135896771Y-85563571D01*
X136021814Y-85626093D01*
G37*
G36*
X131601432Y-86463571D02*
G01*
X131091807Y-86463571D01*
X130966763Y-86401048D01*
X130906809Y-86341094D01*
X130844289Y-86216054D01*
X130844289Y-86025375D01*
X130906809Y-85900331D01*
X130964154Y-85842987D01*
X131155136Y-85779327D01*
X131157025Y-85779667D01*
X131161389Y-85777857D01*
X131601432Y-85777857D01*
X131601432Y-86463571D01*
G37*
G36*
X131601432Y-85677857D02*
G01*
X131163236Y-85677857D01*
X131038192Y-85615334D01*
X130978238Y-85555381D01*
X130915717Y-85430338D01*
X130915717Y-85311089D01*
X130978238Y-85186046D01*
X131038192Y-85126092D01*
X131163236Y-85063571D01*
X131601432Y-85063571D01*
X131601432Y-85677857D01*
G37*
G36*
X130050385Y-85626093D02*
G01*
X130110339Y-85686046D01*
X130172860Y-85811089D01*
X130172860Y-86216053D01*
X130110338Y-86341097D01*
X130050385Y-86401048D01*
X129925342Y-86463571D01*
X129734664Y-86463571D01*
X129609620Y-86401048D01*
X129549668Y-86341097D01*
X129487146Y-86216053D01*
X129487146Y-85811089D01*
X129549668Y-85686044D01*
X129609620Y-85626092D01*
X129734664Y-85563571D01*
X129925342Y-85563571D01*
X130050385Y-85626093D01*
G37*
G36*
X128269521Y-85985659D02*
G01*
X128279608Y-85992142D01*
X128289824Y-85992142D01*
X128299883Y-85993952D01*
X128304247Y-85992142D01*
X128639628Y-85992142D01*
X128757021Y-86050839D01*
X128815717Y-86168232D01*
X128815717Y-86287481D01*
X128757020Y-86404874D01*
X128639628Y-86463571D01*
X128306093Y-86463571D01*
X128201432Y-86411240D01*
X128201432Y-85951615D01*
X128269521Y-85985659D01*
G37*
G36*
X126407528Y-85626093D02*
G01*
X126467482Y-85686046D01*
X126530003Y-85811089D01*
X126530003Y-86216053D01*
X126467481Y-86341097D01*
X126407528Y-86401048D01*
X126282485Y-86463571D01*
X126020379Y-86463571D01*
X125915718Y-86411240D01*
X125915718Y-85615902D01*
X126020379Y-85563571D01*
X126282485Y-85563571D01*
X126407528Y-85626093D01*
G37*
G36*
X162244286Y-89634286D02*
G01*
X125194289Y-89634286D01*
X125194289Y-89093844D01*
X150542706Y-89093844D01*
X150554904Y-89120553D01*
X150579606Y-89136428D01*
X151744335Y-89136428D01*
X151765318Y-89130267D01*
X151784547Y-89108076D01*
X151788726Y-89079012D01*
X151776528Y-89052303D01*
X151751826Y-89036428D01*
X150587097Y-89036428D01*
X150566114Y-89042589D01*
X150546885Y-89064780D01*
X150542706Y-89093844D01*
X125194289Y-89093844D01*
X125194289Y-88950987D01*
X145971278Y-88950987D01*
X145983476Y-88977696D01*
X146008178Y-88993571D01*
X146447852Y-88993571D01*
X146458847Y-88995152D01*
X146462309Y-88993571D01*
X146887192Y-88993571D01*
X146908175Y-88987410D01*
X146927404Y-88965219D01*
X146931583Y-88936155D01*
X146919385Y-88909446D01*
X146894683Y-88893571D01*
X146501431Y-88893571D01*
X146501431Y-88868424D01*
X147399453Y-88868424D01*
X147401812Y-88879270D01*
X147402605Y-88890352D01*
X147404886Y-88893400D01*
X147405695Y-88897116D01*
X147413542Y-88904963D01*
X147420201Y-88913859D01*
X147423768Y-88915189D01*
X147478480Y-88969901D01*
X147479021Y-88971744D01*
X147486053Y-88977838D01*
X147491631Y-88985288D01*
X147496933Y-88987265D01*
X147501212Y-88990973D01*
X147506815Y-88991778D01*
X147511783Y-88994491D01*
X147515577Y-88994219D01*
X147519142Y-88995549D01*
X147524671Y-88994346D01*
X147530276Y-88995152D01*
X147535424Y-88992800D01*
X147541071Y-88992397D01*
X147544118Y-88990115D01*
X147547835Y-88989307D01*
X147551836Y-88985305D01*
X147556985Y-88982954D01*
X147560044Y-88978192D01*
X147564577Y-88974800D01*
X147565906Y-88971235D01*
X147627116Y-88910025D01*
X147636005Y-88903371D01*
X147639885Y-88892967D01*
X147645208Y-88883219D01*
X147644936Y-88879424D01*
X147646266Y-88875860D01*
X147643905Y-88865008D01*
X147643113Y-88853931D01*
X147640832Y-88850884D01*
X147640024Y-88847167D01*
X147632171Y-88839314D01*
X147625517Y-88830425D01*
X147621952Y-88829095D01*
X147567240Y-88774383D01*
X147566699Y-88772541D01*
X147559667Y-88766447D01*
X147554090Y-88758997D01*
X147548785Y-88757018D01*
X147544508Y-88753312D01*
X147538904Y-88752506D01*
X147533938Y-88749794D01*
X147530142Y-88750065D01*
X147526578Y-88748736D01*
X147521048Y-88749938D01*
X147515444Y-88749133D01*
X147510295Y-88751484D01*
X147504649Y-88751888D01*
X147501600Y-88754169D01*
X147497886Y-88754978D01*
X147493884Y-88758979D01*
X147488735Y-88761331D01*
X147485675Y-88766092D01*
X147481143Y-88769485D01*
X147479813Y-88773050D01*
X147418605Y-88834256D01*
X147409714Y-88840913D01*
X147405833Y-88851316D01*
X147400511Y-88861064D01*
X147400782Y-88864859D01*
X147399453Y-88868424D01*
X146501431Y-88868424D01*
X146501431Y-88370026D01*
X148113648Y-88370026D01*
X148115716Y-88378298D01*
X148115716Y-88379332D01*
X148117456Y-88385259D01*
X148186478Y-88661343D01*
X148185858Y-88667087D01*
X148189969Y-88675310D01*
X148190382Y-88676959D01*
X148193170Y-88681712D01*
X148261050Y-88817470D01*
X148262838Y-88825688D01*
X148272563Y-88835413D01*
X148281963Y-88845518D01*
X148282909Y-88845760D01*
X148340214Y-88903065D01*
X148344510Y-88910298D01*
X148356830Y-88916458D01*
X148368924Y-88923062D01*
X148369898Y-88922992D01*
X148498094Y-88987090D01*
X148508178Y-88993571D01*
X148518393Y-88993571D01*
X148528452Y-88995381D01*
X148532816Y-88993571D01*
X148663026Y-88993571D01*
X148674946Y-88994858D01*
X148684084Y-88990288D01*
X148693889Y-88987410D01*
X148696982Y-88983839D01*
X148825330Y-88919665D01*
X148833548Y-88917878D01*
X148843273Y-88908152D01*
X148853378Y-88898753D01*
X148853620Y-88897806D01*
X148910925Y-88840501D01*
X148918158Y-88836206D01*
X148924318Y-88823885D01*
X148930922Y-88811792D01*
X148930852Y-88810817D01*
X148992170Y-88688182D01*
X148996378Y-88684226D01*
X148998607Y-88675308D01*
X148999368Y-88673787D01*
X149000344Y-88668358D01*
X149069370Y-88392251D01*
X149072859Y-88386823D01*
X149072859Y-88378297D01*
X149073110Y-88377293D01*
X149072859Y-88371117D01*
X149072859Y-88023229D01*
X149074927Y-88017116D01*
X149072859Y-88008844D01*
X149072859Y-88007810D01*
X149071118Y-88001883D01*
X149002097Y-87725798D01*
X149002718Y-87720055D01*
X148998606Y-87711831D01*
X148998194Y-87710183D01*
X148995405Y-87705429D01*
X148927525Y-87569671D01*
X148925738Y-87561453D01*
X148916002Y-87551717D01*
X148906613Y-87541624D01*
X148905666Y-87541382D01*
X148848362Y-87484078D01*
X148844066Y-87476844D01*
X148831738Y-87470680D01*
X148819652Y-87464080D01*
X148818677Y-87464149D01*
X148781289Y-87445455D01*
X149399353Y-87445455D01*
X149901135Y-88950801D01*
X149900932Y-88956435D01*
X149905689Y-88964461D01*
X149906270Y-88966204D01*
X149909340Y-88970621D01*
X149915903Y-88981695D01*
X149917640Y-88982565D01*
X149918750Y-88984162D01*
X149930644Y-88989082D01*
X149942154Y-88994850D01*
X149944086Y-88994643D01*
X149945883Y-88995386D01*
X149958556Y-88993093D01*
X149971350Y-88991724D01*
X149972862Y-88990506D01*
X149974777Y-88990160D01*
X149984201Y-88981377D01*
X149994222Y-88973310D01*
X149994836Y-88971466D01*
X149996258Y-88970142D01*
X149999435Y-88957670D01*
X150216556Y-88306307D01*
X151971048Y-88306307D01*
X151972858Y-88310671D01*
X151972858Y-88655167D01*
X151971571Y-88667087D01*
X151976140Y-88676225D01*
X151979019Y-88686030D01*
X151982589Y-88689123D01*
X152046763Y-88817470D01*
X152048551Y-88825689D01*
X152058286Y-88835424D01*
X152067676Y-88845518D01*
X152068622Y-88845759D01*
X152125928Y-88903065D01*
X152130224Y-88910298D01*
X152142543Y-88916457D01*
X152154639Y-88923062D01*
X152155612Y-88922992D01*
X152283808Y-88987090D01*
X152293892Y-88993571D01*
X152304107Y-88993571D01*
X152314166Y-88995381D01*
X152318530Y-88993571D01*
X152734454Y-88993571D01*
X152746374Y-88994858D01*
X152755512Y-88990288D01*
X152765317Y-88987410D01*
X152768410Y-88983839D01*
X152896755Y-88919666D01*
X152904975Y-88917879D01*
X152914714Y-88908139D01*
X152924805Y-88898753D01*
X152925046Y-88897807D01*
X152991869Y-88830986D01*
X153002350Y-88811792D01*
X153000256Y-88782504D01*
X152982660Y-88758997D01*
X152955148Y-88748736D01*
X152926456Y-88754978D01*
X152850383Y-88831048D01*
X152725340Y-88893571D01*
X152320377Y-88893571D01*
X152195333Y-88831048D01*
X152135379Y-88771095D01*
X152072858Y-88646053D01*
X152072858Y-88312518D01*
X152135380Y-88187473D01*
X152195334Y-88127520D01*
X152320377Y-88065000D01*
X152508308Y-88065000D01*
X152508418Y-88065070D01*
X152522995Y-88065000D01*
X152530048Y-88065000D01*
X152530165Y-88064965D01*
X152537780Y-88064929D01*
X152543959Y-88060915D01*
X152551031Y-88058839D01*
X152556018Y-88053082D01*
X152562405Y-88048935D01*
X152565433Y-88042218D01*
X152570260Y-88036648D01*
X152571344Y-88029106D01*
X152574473Y-88022167D01*
X152573389Y-88014881D01*
X152574439Y-88007584D01*
X152571273Y-88000653D01*
X152570154Y-87993123D01*
X152565302Y-87987578D01*
X152562241Y-87980875D01*
X152555834Y-87976757D01*
X152465944Y-87874026D01*
X153399352Y-87874026D01*
X153403708Y-87887095D01*
X153407590Y-87900315D01*
X153408328Y-87900954D01*
X153474574Y-88099693D01*
X153477122Y-88111402D01*
X153484344Y-88118624D01*
X153490178Y-88127018D01*
X153494544Y-88128824D01*
X154259291Y-88893571D01*
X153444239Y-88893571D01*
X153423256Y-88899732D01*
X153404027Y-88921923D01*
X153399848Y-88950987D01*
X153412046Y-88977696D01*
X153436748Y-88993571D01*
X154367238Y-88993571D01*
X154368923Y-88994491D01*
X154381791Y-88993571D01*
X154387191Y-88993571D01*
X154388929Y-88993060D01*
X154398212Y-88992397D01*
X154402743Y-88989004D01*
X154408174Y-88987410D01*
X154414268Y-88980377D01*
X154421718Y-88974800D01*
X154423695Y-88969497D01*
X154427403Y-88965219D01*
X154428727Y-88956006D01*
X154431979Y-88947289D01*
X154430776Y-88941759D01*
X154431582Y-88936155D01*
X154427714Y-88927686D01*
X154425737Y-88918597D01*
X154421736Y-88914596D01*
X154419384Y-88909446D01*
X154411553Y-88904413D01*
X153877166Y-88370026D01*
X154827932Y-88370026D01*
X154830000Y-88378298D01*
X154830000Y-88379332D01*
X154831740Y-88385259D01*
X154900762Y-88661343D01*
X154900142Y-88667087D01*
X154904253Y-88675310D01*
X154904666Y-88676959D01*
X154907454Y-88681712D01*
X154975334Y-88817470D01*
X154977122Y-88825688D01*
X154986847Y-88835413D01*
X154996247Y-88845518D01*
X154997193Y-88845760D01*
X155054498Y-88903065D01*
X155058794Y-88910298D01*
X155071114Y-88916458D01*
X155083208Y-88923062D01*
X155084182Y-88922992D01*
X155212378Y-88987090D01*
X155222462Y-88993571D01*
X155232677Y-88993571D01*
X155242736Y-88995381D01*
X155247100Y-88993571D01*
X155377310Y-88993571D01*
X155389230Y-88994858D01*
X155398368Y-88990288D01*
X155408173Y-88987410D01*
X155411266Y-88983839D01*
X155539614Y-88919665D01*
X155547832Y-88917878D01*
X155557557Y-88908152D01*
X155567662Y-88898753D01*
X155567904Y-88897806D01*
X155625209Y-88840501D01*
X155632442Y-88836206D01*
X155638602Y-88823885D01*
X155645206Y-88811792D01*
X155645136Y-88810817D01*
X155706454Y-88688182D01*
X155710662Y-88684226D01*
X155712891Y-88675308D01*
X155713652Y-88673787D01*
X155714628Y-88668358D01*
X155783654Y-88392251D01*
X155787143Y-88386823D01*
X155787143Y-88378297D01*
X155787394Y-88377293D01*
X155787143Y-88371117D01*
X155787143Y-88023229D01*
X155789211Y-88017116D01*
X155787143Y-88008844D01*
X155787143Y-88007810D01*
X155785402Y-88001883D01*
X155753438Y-87874026D01*
X156256494Y-87874026D01*
X156260850Y-87887095D01*
X156264732Y-87900315D01*
X156265470Y-87900954D01*
X156331716Y-88099693D01*
X156334264Y-88111402D01*
X156341486Y-88118624D01*
X156347320Y-88127018D01*
X156351686Y-88128824D01*
X157116433Y-88893571D01*
X156301381Y-88893571D01*
X156280398Y-88899732D01*
X156261169Y-88921923D01*
X156256990Y-88950987D01*
X156269188Y-88977696D01*
X156293890Y-88993571D01*
X157224380Y-88993571D01*
X157226065Y-88994491D01*
X157238933Y-88993571D01*
X157244333Y-88993571D01*
X157246071Y-88993060D01*
X157255354Y-88992397D01*
X157259885Y-88989004D01*
X157265316Y-88987410D01*
X157271410Y-88980377D01*
X157278860Y-88974800D01*
X157280837Y-88969497D01*
X157284545Y-88965219D01*
X157285869Y-88956006D01*
X157289121Y-88947289D01*
X157287918Y-88941759D01*
X157288724Y-88936155D01*
X157284856Y-88927686D01*
X157282879Y-88918597D01*
X157278878Y-88914596D01*
X157276526Y-88909446D01*
X157268695Y-88904413D01*
X156423702Y-88059420D01*
X156358571Y-87864030D01*
X156358571Y-87741089D01*
X156421092Y-87616046D01*
X156481046Y-87556092D01*
X156606090Y-87493571D01*
X156939625Y-87493571D01*
X157064669Y-87556093D01*
X157135442Y-87626867D01*
X157154636Y-87637348D01*
X157183925Y-87635253D01*
X157207431Y-87617657D01*
X157217692Y-87590146D01*
X157211450Y-87561453D01*
X157134074Y-87484078D01*
X157129778Y-87476844D01*
X157117449Y-87470679D01*
X157105364Y-87464080D01*
X157104389Y-87464149D01*
X156976193Y-87400051D01*
X156966110Y-87393571D01*
X156955895Y-87393571D01*
X156945836Y-87391761D01*
X156941472Y-87393571D01*
X156596976Y-87393571D01*
X156585056Y-87392284D01*
X156575917Y-87396853D01*
X156566113Y-87399732D01*
X156563019Y-87403302D01*
X156434672Y-87467476D01*
X156426455Y-87469264D01*
X156416727Y-87478990D01*
X156406625Y-87488389D01*
X156406382Y-87489335D01*
X156349077Y-87546640D01*
X156341844Y-87550936D01*
X156335683Y-87563256D01*
X156329080Y-87575350D01*
X156329149Y-87576324D01*
X156265051Y-87704520D01*
X156258571Y-87714604D01*
X156258571Y-87724819D01*
X156256761Y-87734878D01*
X156258571Y-87739242D01*
X156258571Y-87865873D01*
X156256494Y-87874026D01*
X155753438Y-87874026D01*
X155716381Y-87725798D01*
X155717002Y-87720055D01*
X155712890Y-87711831D01*
X155712478Y-87710183D01*
X155709689Y-87705429D01*
X155641809Y-87569671D01*
X155640022Y-87561453D01*
X155630286Y-87551717D01*
X155620897Y-87541624D01*
X155619950Y-87541382D01*
X155562646Y-87484078D01*
X155558350Y-87476844D01*
X155546022Y-87470680D01*
X155533936Y-87464080D01*
X155532961Y-87464149D01*
X155404764Y-87400051D01*
X155394681Y-87393571D01*
X155384466Y-87393571D01*
X155374407Y-87391761D01*
X155370043Y-87393571D01*
X155239833Y-87393571D01*
X155227913Y-87392284D01*
X155218774Y-87396853D01*
X155208970Y-87399732D01*
X155205876Y-87403302D01*
X155077529Y-87467476D01*
X155069311Y-87469264D01*
X155059575Y-87478999D01*
X155049482Y-87488389D01*
X155049240Y-87489335D01*
X154991936Y-87546639D01*
X154984702Y-87550936D01*
X154978537Y-87563264D01*
X154971938Y-87575350D01*
X154972007Y-87576324D01*
X154910689Y-87698960D01*
X154906482Y-87702916D01*
X154904252Y-87711833D01*
X154903492Y-87713355D01*
X154902515Y-87718783D01*
X154833488Y-87994890D01*
X154830000Y-88000319D01*
X154830000Y-88008845D01*
X154829749Y-88009849D01*
X154830000Y-88016025D01*
X154830000Y-88363913D01*
X154827932Y-88370026D01*
X153877166Y-88370026D01*
X153566560Y-88059420D01*
X153501429Y-87864030D01*
X153501429Y-87741089D01*
X153563950Y-87616046D01*
X153623904Y-87556092D01*
X153748948Y-87493571D01*
X154082483Y-87493571D01*
X154207527Y-87556093D01*
X154278300Y-87626867D01*
X154297494Y-87637348D01*
X154326783Y-87635253D01*
X154350289Y-87617657D01*
X154360550Y-87590146D01*
X154354308Y-87561453D01*
X154276932Y-87484078D01*
X154272636Y-87476844D01*
X154260307Y-87470679D01*
X154248222Y-87464080D01*
X154247247Y-87464149D01*
X154119051Y-87400051D01*
X154108968Y-87393571D01*
X154098753Y-87393571D01*
X154088694Y-87391761D01*
X154084330Y-87393571D01*
X153739834Y-87393571D01*
X153727914Y-87392284D01*
X153718775Y-87396853D01*
X153708971Y-87399732D01*
X153705877Y-87403302D01*
X153577530Y-87467476D01*
X153569313Y-87469264D01*
X153559585Y-87478990D01*
X153549483Y-87488389D01*
X153549240Y-87489335D01*
X153491935Y-87546640D01*
X153484702Y-87550936D01*
X153478541Y-87563256D01*
X153471938Y-87575350D01*
X153472007Y-87576324D01*
X153407909Y-87704520D01*
X153401429Y-87714604D01*
X153401429Y-87724819D01*
X153399619Y-87734878D01*
X153401429Y-87739242D01*
X153401429Y-87865873D01*
X153399352Y-87874026D01*
X152465944Y-87874026D01*
X152133046Y-87493571D01*
X152958620Y-87493571D01*
X152979603Y-87487410D01*
X152998832Y-87465219D01*
X153003011Y-87436155D01*
X152990813Y-87409446D01*
X152966111Y-87393571D01*
X152037410Y-87393571D01*
X152037298Y-87393500D01*
X152022617Y-87393571D01*
X152015668Y-87393571D01*
X152015551Y-87393605D01*
X152007935Y-87393642D01*
X152001754Y-87397656D01*
X151994685Y-87399732D01*
X151989697Y-87405487D01*
X151983311Y-87409636D01*
X151980282Y-87416353D01*
X151975456Y-87421923D01*
X151974372Y-87429461D01*
X151971242Y-87436404D01*
X151972325Y-87443691D01*
X151971277Y-87450987D01*
X151974441Y-87457916D01*
X151975562Y-87465448D01*
X151980413Y-87470992D01*
X151983475Y-87477696D01*
X151989881Y-87481813D01*
X152412670Y-87965000D01*
X152311264Y-87965000D01*
X152299344Y-87963713D01*
X152290206Y-87968281D01*
X152280400Y-87971161D01*
X152277305Y-87974732D01*
X152148961Y-88038903D01*
X152140742Y-88040692D01*
X152131014Y-88050419D01*
X152120912Y-88059816D01*
X152120669Y-88060764D01*
X152063365Y-88118068D01*
X152056131Y-88122365D01*
X152049966Y-88134693D01*
X152043367Y-88146779D01*
X152043436Y-88147753D01*
X151979338Y-88275949D01*
X151972858Y-88286033D01*
X151972858Y-88296248D01*
X151971048Y-88306307D01*
X150216556Y-88306307D01*
X150501138Y-87452561D01*
X150501928Y-87430707D01*
X150486957Y-87405447D01*
X150460706Y-87392292D01*
X150431510Y-87395418D01*
X150408638Y-87413832D01*
X149951430Y-88785456D01*
X149496590Y-87420939D01*
X149484110Y-87402981D01*
X149456977Y-87391756D01*
X149428083Y-87396982D01*
X149406602Y-87417000D01*
X149399353Y-87445455D01*
X148781289Y-87445455D01*
X148690480Y-87400051D01*
X148680397Y-87393571D01*
X148670182Y-87393571D01*
X148660123Y-87391761D01*
X148655759Y-87393571D01*
X148525549Y-87393571D01*
X148513629Y-87392284D01*
X148504490Y-87396853D01*
X148494686Y-87399732D01*
X148491592Y-87403302D01*
X148363245Y-87467476D01*
X148355027Y-87469264D01*
X148345291Y-87478999D01*
X148335198Y-87488389D01*
X148334956Y-87489335D01*
X148277652Y-87546639D01*
X148270418Y-87550936D01*
X148264253Y-87563264D01*
X148257654Y-87575350D01*
X148257723Y-87576324D01*
X148196405Y-87698960D01*
X148192198Y-87702916D01*
X148189968Y-87711833D01*
X148189208Y-87713355D01*
X148188231Y-87718783D01*
X148119204Y-87994890D01*
X148115716Y-88000319D01*
X148115716Y-88008845D01*
X148115465Y-88009849D01*
X148115716Y-88016025D01*
X148115716Y-88363913D01*
X148113648Y-88370026D01*
X146501431Y-88370026D01*
X146501431Y-87608710D01*
X146547441Y-87677726D01*
X146548552Y-87682831D01*
X146555430Y-87689709D01*
X146556674Y-87691575D01*
X146560500Y-87694779D01*
X146697356Y-87831635D01*
X146701653Y-87838870D01*
X146713978Y-87845032D01*
X146726067Y-87851634D01*
X146727041Y-87851564D01*
X146864073Y-87920079D01*
X146885596Y-87923952D01*
X146912719Y-87912703D01*
X146929454Y-87888577D01*
X146930489Y-87859232D01*
X146915494Y-87833986D01*
X146766762Y-87759620D01*
X146633143Y-87626002D01*
X146497260Y-87422177D01*
X146495270Y-87415398D01*
X146489281Y-87410208D01*
X146489045Y-87409854D01*
X146483866Y-87405516D01*
X146473079Y-87396169D01*
X146472628Y-87396104D01*
X146472280Y-87395812D01*
X146458135Y-87394020D01*
X146444015Y-87391990D01*
X146443600Y-87392179D01*
X146443149Y-87392122D01*
X146430276Y-87398264D01*
X146417306Y-87404188D01*
X146417059Y-87404570D01*
X146416649Y-87404767D01*
X146409138Y-87416896D01*
X146401431Y-87428890D01*
X146401431Y-87429345D01*
X146401192Y-87429731D01*
X146401431Y-87443964D01*
X146401431Y-88893571D01*
X146015669Y-88893571D01*
X145994686Y-88899732D01*
X145975457Y-88921923D01*
X145971278Y-88950987D01*
X125194289Y-88950987D01*
X125194289Y-87358302D01*
X157544047Y-87358302D01*
X157544540Y-87387662D01*
X158842386Y-89334432D01*
X158859151Y-89348473D01*
X158888282Y-89352163D01*
X158914783Y-89339519D01*
X158930240Y-89314554D01*
X158929746Y-89285195D01*
X157988967Y-87874026D01*
X159256494Y-87874026D01*
X159260850Y-87887095D01*
X159264732Y-87900315D01*
X159265470Y-87900954D01*
X159331716Y-88099693D01*
X159334264Y-88111402D01*
X159341486Y-88118624D01*
X159347320Y-88127018D01*
X159351686Y-88128824D01*
X160116433Y-88893571D01*
X159301381Y-88893571D01*
X159280398Y-88899732D01*
X159261169Y-88921923D01*
X159256990Y-88950987D01*
X159269188Y-88977696D01*
X159293890Y-88993571D01*
X160224380Y-88993571D01*
X160226065Y-88994491D01*
X160238933Y-88993571D01*
X160244333Y-88993571D01*
X160246071Y-88993060D01*
X160255354Y-88992397D01*
X160259885Y-88989004D01*
X160265316Y-88987410D01*
X160271410Y-88980377D01*
X160278860Y-88974800D01*
X160280837Y-88969497D01*
X160284545Y-88965219D01*
X160285869Y-88956006D01*
X160289121Y-88947289D01*
X160287918Y-88941759D01*
X160288724Y-88936155D01*
X160284856Y-88927686D01*
X160282879Y-88918597D01*
X160278878Y-88914596D01*
X160276526Y-88909446D01*
X160268695Y-88904413D01*
X159734308Y-88370026D01*
X160685074Y-88370026D01*
X160687142Y-88378298D01*
X160687142Y-88379332D01*
X160688882Y-88385259D01*
X160757904Y-88661343D01*
X160757284Y-88667087D01*
X160761395Y-88675310D01*
X160761808Y-88676959D01*
X160764596Y-88681712D01*
X160832476Y-88817470D01*
X160834264Y-88825688D01*
X160843989Y-88835413D01*
X160853389Y-88845518D01*
X160854335Y-88845760D01*
X160911640Y-88903065D01*
X160915936Y-88910298D01*
X160928256Y-88916458D01*
X160940350Y-88923062D01*
X160941324Y-88922992D01*
X161069520Y-88987090D01*
X161079604Y-88993571D01*
X161089819Y-88993571D01*
X161099878Y-88995381D01*
X161104242Y-88993571D01*
X161234452Y-88993571D01*
X161246372Y-88994858D01*
X161255510Y-88990288D01*
X161265315Y-88987410D01*
X161268408Y-88983839D01*
X161396756Y-88919665D01*
X161404974Y-88917878D01*
X161414699Y-88908152D01*
X161424804Y-88898753D01*
X161425046Y-88897806D01*
X161482351Y-88840501D01*
X161489584Y-88836206D01*
X161495744Y-88823885D01*
X161502348Y-88811792D01*
X161502278Y-88810817D01*
X161563596Y-88688182D01*
X161567804Y-88684226D01*
X161570033Y-88675308D01*
X161570794Y-88673787D01*
X161571770Y-88668358D01*
X161640796Y-88392251D01*
X161644285Y-88386823D01*
X161644285Y-88378297D01*
X161644536Y-88377293D01*
X161644285Y-88371117D01*
X161644285Y-88023229D01*
X161646353Y-88017116D01*
X161644285Y-88008844D01*
X161644285Y-88007810D01*
X161642544Y-88001883D01*
X161573523Y-87725798D01*
X161574144Y-87720055D01*
X161570032Y-87711831D01*
X161569620Y-87710183D01*
X161566831Y-87705429D01*
X161498951Y-87569671D01*
X161497164Y-87561453D01*
X161487428Y-87551717D01*
X161478039Y-87541624D01*
X161477092Y-87541382D01*
X161419788Y-87484078D01*
X161415492Y-87476844D01*
X161403164Y-87470680D01*
X161391078Y-87464080D01*
X161390103Y-87464149D01*
X161261906Y-87400051D01*
X161251823Y-87393571D01*
X161241608Y-87393571D01*
X161231549Y-87391761D01*
X161227185Y-87393571D01*
X161096975Y-87393571D01*
X161085055Y-87392284D01*
X161075916Y-87396853D01*
X161066112Y-87399732D01*
X161063018Y-87403302D01*
X160934671Y-87467476D01*
X160926453Y-87469264D01*
X160916717Y-87478999D01*
X160906624Y-87488389D01*
X160906382Y-87489335D01*
X160849078Y-87546639D01*
X160841844Y-87550936D01*
X160835679Y-87563264D01*
X160829080Y-87575350D01*
X160829149Y-87576324D01*
X160767831Y-87698960D01*
X160763624Y-87702916D01*
X160761394Y-87711833D01*
X160760634Y-87713355D01*
X160759657Y-87718783D01*
X160690630Y-87994890D01*
X160687142Y-88000319D01*
X160687142Y-88008845D01*
X160686891Y-88009849D01*
X160687142Y-88016025D01*
X160687142Y-88363913D01*
X160685074Y-88370026D01*
X159734308Y-88370026D01*
X159423702Y-88059420D01*
X159358571Y-87864030D01*
X159358571Y-87741089D01*
X159421092Y-87616046D01*
X159481046Y-87556092D01*
X159606090Y-87493571D01*
X159939625Y-87493571D01*
X160064669Y-87556093D01*
X160135442Y-87626867D01*
X160154636Y-87637348D01*
X160183925Y-87635253D01*
X160207431Y-87617657D01*
X160217692Y-87590146D01*
X160211450Y-87561453D01*
X160134074Y-87484078D01*
X160129778Y-87476844D01*
X160117449Y-87470679D01*
X160105364Y-87464080D01*
X160104389Y-87464149D01*
X159976193Y-87400051D01*
X159966110Y-87393571D01*
X159955895Y-87393571D01*
X159945836Y-87391761D01*
X159941472Y-87393571D01*
X159596976Y-87393571D01*
X159585056Y-87392284D01*
X159575917Y-87396853D01*
X159566113Y-87399732D01*
X159563019Y-87403302D01*
X159434672Y-87467476D01*
X159426455Y-87469264D01*
X159416727Y-87478990D01*
X159406625Y-87488389D01*
X159406382Y-87489335D01*
X159349077Y-87546640D01*
X159341844Y-87550936D01*
X159335683Y-87563256D01*
X159329080Y-87575350D01*
X159329149Y-87576324D01*
X159265051Y-87704520D01*
X159258571Y-87714604D01*
X159258571Y-87724819D01*
X159256761Y-87734878D01*
X159258571Y-87739242D01*
X159258571Y-87865873D01*
X159256494Y-87874026D01*
X157988967Y-87874026D01*
X157631900Y-87338425D01*
X157615135Y-87324383D01*
X157586004Y-87320693D01*
X157559504Y-87333338D01*
X157544047Y-87358302D01*
X125194289Y-87358302D01*
X125194289Y-85586836D01*
X125813639Y-85586836D01*
X125815718Y-85593092D01*
X125815718Y-86441259D01*
X125815232Y-86455052D01*
X125815718Y-86455870D01*
X125815718Y-86520761D01*
X125821879Y-86541744D01*
X125844070Y-86560973D01*
X125873134Y-86565152D01*
X125899843Y-86552954D01*
X125915718Y-86528252D01*
X125915718Y-86523044D01*
X125983810Y-86557090D01*
X125993894Y-86563571D01*
X126004109Y-86563571D01*
X126014168Y-86565381D01*
X126018532Y-86563571D01*
X126291599Y-86563571D01*
X126303519Y-86564858D01*
X126312657Y-86560288D01*
X126322462Y-86557410D01*
X126325555Y-86553839D01*
X126453900Y-86489666D01*
X126462120Y-86487879D01*
X126471859Y-86478139D01*
X126481950Y-86468753D01*
X126482191Y-86467807D01*
X126539498Y-86410501D01*
X126546731Y-86406206D01*
X126552890Y-86393887D01*
X126559495Y-86381792D01*
X126559425Y-86380817D01*
X126623520Y-86252624D01*
X126630003Y-86242538D01*
X126630003Y-86232322D01*
X126631813Y-86222263D01*
X126630003Y-86217899D01*
X126630003Y-85801976D01*
X126631290Y-85790056D01*
X126626721Y-85780918D01*
X126623842Y-85771112D01*
X126620270Y-85768017D01*
X126556099Y-85639674D01*
X126554311Y-85631453D01*
X126544572Y-85621714D01*
X126535187Y-85611624D01*
X126534239Y-85611381D01*
X126476933Y-85554076D01*
X126472638Y-85546844D01*
X126460318Y-85540684D01*
X126448223Y-85534080D01*
X126447249Y-85534149D01*
X126420925Y-85520987D01*
X126956993Y-85520987D01*
X126969191Y-85547696D01*
X126993893Y-85563571D01*
X127139627Y-85563571D01*
X127264672Y-85626093D01*
X127324624Y-85686045D01*
X127387146Y-85811089D01*
X127387146Y-86520761D01*
X127393307Y-86541744D01*
X127415498Y-86560973D01*
X127444562Y-86565152D01*
X127471271Y-86552954D01*
X127487146Y-86528252D01*
X127487146Y-85801975D01*
X127488433Y-85790055D01*
X127487146Y-85787481D01*
X127487146Y-85733450D01*
X128099622Y-85733450D01*
X128101432Y-85737814D01*
X128101432Y-85869831D01*
X128100946Y-85883624D01*
X128101432Y-85884442D01*
X128101432Y-86441259D01*
X128100946Y-86455052D01*
X128101432Y-86455870D01*
X128101432Y-86520761D01*
X128107593Y-86541744D01*
X128129784Y-86560973D01*
X128158848Y-86565152D01*
X128185557Y-86552954D01*
X128201432Y-86528252D01*
X128201432Y-86523044D01*
X128269524Y-86557090D01*
X128279608Y-86563571D01*
X128289823Y-86563571D01*
X128299882Y-86565381D01*
X128304246Y-86563571D01*
X128648742Y-86563571D01*
X128660662Y-86564858D01*
X128669800Y-86560288D01*
X128679605Y-86557410D01*
X128682698Y-86553839D01*
X128805257Y-86492559D01*
X128807199Y-86492628D01*
X128818261Y-86486057D01*
X128823081Y-86483648D01*
X128824426Y-86482396D01*
X128832445Y-86477634D01*
X128834965Y-86472592D01*
X128839093Y-86468753D01*
X128841404Y-86459715D01*
X128909234Y-86324052D01*
X128915717Y-86313966D01*
X128915717Y-86303750D01*
X128917527Y-86293691D01*
X128915717Y-86289327D01*
X128915717Y-86159119D01*
X128917004Y-86147199D01*
X128912435Y-86138061D01*
X128909556Y-86128255D01*
X128905984Y-86125160D01*
X128844706Y-86002603D01*
X128844775Y-86000661D01*
X128838201Y-85989592D01*
X128835795Y-85984780D01*
X128834544Y-85983435D01*
X128829781Y-85975415D01*
X128824740Y-85972894D01*
X128820901Y-85968767D01*
X128811862Y-85966455D01*
X128676196Y-85898622D01*
X128666113Y-85892142D01*
X128655898Y-85892142D01*
X128645839Y-85890332D01*
X128641475Y-85892142D01*
X128306093Y-85892142D01*
X128201432Y-85839812D01*
X128201432Y-85804878D01*
X129385336Y-85804878D01*
X129387146Y-85809242D01*
X129387146Y-86225167D01*
X129385859Y-86237087D01*
X129390428Y-86246225D01*
X129393307Y-86256030D01*
X129396877Y-86259123D01*
X129461051Y-86387470D01*
X129462839Y-86395688D01*
X129472564Y-86405413D01*
X129481964Y-86415518D01*
X129482910Y-86415760D01*
X129540215Y-86473065D01*
X129544511Y-86480298D01*
X129556831Y-86486458D01*
X129568925Y-86493062D01*
X129569899Y-86492992D01*
X129698095Y-86557090D01*
X129708179Y-86563571D01*
X129718394Y-86563571D01*
X129728453Y-86565381D01*
X129732817Y-86563571D01*
X129934456Y-86563571D01*
X129946376Y-86564858D01*
X129955514Y-86560288D01*
X129965319Y-86557410D01*
X129968412Y-86553839D01*
X130096757Y-86489666D01*
X130104977Y-86487879D01*
X130114716Y-86478139D01*
X130124807Y-86468753D01*
X130125048Y-86467807D01*
X130182355Y-86410501D01*
X130189588Y-86406206D01*
X130195747Y-86393887D01*
X130202352Y-86381792D01*
X130202282Y-86380817D01*
X130266377Y-86252624D01*
X130272860Y-86242538D01*
X130272860Y-86232322D01*
X130274670Y-86222263D01*
X130272860Y-86217899D01*
X130272860Y-86019164D01*
X130742479Y-86019164D01*
X130744289Y-86023528D01*
X130744289Y-86225166D01*
X130743002Y-86237086D01*
X130747570Y-86246223D01*
X130750450Y-86256030D01*
X130754021Y-86259124D01*
X130818192Y-86387469D01*
X130819981Y-86395689D01*
X130829716Y-86405424D01*
X130839106Y-86415518D01*
X130840052Y-86415759D01*
X130897358Y-86473065D01*
X130901654Y-86480298D01*
X130913973Y-86486457D01*
X130926069Y-86493062D01*
X130927042Y-86492992D01*
X131055238Y-86557090D01*
X131065322Y-86563571D01*
X131075537Y-86563571D01*
X131085596Y-86565381D01*
X131089960Y-86563571D01*
X131647853Y-86563571D01*
X131658848Y-86565152D01*
X131668949Y-86560538D01*
X131679605Y-86557410D01*
X131682096Y-86554534D01*
X131685557Y-86552954D01*
X131691559Y-86543614D01*
X131698834Y-86535219D01*
X131699375Y-86531451D01*
X131701432Y-86528252D01*
X131701432Y-86520987D01*
X132999851Y-86520987D01*
X133012049Y-86547696D01*
X133036751Y-86563571D01*
X133191599Y-86563571D01*
X133203519Y-86564858D01*
X133212657Y-86560288D01*
X133222462Y-86557410D01*
X133225555Y-86553839D01*
X133348114Y-86492559D01*
X133350056Y-86492628D01*
X133361118Y-86486057D01*
X133365938Y-86483648D01*
X133367283Y-86482396D01*
X133375302Y-86477634D01*
X133377822Y-86472592D01*
X133381950Y-86468753D01*
X133384261Y-86459715D01*
X133430621Y-86366996D01*
X134070883Y-86366996D01*
X134072861Y-86376088D01*
X134072861Y-86520761D01*
X134079022Y-86541744D01*
X134101213Y-86560973D01*
X134130277Y-86565152D01*
X134156986Y-86552954D01*
X134172861Y-86528252D01*
X134172861Y-86487410D01*
X134183211Y-86493062D01*
X134184185Y-86492992D01*
X134312381Y-86557090D01*
X134322465Y-86563571D01*
X134332680Y-86563571D01*
X134342739Y-86565381D01*
X134347103Y-86563571D01*
X134548742Y-86563571D01*
X134560662Y-86564858D01*
X134569800Y-86560288D01*
X134579605Y-86557410D01*
X134582698Y-86553839D01*
X134705257Y-86492559D01*
X134707199Y-86492628D01*
X134718261Y-86486057D01*
X134723081Y-86483648D01*
X134724426Y-86482396D01*
X134732445Y-86477634D01*
X134734965Y-86472592D01*
X134739093Y-86468753D01*
X134741404Y-86459715D01*
X134809237Y-86324049D01*
X134815718Y-86313966D01*
X134815718Y-86303751D01*
X134817528Y-86293692D01*
X134815718Y-86289328D01*
X134815718Y-85804878D01*
X135356765Y-85804878D01*
X135358575Y-85809242D01*
X135358575Y-86225167D01*
X135357288Y-86237087D01*
X135361857Y-86246225D01*
X135364736Y-86256030D01*
X135368306Y-86259123D01*
X135432480Y-86387470D01*
X135434268Y-86395688D01*
X135443993Y-86405413D01*
X135453393Y-86415518D01*
X135454339Y-86415760D01*
X135511644Y-86473065D01*
X135515940Y-86480298D01*
X135528260Y-86486458D01*
X135540354Y-86493062D01*
X135541328Y-86492992D01*
X135669524Y-86557090D01*
X135679608Y-86563571D01*
X135689823Y-86563571D01*
X135699882Y-86565381D01*
X135704246Y-86563571D01*
X135905885Y-86563571D01*
X135917805Y-86564858D01*
X135926943Y-86560288D01*
X135936748Y-86557410D01*
X135939841Y-86553839D01*
X136068186Y-86489666D01*
X136076406Y-86487879D01*
X136086145Y-86478139D01*
X136096236Y-86468753D01*
X136096477Y-86467807D01*
X136153784Y-86410501D01*
X136161017Y-86406206D01*
X136167176Y-86393887D01*
X136173781Y-86381792D01*
X136173711Y-86380817D01*
X136237806Y-86252624D01*
X136244289Y-86242538D01*
X136244289Y-86232322D01*
X136246099Y-86222263D01*
X136244289Y-86217899D01*
X136244289Y-85801976D01*
X136245576Y-85790056D01*
X136241007Y-85780918D01*
X136238128Y-85771112D01*
X136234556Y-85768017D01*
X136170385Y-85639674D01*
X136168597Y-85631453D01*
X136158858Y-85621714D01*
X136149473Y-85611624D01*
X136148525Y-85611381D01*
X136091219Y-85554076D01*
X136086924Y-85546844D01*
X136074604Y-85540684D01*
X136062509Y-85534080D01*
X136061535Y-85534149D01*
X136012943Y-85509853D01*
X136713740Y-85509853D01*
X136719982Y-85538545D01*
X137128270Y-85946834D01*
X136721404Y-86489323D01*
X136713743Y-86509806D01*
X136719958Y-86538504D01*
X136740702Y-86559285D01*
X136769388Y-86565552D01*
X136796909Y-86555316D01*
X137199699Y-86018263D01*
X137287147Y-86105711D01*
X137287147Y-86520761D01*
X137293308Y-86541744D01*
X137315499Y-86560973D01*
X137344563Y-86565152D01*
X137371272Y-86552954D01*
X137387147Y-86528252D01*
X137387147Y-86094021D01*
X137389125Y-86088718D01*
X137387147Y-86079624D01*
X137387147Y-85733450D01*
X137999623Y-85733450D01*
X138001433Y-85737814D01*
X138001433Y-85869831D01*
X138000947Y-85883624D01*
X138001433Y-85884442D01*
X138001433Y-86441259D01*
X138000947Y-86455052D01*
X138001433Y-86455870D01*
X138001433Y-86520761D01*
X138007594Y-86541744D01*
X138029785Y-86560973D01*
X138058849Y-86565152D01*
X138085558Y-86552954D01*
X138101433Y-86528252D01*
X138101433Y-86523044D01*
X138169525Y-86557090D01*
X138179609Y-86563571D01*
X138189824Y-86563571D01*
X138199883Y-86565381D01*
X138204247Y-86563571D01*
X138548743Y-86563571D01*
X138560663Y-86564858D01*
X138569801Y-86560288D01*
X138579606Y-86557410D01*
X138582699Y-86553839D01*
X138705258Y-86492559D01*
X138707200Y-86492628D01*
X138718262Y-86486057D01*
X138723082Y-86483648D01*
X138724427Y-86482396D01*
X138732446Y-86477634D01*
X138734966Y-86472592D01*
X138739094Y-86468753D01*
X138741405Y-86459715D01*
X138809235Y-86324052D01*
X138815718Y-86313966D01*
X138815718Y-86303750D01*
X138817528Y-86293691D01*
X138815718Y-86289327D01*
X138815718Y-86159119D01*
X138817005Y-86147199D01*
X138812436Y-86138061D01*
X138809557Y-86128255D01*
X138805985Y-86125160D01*
X138744707Y-86002603D01*
X138744776Y-86000661D01*
X138738202Y-85989592D01*
X138735796Y-85984780D01*
X138734545Y-85983435D01*
X138729782Y-85975415D01*
X138724741Y-85972894D01*
X138720902Y-85968767D01*
X138711863Y-85966455D01*
X138576197Y-85898622D01*
X138566114Y-85892142D01*
X138555899Y-85892142D01*
X138545840Y-85890332D01*
X138541476Y-85892142D01*
X138206094Y-85892142D01*
X138157550Y-85867870D01*
X139285113Y-85867870D01*
X139287147Y-85876518D01*
X139287147Y-85877904D01*
X139288786Y-85883486D01*
X139291836Y-85896453D01*
X139292893Y-85897475D01*
X139293308Y-85898887D01*
X139303373Y-85907608D01*
X139312945Y-85916864D01*
X139314386Y-85917152D01*
X139315499Y-85918116D01*
X139328684Y-85920011D01*
X140001432Y-86054561D01*
X140001432Y-86287481D01*
X139942735Y-86404874D01*
X139825343Y-86463571D01*
X139563236Y-86463571D01*
X139424505Y-86394205D01*
X139402982Y-86390332D01*
X139375859Y-86401581D01*
X139359123Y-86425707D01*
X139358089Y-86455052D01*
X139373083Y-86480298D01*
X139526667Y-86557090D01*
X139536751Y-86563571D01*
X139546966Y-86563571D01*
X139557025Y-86565381D01*
X139561389Y-86563571D01*
X139834457Y-86563571D01*
X139846377Y-86564858D01*
X139855515Y-86560288D01*
X139865320Y-86557410D01*
X139868413Y-86553839D01*
X139990972Y-86492559D01*
X139992914Y-86492628D01*
X140003976Y-86486057D01*
X140008796Y-86483648D01*
X140010141Y-86482396D01*
X140018160Y-86477634D01*
X140020680Y-86472592D01*
X140024808Y-86468753D01*
X140027119Y-86459715D01*
X140094949Y-86324052D01*
X140101432Y-86313966D01*
X140101432Y-86303750D01*
X140103242Y-86293691D01*
X140101432Y-86289327D01*
X140101432Y-86022161D01*
X140103466Y-86016415D01*
X140101432Y-86007767D01*
X140101432Y-85730548D01*
X140102719Y-85718628D01*
X140098150Y-85709490D01*
X140095271Y-85699684D01*
X140091699Y-85696589D01*
X140030421Y-85574032D01*
X140030490Y-85572090D01*
X140023916Y-85561021D01*
X140021510Y-85556209D01*
X140020259Y-85554864D01*
X140015496Y-85546844D01*
X140010455Y-85544323D01*
X140006616Y-85540196D01*
X139997577Y-85537884D01*
X139963783Y-85520987D01*
X140428422Y-85520987D01*
X140440620Y-85547696D01*
X140465322Y-85563571D01*
X140611056Y-85563571D01*
X140736101Y-85626093D01*
X140796053Y-85686045D01*
X140858575Y-85811089D01*
X140858575Y-86520761D01*
X140864736Y-86541744D01*
X140886927Y-86560973D01*
X140915991Y-86565152D01*
X140942700Y-86552954D01*
X140958575Y-86528252D01*
X140958575Y-86019164D01*
X141499622Y-86019164D01*
X141501432Y-86023528D01*
X141501432Y-86225166D01*
X141500145Y-86237086D01*
X141504713Y-86246223D01*
X141507593Y-86256030D01*
X141511164Y-86259124D01*
X141575335Y-86387469D01*
X141577124Y-86395689D01*
X141586859Y-86405424D01*
X141596249Y-86415518D01*
X141597195Y-86415759D01*
X141654501Y-86473065D01*
X141658797Y-86480298D01*
X141671116Y-86486457D01*
X141683212Y-86493062D01*
X141684185Y-86492992D01*
X141812381Y-86557090D01*
X141822465Y-86563571D01*
X141832680Y-86563571D01*
X141842739Y-86565381D01*
X141847103Y-86563571D01*
X142404996Y-86563571D01*
X142415991Y-86565152D01*
X142426092Y-86560538D01*
X142436748Y-86557410D01*
X142439239Y-86554534D01*
X142442700Y-86552954D01*
X142448702Y-86543614D01*
X142455977Y-86535219D01*
X142456518Y-86531451D01*
X142458575Y-86528252D01*
X142458575Y-86517150D01*
X142460156Y-86506155D01*
X142458575Y-86502693D01*
X142458575Y-85876307D01*
X143899621Y-85876307D01*
X143901431Y-85880671D01*
X143901431Y-86225167D01*
X143900144Y-86237087D01*
X143904713Y-86246225D01*
X143907592Y-86256030D01*
X143911162Y-86259123D01*
X143975336Y-86387470D01*
X143977124Y-86395689D01*
X143986859Y-86405424D01*
X143996249Y-86415518D01*
X143997195Y-86415759D01*
X144054501Y-86473065D01*
X144058797Y-86480298D01*
X144071116Y-86486457D01*
X144083212Y-86493062D01*
X144084185Y-86492992D01*
X144212381Y-86557090D01*
X144222465Y-86563571D01*
X144232680Y-86563571D01*
X144242739Y-86565381D01*
X144247103Y-86563571D01*
X144520170Y-86563571D01*
X144532090Y-86564858D01*
X144541228Y-86560288D01*
X144551033Y-86557410D01*
X144554126Y-86553839D01*
X144682471Y-86489666D01*
X144690691Y-86487879D01*
X144700430Y-86478139D01*
X144710521Y-86468753D01*
X144710762Y-86467807D01*
X144768069Y-86410501D01*
X144775302Y-86406206D01*
X144781461Y-86393887D01*
X144788066Y-86381792D01*
X144787996Y-86380817D01*
X144852091Y-86252624D01*
X144858574Y-86242538D01*
X144858574Y-86232322D01*
X144860384Y-86222263D01*
X144858574Y-86217899D01*
X144858574Y-85873405D01*
X144859861Y-85861485D01*
X144858574Y-85858911D01*
X144858574Y-85664657D01*
X144860642Y-85658544D01*
X144858574Y-85650272D01*
X144858574Y-85649238D01*
X144856833Y-85643311D01*
X144787042Y-85364146D01*
X144786892Y-85355195D01*
X144779549Y-85344181D01*
X144772843Y-85332750D01*
X144771462Y-85332050D01*
X144641136Y-85136560D01*
X144640025Y-85131453D01*
X144633143Y-85124571D01*
X144631903Y-85122711D01*
X144628084Y-85119513D01*
X144562647Y-85054076D01*
X144558352Y-85046844D01*
X144546032Y-85040684D01*
X144533937Y-85034080D01*
X144532963Y-85034149D01*
X144506639Y-85020987D01*
X145185565Y-85020987D01*
X145197763Y-85047696D01*
X145222465Y-85063571D01*
X145615717Y-85063571D01*
X145615717Y-86520761D01*
X145621878Y-86541744D01*
X145644069Y-86560973D01*
X145673133Y-86565152D01*
X145699842Y-86552954D01*
X145715717Y-86528252D01*
X145715717Y-85947735D01*
X146471049Y-85947735D01*
X146472859Y-85952099D01*
X146472859Y-86225167D01*
X146471572Y-86237087D01*
X146476141Y-86246225D01*
X146479020Y-86256030D01*
X146482590Y-86259123D01*
X146546764Y-86387470D01*
X146548552Y-86395689D01*
X146558287Y-86405424D01*
X146567677Y-86415518D01*
X146568623Y-86415759D01*
X146625929Y-86473065D01*
X146630225Y-86480298D01*
X146642544Y-86486457D01*
X146654640Y-86493062D01*
X146655613Y-86492992D01*
X146783809Y-86557090D01*
X146793893Y-86563571D01*
X146804108Y-86563571D01*
X146814167Y-86565381D01*
X146818531Y-86563571D01*
X147091598Y-86563571D01*
X147103518Y-86564858D01*
X147112656Y-86560288D01*
X147122461Y-86557410D01*
X147125554Y-86553839D01*
X147253899Y-86489666D01*
X147262119Y-86487879D01*
X147271858Y-86478139D01*
X147281949Y-86468753D01*
X147282190Y-86467807D01*
X147339497Y-86410501D01*
X147346730Y-86406206D01*
X147352889Y-86393887D01*
X147359494Y-86381792D01*
X147359424Y-86380817D01*
X147366334Y-86366996D01*
X147899453Y-86366996D01*
X147905695Y-86395688D01*
X147985602Y-86475595D01*
X147993120Y-86484934D01*
X148002813Y-86488165D01*
X148011781Y-86493062D01*
X148016492Y-86492724D01*
X148215388Y-86559023D01*
X148222464Y-86563571D01*
X148236232Y-86563571D01*
X148250009Y-86564069D01*
X148250849Y-86563571D01*
X148373733Y-86563571D01*
X148381886Y-86565648D01*
X148394955Y-86561291D01*
X148408175Y-86557410D01*
X148408814Y-86556671D01*
X148607553Y-86490425D01*
X148619262Y-86487878D01*
X148626484Y-86480655D01*
X148634878Y-86474822D01*
X148636684Y-86470455D01*
X148768066Y-86339073D01*
X148775301Y-86334777D01*
X148781465Y-86322448D01*
X148788065Y-86310363D01*
X148787995Y-86309388D01*
X148849313Y-86186753D01*
X148853521Y-86182797D01*
X148855750Y-86173879D01*
X148856511Y-86172358D01*
X148857487Y-86166929D01*
X148926513Y-85890823D01*
X148930002Y-85885395D01*
X148930002Y-85876869D01*
X148930143Y-85876307D01*
X149399620Y-85876307D01*
X149401430Y-85880671D01*
X149401430Y-86225167D01*
X149400143Y-86237087D01*
X149404712Y-86246225D01*
X149407591Y-86256030D01*
X149411161Y-86259123D01*
X149475335Y-86387470D01*
X149477123Y-86395689D01*
X149486858Y-86405424D01*
X149496248Y-86415518D01*
X149497194Y-86415759D01*
X149554500Y-86473065D01*
X149558796Y-86480298D01*
X149571115Y-86486457D01*
X149583211Y-86493062D01*
X149584184Y-86492992D01*
X149712380Y-86557090D01*
X149722464Y-86563571D01*
X149732679Y-86563571D01*
X149742738Y-86565381D01*
X149747102Y-86563571D01*
X150163026Y-86563571D01*
X150174946Y-86564858D01*
X150184084Y-86560288D01*
X150193889Y-86557410D01*
X150196982Y-86553839D01*
X150325327Y-86489666D01*
X150333547Y-86487879D01*
X150343286Y-86478139D01*
X150353377Y-86468753D01*
X150353618Y-86467807D01*
X150420441Y-86400986D01*
X150430922Y-86381792D01*
X150428828Y-86352504D01*
X150411232Y-86328997D01*
X150383720Y-86318736D01*
X150355028Y-86324978D01*
X150278955Y-86401048D01*
X150153912Y-86463571D01*
X149748949Y-86463571D01*
X149623905Y-86401048D01*
X149563951Y-86341095D01*
X149501430Y-86216053D01*
X149501430Y-85940026D01*
X150827933Y-85940026D01*
X150830001Y-85948298D01*
X150830001Y-85949332D01*
X150831741Y-85955259D01*
X150900763Y-86231343D01*
X150900143Y-86237087D01*
X150904254Y-86245310D01*
X150904667Y-86246959D01*
X150907455Y-86251712D01*
X150975335Y-86387470D01*
X150977123Y-86395688D01*
X150986848Y-86405413D01*
X150996248Y-86415518D01*
X150997194Y-86415760D01*
X151054499Y-86473065D01*
X151058795Y-86480298D01*
X151071115Y-86486458D01*
X151083209Y-86493062D01*
X151084183Y-86492992D01*
X151212379Y-86557090D01*
X151222463Y-86563571D01*
X151232678Y-86563571D01*
X151242737Y-86565381D01*
X151247101Y-86563571D01*
X151377311Y-86563571D01*
X151389231Y-86564858D01*
X151398369Y-86560288D01*
X151408174Y-86557410D01*
X151411267Y-86553839D01*
X151476971Y-86520987D01*
X152256991Y-86520987D01*
X152269189Y-86547696D01*
X152293891Y-86563571D01*
X152733565Y-86563571D01*
X152744560Y-86565152D01*
X152748022Y-86563571D01*
X153172905Y-86563571D01*
X153193888Y-86557410D01*
X153213117Y-86535219D01*
X153217296Y-86506155D01*
X153205098Y-86479446D01*
X153180396Y-86463571D01*
X152787144Y-86463571D01*
X152787144Y-85178710D01*
X152833154Y-85247726D01*
X152834265Y-85252831D01*
X152841143Y-85259709D01*
X152842387Y-85261575D01*
X152846213Y-85264779D01*
X152983069Y-85401635D01*
X152987366Y-85408870D01*
X152999691Y-85415032D01*
X153011780Y-85421634D01*
X153012754Y-85421564D01*
X153149786Y-85490079D01*
X153171309Y-85493952D01*
X153198432Y-85482703D01*
X153215167Y-85458577D01*
X153216202Y-85429232D01*
X153201207Y-85403986D01*
X153052475Y-85329620D01*
X152918856Y-85196002D01*
X152802180Y-85020987D01*
X153614134Y-85020987D01*
X153626332Y-85047696D01*
X153651034Y-85063571D01*
X154330001Y-85063571D01*
X154330001Y-85677857D01*
X153872811Y-85677857D01*
X153851828Y-85684018D01*
X153832599Y-85706209D01*
X153828420Y-85735273D01*
X153840618Y-85761982D01*
X153865320Y-85777857D01*
X154330001Y-85777857D01*
X154330001Y-86520761D01*
X154336162Y-86541744D01*
X154358353Y-86560973D01*
X154387417Y-86565152D01*
X154414126Y-86552954D01*
X154430001Y-86528252D01*
X154430001Y-85731436D01*
X154431582Y-85720441D01*
X154430001Y-85716979D01*
X154430001Y-85444026D01*
X154970780Y-85444026D01*
X154975136Y-85457095D01*
X154979018Y-85470315D01*
X154979756Y-85470954D01*
X155046002Y-85669693D01*
X155048550Y-85681402D01*
X155055772Y-85688624D01*
X155061606Y-85697018D01*
X155065972Y-85698824D01*
X155830719Y-86463571D01*
X155015667Y-86463571D01*
X154994684Y-86469732D01*
X154975455Y-86491923D01*
X154971276Y-86520987D01*
X154983474Y-86547696D01*
X155008176Y-86563571D01*
X155938666Y-86563571D01*
X155940351Y-86564491D01*
X155953219Y-86563571D01*
X155958619Y-86563571D01*
X155960357Y-86563060D01*
X155969640Y-86562397D01*
X155974171Y-86559004D01*
X155979602Y-86557410D01*
X155985696Y-86550377D01*
X155993146Y-86544800D01*
X155995123Y-86539497D01*
X155998831Y-86535219D01*
X156000155Y-86526006D01*
X156003407Y-86517289D01*
X156002204Y-86511759D01*
X156003010Y-86506155D01*
X155999142Y-86497686D01*
X155997165Y-86488597D01*
X155993164Y-86484596D01*
X155990812Y-86479446D01*
X155982981Y-86474413D01*
X155384875Y-85876307D01*
X156399618Y-85876307D01*
X156401428Y-85880671D01*
X156401428Y-86225167D01*
X156400141Y-86237087D01*
X156404710Y-86246225D01*
X156407589Y-86256030D01*
X156411159Y-86259123D01*
X156475333Y-86387470D01*
X156477121Y-86395689D01*
X156486856Y-86405424D01*
X156496246Y-86415518D01*
X156497192Y-86415759D01*
X156554498Y-86473065D01*
X156558794Y-86480298D01*
X156571113Y-86486457D01*
X156583209Y-86493062D01*
X156584182Y-86492992D01*
X156712378Y-86557090D01*
X156722462Y-86563571D01*
X156732677Y-86563571D01*
X156742736Y-86565381D01*
X156747100Y-86563571D01*
X157163024Y-86563571D01*
X157174944Y-86564858D01*
X157184082Y-86560288D01*
X157193887Y-86557410D01*
X157196980Y-86553839D01*
X157325325Y-86489666D01*
X157333545Y-86487879D01*
X157343284Y-86478139D01*
X157353375Y-86468753D01*
X157353616Y-86467807D01*
X157420439Y-86400986D01*
X157430920Y-86381792D01*
X157428826Y-86352504D01*
X157411230Y-86328997D01*
X157383718Y-86318736D01*
X157355026Y-86324978D01*
X157278953Y-86401048D01*
X157153910Y-86463571D01*
X156748947Y-86463571D01*
X156623903Y-86401048D01*
X156563949Y-86341095D01*
X156501428Y-86216053D01*
X156501428Y-85882518D01*
X156563950Y-85757473D01*
X156623904Y-85697520D01*
X156748947Y-85635000D01*
X156936878Y-85635000D01*
X156936988Y-85635070D01*
X156951565Y-85635000D01*
X156958618Y-85635000D01*
X156958735Y-85634965D01*
X156966350Y-85634929D01*
X156972529Y-85630915D01*
X156979601Y-85628839D01*
X156984588Y-85623082D01*
X156990975Y-85618935D01*
X156994003Y-85612218D01*
X156998830Y-85606648D01*
X156999914Y-85599106D01*
X157003043Y-85592167D01*
X157001959Y-85584881D01*
X157003009Y-85577584D01*
X156999843Y-85570653D01*
X156998724Y-85563123D01*
X156993872Y-85557578D01*
X156990811Y-85550875D01*
X156984404Y-85546757D01*
X156561616Y-85063571D01*
X157387190Y-85063571D01*
X157408173Y-85057410D01*
X157427402Y-85035219D01*
X157429387Y-85021412D01*
X157899911Y-85021412D01*
X157901429Y-85024665D01*
X157901429Y-86520761D01*
X157907590Y-86541744D01*
X157929781Y-86560973D01*
X157958845Y-86565152D01*
X157985554Y-86552954D01*
X158001429Y-86528252D01*
X158001429Y-85238950D01*
X158405925Y-86105727D01*
X158411766Y-86118800D01*
X158418387Y-86123132D01*
X158423617Y-86129069D01*
X158430418Y-86131005D01*
X158436336Y-86134878D01*
X158444246Y-86134942D01*
X158451858Y-86137110D01*
X158458629Y-86135060D01*
X158465698Y-86135119D01*
X158472385Y-86130898D01*
X158479962Y-86128606D01*
X158484550Y-86123221D01*
X158490530Y-86119448D01*
X158493875Y-86112279D01*
X158499007Y-86106258D01*
X158499955Y-86099249D01*
X158901429Y-85238949D01*
X158901429Y-86520761D01*
X158907590Y-86541744D01*
X158929781Y-86560973D01*
X158958845Y-86565152D01*
X158985554Y-86552954D01*
X159001429Y-86528252D01*
X159001429Y-85020987D01*
X159399848Y-85020987D01*
X159412046Y-85047696D01*
X159436748Y-85063571D01*
X159830000Y-85063571D01*
X159830000Y-86520761D01*
X159836161Y-86541744D01*
X159858352Y-86560973D01*
X159887416Y-86565152D01*
X159914125Y-86552954D01*
X159930000Y-86528252D01*
X159930000Y-85079453D01*
X160685327Y-85079453D01*
X160690553Y-85108347D01*
X160710571Y-85129828D01*
X160739026Y-85137077D01*
X160959543Y-85063571D01*
X161296767Y-85063571D01*
X161421810Y-85126093D01*
X161481764Y-85186046D01*
X161544285Y-85311089D01*
X161544285Y-85430338D01*
X161481764Y-85555382D01*
X161421810Y-85615334D01*
X161291118Y-85680681D01*
X161019370Y-85748618D01*
X161013627Y-85747998D01*
X161005403Y-85752109D01*
X161003755Y-85752522D01*
X160999001Y-85755310D01*
X160863243Y-85823190D01*
X160855026Y-85824978D01*
X160845298Y-85834704D01*
X160835196Y-85844103D01*
X160834953Y-85845049D01*
X160777648Y-85902354D01*
X160770415Y-85906650D01*
X160764254Y-85918970D01*
X160757651Y-85931064D01*
X160757720Y-85932038D01*
X160693622Y-86060235D01*
X160687142Y-86070319D01*
X160687142Y-86080534D01*
X160685332Y-86090593D01*
X160687142Y-86094957D01*
X160687142Y-86225167D01*
X160685855Y-86237087D01*
X160690424Y-86246225D01*
X160693303Y-86256030D01*
X160696873Y-86259123D01*
X160761047Y-86387470D01*
X160762835Y-86395689D01*
X160772570Y-86405424D01*
X160781960Y-86415518D01*
X160782906Y-86415759D01*
X160840212Y-86473065D01*
X160844508Y-86480298D01*
X160856827Y-86486457D01*
X160868923Y-86493062D01*
X160869896Y-86492992D01*
X160998092Y-86557090D01*
X161008176Y-86563571D01*
X161018391Y-86563571D01*
X161028450Y-86565381D01*
X161032814Y-86563571D01*
X161373731Y-86563571D01*
X161381884Y-86565648D01*
X161394952Y-86561291D01*
X161408173Y-86557410D01*
X161408812Y-86556671D01*
X161616917Y-86487303D01*
X161634875Y-86474822D01*
X161646100Y-86447689D01*
X161640873Y-86418795D01*
X161620855Y-86397314D01*
X161592401Y-86390065D01*
X161371887Y-86463571D01*
X161034661Y-86463571D01*
X160909617Y-86401048D01*
X160849663Y-86341095D01*
X160787142Y-86216053D01*
X160787142Y-86096804D01*
X160849663Y-85971760D01*
X160909617Y-85911806D01*
X161040309Y-85846460D01*
X161312057Y-85778523D01*
X161317801Y-85779144D01*
X161326024Y-85775032D01*
X161327673Y-85774620D01*
X161332426Y-85771831D01*
X161468182Y-85703952D01*
X161476402Y-85702165D01*
X161486141Y-85692425D01*
X161496232Y-85683039D01*
X161496473Y-85682093D01*
X161553780Y-85624787D01*
X161561013Y-85620492D01*
X161567171Y-85608174D01*
X161573777Y-85596078D01*
X161573707Y-85595102D01*
X161637802Y-85466909D01*
X161644285Y-85456823D01*
X161644285Y-85446607D01*
X161646095Y-85436548D01*
X161644285Y-85432184D01*
X161644285Y-85301976D01*
X161645572Y-85290056D01*
X161641003Y-85280918D01*
X161638124Y-85271112D01*
X161634552Y-85268017D01*
X161570381Y-85139674D01*
X161568593Y-85131453D01*
X161558854Y-85121714D01*
X161549469Y-85111624D01*
X161548521Y-85111381D01*
X161491215Y-85054076D01*
X161486920Y-85046844D01*
X161474600Y-85040684D01*
X161462505Y-85034080D01*
X161461531Y-85034149D01*
X161333335Y-84970051D01*
X161323252Y-84963571D01*
X161313037Y-84963571D01*
X161302978Y-84961761D01*
X161298614Y-84963571D01*
X160957697Y-84963571D01*
X160949544Y-84961494D01*
X160936476Y-84965850D01*
X160923255Y-84969732D01*
X160922615Y-84970470D01*
X160714510Y-85039840D01*
X160696552Y-85052320D01*
X160685327Y-85079453D01*
X159930000Y-85079453D01*
X159930000Y-85063571D01*
X160315761Y-85063571D01*
X160336744Y-85057410D01*
X160355973Y-85035219D01*
X160360152Y-85006155D01*
X160347954Y-84979446D01*
X160323252Y-84963571D01*
X159883579Y-84963571D01*
X159872584Y-84961990D01*
X159869122Y-84963571D01*
X159444239Y-84963571D01*
X159423256Y-84969732D01*
X159404027Y-84991923D01*
X159399848Y-85020987D01*
X159001429Y-85020987D01*
X159001429Y-85017357D01*
X159003069Y-85006580D01*
X158998454Y-84996250D01*
X158995268Y-84985398D01*
X158992556Y-84983048D01*
X158991092Y-84979770D01*
X158981622Y-84973573D01*
X158973077Y-84966169D01*
X158969525Y-84965658D01*
X158966522Y-84963693D01*
X158955208Y-84963599D01*
X158944013Y-84961990D01*
X158940749Y-84963480D01*
X158937160Y-84963451D01*
X158927592Y-84969489D01*
X158917304Y-84974188D01*
X158915363Y-84977207D01*
X158912328Y-84979123D01*
X158907543Y-84989376D01*
X158901429Y-84998890D01*
X158901429Y-85002478D01*
X158451428Y-85966764D01*
X157998338Y-84995854D01*
X157995268Y-84985398D01*
X157986720Y-84977991D01*
X157979241Y-84969502D01*
X157975789Y-84968519D01*
X157973077Y-84966169D01*
X157961881Y-84964559D01*
X157951000Y-84961461D01*
X157947564Y-84962500D01*
X157944013Y-84961990D01*
X157933726Y-84966687D01*
X157922896Y-84969965D01*
X157920567Y-84972697D01*
X157917304Y-84974188D01*
X157911189Y-84983702D01*
X157903851Y-84992314D01*
X157903369Y-84995870D01*
X157901429Y-84998890D01*
X157901429Y-85010201D01*
X157899911Y-85021412D01*
X157429387Y-85021412D01*
X157431581Y-85006155D01*
X157419383Y-84979446D01*
X157394681Y-84963571D01*
X156465980Y-84963571D01*
X156465868Y-84963500D01*
X156451187Y-84963571D01*
X156444238Y-84963571D01*
X156444121Y-84963605D01*
X156436505Y-84963642D01*
X156430324Y-84967656D01*
X156423255Y-84969732D01*
X156418267Y-84975487D01*
X156411881Y-84979636D01*
X156408852Y-84986353D01*
X156404026Y-84991923D01*
X156402942Y-84999461D01*
X156399812Y-85006404D01*
X156400895Y-85013691D01*
X156399847Y-85020987D01*
X156403011Y-85027916D01*
X156404132Y-85035448D01*
X156408983Y-85040992D01*
X156412045Y-85047696D01*
X156418451Y-85051813D01*
X156841240Y-85535000D01*
X156739834Y-85535000D01*
X156727914Y-85533713D01*
X156718776Y-85538281D01*
X156708970Y-85541161D01*
X156705875Y-85544732D01*
X156577531Y-85608903D01*
X156569312Y-85610692D01*
X156559584Y-85620419D01*
X156549482Y-85629816D01*
X156549239Y-85630764D01*
X156491935Y-85688068D01*
X156484701Y-85692365D01*
X156478536Y-85704693D01*
X156471937Y-85716779D01*
X156472006Y-85717753D01*
X156407908Y-85845949D01*
X156401428Y-85856033D01*
X156401428Y-85866248D01*
X156399618Y-85876307D01*
X155384875Y-85876307D01*
X155137988Y-85629420D01*
X155072857Y-85434030D01*
X155072857Y-85311089D01*
X155135378Y-85186046D01*
X155195332Y-85126092D01*
X155320376Y-85063571D01*
X155653911Y-85063571D01*
X155778955Y-85126093D01*
X155849728Y-85196867D01*
X155868922Y-85207348D01*
X155898211Y-85205253D01*
X155921717Y-85187657D01*
X155931978Y-85160146D01*
X155925736Y-85131453D01*
X155848360Y-85054078D01*
X155844064Y-85046844D01*
X155831735Y-85040679D01*
X155819650Y-85034080D01*
X155818675Y-85034149D01*
X155690479Y-84970051D01*
X155680396Y-84963571D01*
X155670181Y-84963571D01*
X155660122Y-84961761D01*
X155655758Y-84963571D01*
X155311262Y-84963571D01*
X155299342Y-84962284D01*
X155290203Y-84966853D01*
X155280399Y-84969732D01*
X155277305Y-84973302D01*
X155148958Y-85037476D01*
X155140741Y-85039264D01*
X155131013Y-85048990D01*
X155120911Y-85058389D01*
X155120668Y-85059335D01*
X155063363Y-85116640D01*
X155056130Y-85120936D01*
X155049969Y-85133256D01*
X155043366Y-85145350D01*
X155043435Y-85146324D01*
X154979337Y-85274520D01*
X154972857Y-85284604D01*
X154972857Y-85294819D01*
X154971047Y-85304878D01*
X154972857Y-85309242D01*
X154972857Y-85435873D01*
X154970780Y-85444026D01*
X154430001Y-85444026D01*
X154430001Y-85017150D01*
X154431582Y-85006155D01*
X154426968Y-84996053D01*
X154423840Y-84985398D01*
X154420964Y-84982906D01*
X154419384Y-84979446D01*
X154410044Y-84973443D01*
X154401649Y-84966169D01*
X154397881Y-84965627D01*
X154394682Y-84963571D01*
X154383580Y-84963571D01*
X154372585Y-84961990D01*
X154369123Y-84963571D01*
X153658525Y-84963571D01*
X153637542Y-84969732D01*
X153618313Y-84991923D01*
X153614134Y-85020987D01*
X152802180Y-85020987D01*
X152782973Y-84992177D01*
X152780983Y-84985398D01*
X152774994Y-84980208D01*
X152774758Y-84979854D01*
X152769579Y-84975516D01*
X152758792Y-84966169D01*
X152758341Y-84966104D01*
X152757993Y-84965812D01*
X152743848Y-84964020D01*
X152729728Y-84961990D01*
X152729313Y-84962179D01*
X152728862Y-84962122D01*
X152715989Y-84968264D01*
X152703019Y-84974188D01*
X152702772Y-84974570D01*
X152702362Y-84974767D01*
X152694851Y-84986896D01*
X152687144Y-84998890D01*
X152687144Y-84999345D01*
X152686905Y-84999731D01*
X152687144Y-85013964D01*
X152687144Y-86463571D01*
X152301382Y-86463571D01*
X152280399Y-86469732D01*
X152261170Y-86491923D01*
X152256991Y-86520987D01*
X151476971Y-86520987D01*
X151539615Y-86489665D01*
X151547833Y-86487878D01*
X151557558Y-86478152D01*
X151567663Y-86468753D01*
X151567905Y-86467806D01*
X151625210Y-86410501D01*
X151632443Y-86406206D01*
X151638603Y-86393885D01*
X151645207Y-86381792D01*
X151645137Y-86380817D01*
X151706455Y-86258182D01*
X151710663Y-86254226D01*
X151712892Y-86245308D01*
X151713653Y-86243787D01*
X151714629Y-86238358D01*
X151783655Y-85962251D01*
X151787144Y-85956823D01*
X151787144Y-85948297D01*
X151787395Y-85947293D01*
X151787144Y-85941117D01*
X151787144Y-85593229D01*
X151789212Y-85587116D01*
X151787144Y-85578844D01*
X151787144Y-85577810D01*
X151785403Y-85571883D01*
X151716382Y-85295798D01*
X151717003Y-85290055D01*
X151712891Y-85281831D01*
X151712479Y-85280183D01*
X151709690Y-85275429D01*
X151641810Y-85139671D01*
X151640023Y-85131453D01*
X151630287Y-85121717D01*
X151620898Y-85111624D01*
X151619951Y-85111382D01*
X151562647Y-85054078D01*
X151558351Y-85046844D01*
X151546023Y-85040680D01*
X151533937Y-85034080D01*
X151532962Y-85034149D01*
X151404765Y-84970051D01*
X151394682Y-84963571D01*
X151384467Y-84963571D01*
X151374408Y-84961761D01*
X151370044Y-84963571D01*
X151239834Y-84963571D01*
X151227914Y-84962284D01*
X151218775Y-84966853D01*
X151208971Y-84969732D01*
X151205877Y-84973302D01*
X151077530Y-85037476D01*
X151069312Y-85039264D01*
X151059576Y-85048999D01*
X151049483Y-85058389D01*
X151049241Y-85059335D01*
X150991937Y-85116639D01*
X150984703Y-85120936D01*
X150978538Y-85133264D01*
X150971939Y-85145350D01*
X150972008Y-85146324D01*
X150910690Y-85268960D01*
X150906483Y-85272916D01*
X150904253Y-85281833D01*
X150903493Y-85283355D01*
X150902516Y-85288783D01*
X150833489Y-85564890D01*
X150830001Y-85570319D01*
X150830001Y-85578845D01*
X150829750Y-85579849D01*
X150830001Y-85586025D01*
X150830001Y-85933913D01*
X150827933Y-85940026D01*
X149501430Y-85940026D01*
X149501430Y-85882518D01*
X149563952Y-85757473D01*
X149623906Y-85697520D01*
X149748949Y-85635000D01*
X149936880Y-85635000D01*
X149936990Y-85635070D01*
X149951567Y-85635000D01*
X149958620Y-85635000D01*
X149958737Y-85634965D01*
X149966352Y-85634929D01*
X149972531Y-85630915D01*
X149979603Y-85628839D01*
X149984590Y-85623082D01*
X149990977Y-85618935D01*
X149994005Y-85612218D01*
X149998832Y-85606648D01*
X149999916Y-85599106D01*
X150003045Y-85592167D01*
X150001961Y-85584881D01*
X150003011Y-85577584D01*
X149999845Y-85570653D01*
X149998726Y-85563123D01*
X149993874Y-85557578D01*
X149990813Y-85550875D01*
X149984406Y-85546757D01*
X149561618Y-85063571D01*
X150387192Y-85063571D01*
X150408175Y-85057410D01*
X150427404Y-85035219D01*
X150431583Y-85006155D01*
X150419385Y-84979446D01*
X150394683Y-84963571D01*
X149465982Y-84963571D01*
X149465870Y-84963500D01*
X149451189Y-84963571D01*
X149444240Y-84963571D01*
X149444123Y-84963605D01*
X149436507Y-84963642D01*
X149430326Y-84967656D01*
X149423257Y-84969732D01*
X149418269Y-84975487D01*
X149411883Y-84979636D01*
X149408854Y-84986353D01*
X149404028Y-84991923D01*
X149402944Y-84999461D01*
X149399814Y-85006404D01*
X149400897Y-85013691D01*
X149399849Y-85020987D01*
X149403013Y-85027916D01*
X149404134Y-85035448D01*
X149408985Y-85040992D01*
X149412047Y-85047696D01*
X149418453Y-85051813D01*
X149841242Y-85535000D01*
X149739836Y-85535000D01*
X149727916Y-85533713D01*
X149718778Y-85538281D01*
X149708972Y-85541161D01*
X149705877Y-85544732D01*
X149577533Y-85608903D01*
X149569314Y-85610692D01*
X149559586Y-85620419D01*
X149549484Y-85629816D01*
X149549241Y-85630764D01*
X149491937Y-85688068D01*
X149484703Y-85692365D01*
X149478538Y-85704693D01*
X149471939Y-85716779D01*
X149472008Y-85717753D01*
X149407910Y-85845949D01*
X149401430Y-85856033D01*
X149401430Y-85866248D01*
X149399620Y-85876307D01*
X148930143Y-85876307D01*
X148930253Y-85875865D01*
X148930002Y-85869689D01*
X148930002Y-85664657D01*
X148932070Y-85658544D01*
X148930002Y-85650272D01*
X148930002Y-85649238D01*
X148928261Y-85643311D01*
X148859240Y-85367227D01*
X148859861Y-85361484D01*
X148855749Y-85353260D01*
X148855337Y-85351612D01*
X148852548Y-85346858D01*
X148784668Y-85211100D01*
X148782881Y-85202882D01*
X148773144Y-85193145D01*
X148763756Y-85183053D01*
X148762809Y-85182811D01*
X148631548Y-85051550D01*
X148624027Y-85042208D01*
X148614332Y-85038976D01*
X148605366Y-85034080D01*
X148600653Y-85034416D01*
X148401759Y-84968118D01*
X148394683Y-84963571D01*
X148380914Y-84963571D01*
X148367138Y-84963073D01*
X148366298Y-84963571D01*
X148243414Y-84963571D01*
X148235261Y-84961494D01*
X148222193Y-84965850D01*
X148208972Y-84969732D01*
X148208332Y-84970470D01*
X148009603Y-85036714D01*
X147997884Y-85039264D01*
X147990658Y-85046489D01*
X147982269Y-85052320D01*
X147980463Y-85056685D01*
X147910992Y-85126157D01*
X147900511Y-85145350D01*
X147902605Y-85174639D01*
X147920202Y-85198145D01*
X147947713Y-85208406D01*
X147976405Y-85202164D01*
X148049867Y-85128702D01*
X148245260Y-85063571D01*
X148371887Y-85063571D01*
X148567280Y-85128702D01*
X148696051Y-85257473D01*
X148761398Y-85388166D01*
X148830002Y-85662582D01*
X148830002Y-85864557D01*
X148761398Y-86138974D01*
X148696051Y-86269667D01*
X148567280Y-86398439D01*
X148371890Y-86463571D01*
X148245260Y-86463571D01*
X148049868Y-86398440D01*
X147981702Y-86330275D01*
X147962509Y-86319794D01*
X147933220Y-86321888D01*
X147909714Y-86339485D01*
X147899453Y-86366996D01*
X147366334Y-86366996D01*
X147423519Y-86252624D01*
X147430002Y-86242538D01*
X147430002Y-86232322D01*
X147431812Y-86222263D01*
X147430002Y-86217899D01*
X147430002Y-85944833D01*
X147431289Y-85932913D01*
X147426720Y-85923775D01*
X147423841Y-85913969D01*
X147420269Y-85910874D01*
X147356098Y-85782531D01*
X147354310Y-85774310D01*
X147344571Y-85764571D01*
X147335186Y-85754481D01*
X147334238Y-85754238D01*
X147276932Y-85696933D01*
X147272637Y-85689701D01*
X147260317Y-85683541D01*
X147248222Y-85676937D01*
X147247248Y-85677006D01*
X147206091Y-85656428D01*
X147253901Y-85632523D01*
X147262119Y-85630736D01*
X147271844Y-85621010D01*
X147281949Y-85611611D01*
X147282191Y-85610664D01*
X147339497Y-85553358D01*
X147346730Y-85549063D01*
X147352888Y-85536746D01*
X147359494Y-85524648D01*
X147359424Y-85523673D01*
X147423519Y-85395481D01*
X147430002Y-85385395D01*
X147430002Y-85375179D01*
X147431812Y-85365120D01*
X147430002Y-85360756D01*
X147430002Y-85301976D01*
X147431289Y-85290056D01*
X147426720Y-85280918D01*
X147423841Y-85271112D01*
X147420269Y-85268017D01*
X147356098Y-85139674D01*
X147354310Y-85131453D01*
X147344571Y-85121714D01*
X147335186Y-85111624D01*
X147334238Y-85111381D01*
X147276932Y-85054076D01*
X147272637Y-85046844D01*
X147260317Y-85040684D01*
X147248222Y-85034080D01*
X147247248Y-85034149D01*
X147119052Y-84970051D01*
X147108969Y-84963571D01*
X147098754Y-84963571D01*
X147088695Y-84961761D01*
X147084331Y-84963571D01*
X146811264Y-84963571D01*
X146799344Y-84962284D01*
X146790205Y-84966853D01*
X146780401Y-84969732D01*
X146777307Y-84973302D01*
X146648960Y-85037476D01*
X146640743Y-85039264D01*
X146631015Y-85048990D01*
X146620913Y-85058389D01*
X146620670Y-85059335D01*
X146563365Y-85116640D01*
X146556132Y-85120936D01*
X146549971Y-85133256D01*
X146543368Y-85145350D01*
X146543437Y-85146324D01*
X146479339Y-85274520D01*
X146472859Y-85284604D01*
X146472859Y-85294819D01*
X146471049Y-85304878D01*
X146472859Y-85309242D01*
X146472859Y-85368024D01*
X146471572Y-85379944D01*
X146476141Y-85389082D01*
X146479020Y-85398887D01*
X146482590Y-85401980D01*
X146546764Y-85530327D01*
X146548552Y-85538545D01*
X146558277Y-85548270D01*
X146567677Y-85558375D01*
X146568623Y-85558617D01*
X146625929Y-85615923D01*
X146630225Y-85623156D01*
X146642541Y-85629314D01*
X146654640Y-85635920D01*
X146655614Y-85635850D01*
X146696770Y-85656428D01*
X146648960Y-85680333D01*
X146640743Y-85682121D01*
X146631015Y-85691847D01*
X146620913Y-85701246D01*
X146620670Y-85702192D01*
X146563365Y-85759497D01*
X146556132Y-85763793D01*
X146549971Y-85776113D01*
X146543368Y-85788207D01*
X146543437Y-85789181D01*
X146479339Y-85917377D01*
X146472859Y-85927461D01*
X146472859Y-85937676D01*
X146471049Y-85947735D01*
X145715717Y-85947735D01*
X145715717Y-85063571D01*
X146101478Y-85063571D01*
X146122461Y-85057410D01*
X146141690Y-85035219D01*
X146145869Y-85006155D01*
X146133671Y-84979446D01*
X146108969Y-84963571D01*
X145669296Y-84963571D01*
X145658301Y-84961990D01*
X145654839Y-84963571D01*
X145229956Y-84963571D01*
X145208973Y-84969732D01*
X145189744Y-84991923D01*
X145185565Y-85020987D01*
X144506639Y-85020987D01*
X144404767Y-84970051D01*
X144394684Y-84963571D01*
X144384469Y-84963571D01*
X144374410Y-84961761D01*
X144370046Y-84963571D01*
X144087099Y-84963571D01*
X144066116Y-84969732D01*
X144046887Y-84991923D01*
X144042708Y-85020987D01*
X144054906Y-85047696D01*
X144079608Y-85063571D01*
X144368199Y-85063571D01*
X144493242Y-85126093D01*
X144555433Y-85188283D01*
X144690739Y-85391242D01*
X144758574Y-85662582D01*
X144758574Y-85678575D01*
X144705506Y-85625507D01*
X144701209Y-85618272D01*
X144688882Y-85612108D01*
X144676795Y-85605508D01*
X144675820Y-85605577D01*
X144547624Y-85541480D01*
X144537541Y-85535000D01*
X144527326Y-85535000D01*
X144517267Y-85533190D01*
X144512903Y-85535000D01*
X144239837Y-85535000D01*
X144227917Y-85533713D01*
X144218779Y-85538281D01*
X144208973Y-85541161D01*
X144205878Y-85544732D01*
X144077534Y-85608903D01*
X144069315Y-85610692D01*
X144059587Y-85620419D01*
X144049485Y-85629816D01*
X144049242Y-85630764D01*
X143991938Y-85688068D01*
X143984704Y-85692365D01*
X143978539Y-85704693D01*
X143971940Y-85716779D01*
X143972009Y-85717753D01*
X143907911Y-85845949D01*
X143901431Y-85856033D01*
X143901431Y-85866248D01*
X143899621Y-85876307D01*
X142458575Y-85876307D01*
X142458575Y-85731436D01*
X142460156Y-85720441D01*
X142458575Y-85716979D01*
X142458575Y-85017150D01*
X142460156Y-85006155D01*
X142455542Y-84996053D01*
X142452414Y-84985398D01*
X142449538Y-84982906D01*
X142447958Y-84979446D01*
X142438618Y-84973443D01*
X142430223Y-84966169D01*
X142426455Y-84965627D01*
X142423256Y-84963571D01*
X142412154Y-84963571D01*
X142401159Y-84961990D01*
X142397697Y-84963571D01*
X141911265Y-84963571D01*
X141899345Y-84962284D01*
X141890206Y-84966853D01*
X141880402Y-84969732D01*
X141877308Y-84973302D01*
X141748961Y-85037476D01*
X141740744Y-85039264D01*
X141731016Y-85048990D01*
X141720914Y-85058389D01*
X141720671Y-85059335D01*
X141663366Y-85116640D01*
X141656133Y-85120936D01*
X141649972Y-85133256D01*
X141643369Y-85145350D01*
X141643438Y-85146324D01*
X141579340Y-85274520D01*
X141572860Y-85284604D01*
X141572860Y-85294819D01*
X141571050Y-85304878D01*
X141572860Y-85309242D01*
X141572860Y-85439452D01*
X141571573Y-85451372D01*
X141576142Y-85460510D01*
X141579021Y-85470315D01*
X141582591Y-85473408D01*
X141646765Y-85601756D01*
X141648553Y-85609975D01*
X141658288Y-85619710D01*
X141667678Y-85629804D01*
X141668624Y-85630045D01*
X141725930Y-85687351D01*
X141730226Y-85694584D01*
X141742545Y-85700743D01*
X141754641Y-85707348D01*
X141755614Y-85707278D01*
X141778246Y-85718594D01*
X141681024Y-85751001D01*
X141669315Y-85753549D01*
X141662092Y-85760771D01*
X141653699Y-85766605D01*
X141651892Y-85770971D01*
X141591939Y-85830924D01*
X141584704Y-85835222D01*
X141578540Y-85847548D01*
X141571940Y-85859636D01*
X141572009Y-85860610D01*
X141507912Y-85988806D01*
X141501432Y-85998890D01*
X141501432Y-86009105D01*
X141499622Y-86019164D01*
X140958575Y-86019164D01*
X140958575Y-85801975D01*
X140959862Y-85790055D01*
X140958575Y-85787481D01*
X140958575Y-85506381D01*
X140952414Y-85485398D01*
X140930223Y-85466169D01*
X140901159Y-85461990D01*
X140874450Y-85474188D01*
X140858575Y-85498890D01*
X140858575Y-85607146D01*
X140805506Y-85554078D01*
X140801210Y-85546844D01*
X140788882Y-85540680D01*
X140776796Y-85534080D01*
X140775821Y-85534149D01*
X140647624Y-85470051D01*
X140637541Y-85463571D01*
X140627326Y-85463571D01*
X140617267Y-85461761D01*
X140612903Y-85463571D01*
X140472813Y-85463571D01*
X140451830Y-85469732D01*
X140432601Y-85491923D01*
X140428422Y-85520987D01*
X139963783Y-85520987D01*
X139861911Y-85470051D01*
X139851828Y-85463571D01*
X139841613Y-85463571D01*
X139831554Y-85461761D01*
X139827190Y-85463571D01*
X139554122Y-85463571D01*
X139542202Y-85462284D01*
X139533063Y-85466853D01*
X139523259Y-85469732D01*
X139520165Y-85473302D01*
X139397607Y-85534581D01*
X139395665Y-85534513D01*
X139384596Y-85541087D01*
X139379783Y-85543494D01*
X139378438Y-85544744D01*
X139370419Y-85549508D01*
X139367898Y-85554549D01*
X139363771Y-85558389D01*
X139361459Y-85567426D01*
X139293627Y-85703092D01*
X139287147Y-85713176D01*
X139287147Y-85723391D01*
X139285337Y-85733450D01*
X139287147Y-85737814D01*
X139287147Y-85862124D01*
X139285113Y-85867870D01*
X138157550Y-85867870D01*
X138101433Y-85839812D01*
X138101433Y-85739661D01*
X138160128Y-85622268D01*
X138277522Y-85563571D01*
X138539629Y-85563571D01*
X138678360Y-85632937D01*
X138699883Y-85636810D01*
X138727006Y-85625561D01*
X138743742Y-85601435D01*
X138744776Y-85572090D01*
X138729782Y-85546844D01*
X138576197Y-85470051D01*
X138566114Y-85463571D01*
X138555899Y-85463571D01*
X138545840Y-85461761D01*
X138541476Y-85463571D01*
X138268408Y-85463571D01*
X138256488Y-85462284D01*
X138247349Y-85466853D01*
X138237545Y-85469732D01*
X138234451Y-85473302D01*
X138111893Y-85534581D01*
X138109951Y-85534513D01*
X138098882Y-85541087D01*
X138094069Y-85543494D01*
X138092724Y-85544744D01*
X138084705Y-85549508D01*
X138082184Y-85554549D01*
X138078057Y-85558389D01*
X138075745Y-85567426D01*
X138007913Y-85703092D01*
X138001433Y-85713176D01*
X138001433Y-85723391D01*
X137999623Y-85733450D01*
X137387147Y-85733450D01*
X137387147Y-85006381D01*
X137380986Y-84985398D01*
X137358795Y-84966169D01*
X137329731Y-84961990D01*
X137303022Y-84974188D01*
X137287147Y-84998890D01*
X137287147Y-85964289D01*
X137230081Y-85907224D01*
X137219306Y-85896428D01*
X137219280Y-85896422D01*
X136795989Y-85473132D01*
X136776796Y-85462651D01*
X136747507Y-85464745D01*
X136724001Y-85482342D01*
X136713740Y-85509853D01*
X136012943Y-85509853D01*
X135933339Y-85470051D01*
X135923256Y-85463571D01*
X135913041Y-85463571D01*
X135902982Y-85461761D01*
X135898618Y-85463571D01*
X135696979Y-85463571D01*
X135685059Y-85462284D01*
X135675920Y-85466853D01*
X135666116Y-85469732D01*
X135663022Y-85473302D01*
X135534675Y-85537476D01*
X135526457Y-85539264D01*
X135516721Y-85548999D01*
X135506628Y-85558389D01*
X135506386Y-85559335D01*
X135449082Y-85616639D01*
X135441848Y-85620936D01*
X135435683Y-85633264D01*
X135429084Y-85645350D01*
X135429153Y-85646324D01*
X135365055Y-85774520D01*
X135358575Y-85784604D01*
X135358575Y-85794819D01*
X135356765Y-85804878D01*
X134815718Y-85804878D01*
X134815718Y-85506381D01*
X134809557Y-85485398D01*
X134787366Y-85466169D01*
X134758302Y-85461990D01*
X134731593Y-85474188D01*
X134715718Y-85498890D01*
X134715718Y-86287481D01*
X134657021Y-86404874D01*
X134539628Y-86463571D01*
X134348950Y-86463571D01*
X134223906Y-86401048D01*
X134172861Y-86350004D01*
X134172861Y-85506381D01*
X134166700Y-85485398D01*
X134144509Y-85466169D01*
X134115445Y-85461990D01*
X134088736Y-85474188D01*
X134072861Y-85498890D01*
X134072861Y-86361693D01*
X134070883Y-86366996D01*
X133430621Y-86366996D01*
X133452094Y-86324049D01*
X133458575Y-86313966D01*
X133458575Y-86303751D01*
X133460385Y-86293692D01*
X133458575Y-86289328D01*
X133458575Y-85563571D01*
X133630050Y-85563571D01*
X133651033Y-85557410D01*
X133670262Y-85535219D01*
X133674441Y-85506155D01*
X133662243Y-85479446D01*
X133637541Y-85463571D01*
X133458575Y-85463571D01*
X133458575Y-85006381D01*
X133452414Y-84985398D01*
X133430223Y-84966169D01*
X133401159Y-84961990D01*
X133374450Y-84974188D01*
X133358575Y-84998890D01*
X133358575Y-85463571D01*
X133044242Y-85463571D01*
X133023259Y-85469732D01*
X133004030Y-85491923D01*
X132999851Y-85520987D01*
X133012049Y-85547696D01*
X133036751Y-85563571D01*
X133358575Y-85563571D01*
X133358575Y-86287481D01*
X133299878Y-86404874D01*
X133182485Y-86463571D01*
X133044242Y-86463571D01*
X133023259Y-86469732D01*
X133004030Y-86491923D01*
X132999851Y-86520987D01*
X131701432Y-86520987D01*
X131701432Y-86517150D01*
X131703013Y-86506155D01*
X131701432Y-86502693D01*
X131701432Y-85731436D01*
X131703013Y-85720441D01*
X131701432Y-85716979D01*
X131701432Y-85017150D01*
X131703013Y-85006155D01*
X131698399Y-84996053D01*
X131695271Y-84985398D01*
X131692395Y-84982906D01*
X131690815Y-84979446D01*
X131681475Y-84973443D01*
X131673080Y-84966169D01*
X131669312Y-84965627D01*
X131666113Y-84963571D01*
X131655011Y-84963571D01*
X131644016Y-84961990D01*
X131640554Y-84963571D01*
X131154122Y-84963571D01*
X131142202Y-84962284D01*
X131133063Y-84966853D01*
X131123259Y-84969732D01*
X131120165Y-84973302D01*
X130991818Y-85037476D01*
X130983601Y-85039264D01*
X130973873Y-85048990D01*
X130963771Y-85058389D01*
X130963528Y-85059335D01*
X130906223Y-85116640D01*
X130898990Y-85120936D01*
X130892829Y-85133256D01*
X130886226Y-85145350D01*
X130886295Y-85146324D01*
X130822197Y-85274520D01*
X130815717Y-85284604D01*
X130815717Y-85294819D01*
X130813907Y-85304878D01*
X130815717Y-85309242D01*
X130815717Y-85439452D01*
X130814430Y-85451372D01*
X130818999Y-85460510D01*
X130821878Y-85470315D01*
X130825448Y-85473408D01*
X130889622Y-85601756D01*
X130891410Y-85609975D01*
X130901145Y-85619710D01*
X130910535Y-85629804D01*
X130911481Y-85630045D01*
X130968787Y-85687351D01*
X130973083Y-85694584D01*
X130985402Y-85700743D01*
X130997498Y-85707348D01*
X130998471Y-85707278D01*
X131021103Y-85718594D01*
X130923881Y-85751001D01*
X130912172Y-85753549D01*
X130904949Y-85760771D01*
X130896556Y-85766605D01*
X130894749Y-85770971D01*
X130834796Y-85830924D01*
X130827561Y-85835222D01*
X130821397Y-85847548D01*
X130814797Y-85859636D01*
X130814866Y-85860610D01*
X130750769Y-85988806D01*
X130744289Y-85998890D01*
X130744289Y-86009105D01*
X130742479Y-86019164D01*
X130272860Y-86019164D01*
X130272860Y-85801976D01*
X130274147Y-85790056D01*
X130269578Y-85780918D01*
X130266699Y-85771112D01*
X130263127Y-85768017D01*
X130198956Y-85639674D01*
X130197168Y-85631453D01*
X130187429Y-85621714D01*
X130178044Y-85611624D01*
X130177096Y-85611381D01*
X130119790Y-85554076D01*
X130115495Y-85546844D01*
X130103175Y-85540684D01*
X130091080Y-85534080D01*
X130090106Y-85534149D01*
X129961910Y-85470051D01*
X129951827Y-85463571D01*
X129941612Y-85463571D01*
X129931553Y-85461761D01*
X129927189Y-85463571D01*
X129725550Y-85463571D01*
X129713630Y-85462284D01*
X129704491Y-85466853D01*
X129694687Y-85469732D01*
X129691593Y-85473302D01*
X129563246Y-85537476D01*
X129555028Y-85539264D01*
X129545292Y-85548999D01*
X129535199Y-85558389D01*
X129534957Y-85559335D01*
X129477653Y-85616639D01*
X129470419Y-85620936D01*
X129464254Y-85633264D01*
X129457655Y-85645350D01*
X129457724Y-85646324D01*
X129393626Y-85774520D01*
X129387146Y-85784604D01*
X129387146Y-85794819D01*
X129385336Y-85804878D01*
X128201432Y-85804878D01*
X128201432Y-85739661D01*
X128260127Y-85622268D01*
X128377521Y-85563571D01*
X128639628Y-85563571D01*
X128778359Y-85632937D01*
X128799882Y-85636810D01*
X128827005Y-85625561D01*
X128843741Y-85601435D01*
X128844775Y-85572090D01*
X128829781Y-85546844D01*
X128676196Y-85470051D01*
X128666113Y-85463571D01*
X128655898Y-85463571D01*
X128645839Y-85461761D01*
X128641475Y-85463571D01*
X128368407Y-85463571D01*
X128356487Y-85462284D01*
X128347348Y-85466853D01*
X128337544Y-85469732D01*
X128334450Y-85473302D01*
X128211892Y-85534581D01*
X128209950Y-85534513D01*
X128198881Y-85541087D01*
X128194068Y-85543494D01*
X128192723Y-85544744D01*
X128184704Y-85549508D01*
X128182183Y-85554549D01*
X128178056Y-85558389D01*
X128175744Y-85567426D01*
X128107912Y-85703092D01*
X128101432Y-85713176D01*
X128101432Y-85723391D01*
X128099622Y-85733450D01*
X127487146Y-85733450D01*
X127487146Y-85506381D01*
X127480985Y-85485398D01*
X127458794Y-85466169D01*
X127429730Y-85461990D01*
X127403021Y-85474188D01*
X127387146Y-85498890D01*
X127387146Y-85607146D01*
X127334077Y-85554078D01*
X127329781Y-85546844D01*
X127317453Y-85540680D01*
X127305367Y-85534080D01*
X127304392Y-85534149D01*
X127176195Y-85470051D01*
X127166112Y-85463571D01*
X127155897Y-85463571D01*
X127145838Y-85461761D01*
X127141474Y-85463571D01*
X127001384Y-85463571D01*
X126980401Y-85469732D01*
X126961172Y-85491923D01*
X126956993Y-85520987D01*
X126420925Y-85520987D01*
X126319053Y-85470051D01*
X126308970Y-85463571D01*
X126298755Y-85463571D01*
X126288696Y-85461761D01*
X126284332Y-85463571D01*
X126011265Y-85463571D01*
X125999345Y-85462284D01*
X125990206Y-85466853D01*
X125980402Y-85469732D01*
X125977308Y-85473302D01*
X125915718Y-85504098D01*
X125915718Y-85006381D01*
X125909557Y-84985398D01*
X125887366Y-84966169D01*
X125858302Y-84961990D01*
X125831593Y-84974188D01*
X125815718Y-84998890D01*
X125815718Y-85578707D01*
X125813639Y-85586836D01*
X125194289Y-85586836D01*
X125194289Y-84725714D01*
X162244286Y-84725714D01*
X162244286Y-89634286D01*
G37*
D11*
X162051904Y-91092380D02*
X162051904Y-90092380D01*
X161623333Y-91092380D02*
X161623333Y-90568571D01*
X161623333Y-90568571D02*
X161670952Y-90473333D01*
X161670952Y-90473333D02*
X161766190Y-90425714D01*
X161766190Y-90425714D02*
X161909047Y-90425714D01*
X161909047Y-90425714D02*
X162004285Y-90473333D01*
X162004285Y-90473333D02*
X162051904Y-90520952D01*
X161289999Y-90425714D02*
X160909047Y-90425714D01*
X161147142Y-90092380D02*
X161147142Y-90949523D01*
X161147142Y-90949523D02*
X161099523Y-91044761D01*
X161099523Y-91044761D02*
X161004285Y-91092380D01*
X161004285Y-91092380D02*
X160909047Y-91092380D01*
X160718570Y-90425714D02*
X160337618Y-90425714D01*
X160575713Y-90092380D02*
X160575713Y-90949523D01*
X160575713Y-90949523D02*
X160528094Y-91044761D01*
X160528094Y-91044761D02*
X160432856Y-91092380D01*
X160432856Y-91092380D02*
X160337618Y-91092380D01*
X160004284Y-90425714D02*
X160004284Y-91425714D01*
X160004284Y-90473333D02*
X159909046Y-90425714D01*
X159909046Y-90425714D02*
X159718570Y-90425714D01*
X159718570Y-90425714D02*
X159623332Y-90473333D01*
X159623332Y-90473333D02*
X159575713Y-90520952D01*
X159575713Y-90520952D02*
X159528094Y-90616190D01*
X159528094Y-90616190D02*
X159528094Y-90901904D01*
X159528094Y-90901904D02*
X159575713Y-90997142D01*
X159575713Y-90997142D02*
X159623332Y-91044761D01*
X159623332Y-91044761D02*
X159718570Y-91092380D01*
X159718570Y-91092380D02*
X159909046Y-91092380D01*
X159909046Y-91092380D02*
X160004284Y-91044761D01*
X159147141Y-91044761D02*
X159051903Y-91092380D01*
X159051903Y-91092380D02*
X158861427Y-91092380D01*
X158861427Y-91092380D02*
X158766189Y-91044761D01*
X158766189Y-91044761D02*
X158718570Y-90949523D01*
X158718570Y-90949523D02*
X158718570Y-90901904D01*
X158718570Y-90901904D02*
X158766189Y-90806666D01*
X158766189Y-90806666D02*
X158861427Y-90759047D01*
X158861427Y-90759047D02*
X159004284Y-90759047D01*
X159004284Y-90759047D02*
X159099522Y-90711428D01*
X159099522Y-90711428D02*
X159147141Y-90616190D01*
X159147141Y-90616190D02*
X159147141Y-90568571D01*
X159147141Y-90568571D02*
X159099522Y-90473333D01*
X159099522Y-90473333D02*
X159004284Y-90425714D01*
X159004284Y-90425714D02*
X158861427Y-90425714D01*
X158861427Y-90425714D02*
X158766189Y-90473333D01*
X158289998Y-90997142D02*
X158242379Y-91044761D01*
X158242379Y-91044761D02*
X158289998Y-91092380D01*
X158289998Y-91092380D02*
X158337617Y-91044761D01*
X158337617Y-91044761D02*
X158289998Y-90997142D01*
X158289998Y-90997142D02*
X158289998Y-91092380D01*
X158289998Y-90473333D02*
X158242379Y-90520952D01*
X158242379Y-90520952D02*
X158289998Y-90568571D01*
X158289998Y-90568571D02*
X158337617Y-90520952D01*
X158337617Y-90520952D02*
X158289998Y-90473333D01*
X158289998Y-90473333D02*
X158289998Y-90568571D01*
X157099523Y-90044761D02*
X157956665Y-91330476D01*
X156051904Y-90044761D02*
X156909046Y-91330476D01*
X155289999Y-90425714D02*
X155289999Y-91235238D01*
X155289999Y-91235238D02*
X155337618Y-91330476D01*
X155337618Y-91330476D02*
X155385237Y-91378095D01*
X155385237Y-91378095D02*
X155480475Y-91425714D01*
X155480475Y-91425714D02*
X155623332Y-91425714D01*
X155623332Y-91425714D02*
X155718570Y-91378095D01*
X155289999Y-91044761D02*
X155385237Y-91092380D01*
X155385237Y-91092380D02*
X155575713Y-91092380D01*
X155575713Y-91092380D02*
X155670951Y-91044761D01*
X155670951Y-91044761D02*
X155718570Y-90997142D01*
X155718570Y-90997142D02*
X155766189Y-90901904D01*
X155766189Y-90901904D02*
X155766189Y-90616190D01*
X155766189Y-90616190D02*
X155718570Y-90520952D01*
X155718570Y-90520952D02*
X155670951Y-90473333D01*
X155670951Y-90473333D02*
X155575713Y-90425714D01*
X155575713Y-90425714D02*
X155385237Y-90425714D01*
X155385237Y-90425714D02*
X155289999Y-90473333D01*
X154813808Y-91092380D02*
X154813808Y-90425714D01*
X154813808Y-90092380D02*
X154861427Y-90140000D01*
X154861427Y-90140000D02*
X154813808Y-90187619D01*
X154813808Y-90187619D02*
X154766189Y-90140000D01*
X154766189Y-90140000D02*
X154813808Y-90092380D01*
X154813808Y-90092380D02*
X154813808Y-90187619D01*
X154480475Y-90425714D02*
X154099523Y-90425714D01*
X154337618Y-90092380D02*
X154337618Y-90949523D01*
X154337618Y-90949523D02*
X154289999Y-91044761D01*
X154289999Y-91044761D02*
X154194761Y-91092380D01*
X154194761Y-91092380D02*
X154099523Y-91092380D01*
X153766189Y-91092380D02*
X153766189Y-90092380D01*
X153337618Y-91092380D02*
X153337618Y-90568571D01*
X153337618Y-90568571D02*
X153385237Y-90473333D01*
X153385237Y-90473333D02*
X153480475Y-90425714D01*
X153480475Y-90425714D02*
X153623332Y-90425714D01*
X153623332Y-90425714D02*
X153718570Y-90473333D01*
X153718570Y-90473333D02*
X153766189Y-90520952D01*
X152432856Y-90425714D02*
X152432856Y-91092380D01*
X152861427Y-90425714D02*
X152861427Y-90949523D01*
X152861427Y-90949523D02*
X152813808Y-91044761D01*
X152813808Y-91044761D02*
X152718570Y-91092380D01*
X152718570Y-91092380D02*
X152575713Y-91092380D01*
X152575713Y-91092380D02*
X152480475Y-91044761D01*
X152480475Y-91044761D02*
X152432856Y-90997142D01*
X151956665Y-91092380D02*
X151956665Y-90092380D01*
X151956665Y-90473333D02*
X151861427Y-90425714D01*
X151861427Y-90425714D02*
X151670951Y-90425714D01*
X151670951Y-90425714D02*
X151575713Y-90473333D01*
X151575713Y-90473333D02*
X151528094Y-90520952D01*
X151528094Y-90520952D02*
X151480475Y-90616190D01*
X151480475Y-90616190D02*
X151480475Y-90901904D01*
X151480475Y-90901904D02*
X151528094Y-90997142D01*
X151528094Y-90997142D02*
X151575713Y-91044761D01*
X151575713Y-91044761D02*
X151670951Y-91092380D01*
X151670951Y-91092380D02*
X151861427Y-91092380D01*
X151861427Y-91092380D02*
X151956665Y-91044761D01*
X151051903Y-90997142D02*
X151004284Y-91044761D01*
X151004284Y-91044761D02*
X151051903Y-91092380D01*
X151051903Y-91092380D02*
X151099522Y-91044761D01*
X151099522Y-91044761D02*
X151051903Y-90997142D01*
X151051903Y-90997142D02*
X151051903Y-91092380D01*
X150147142Y-91044761D02*
X150242380Y-91092380D01*
X150242380Y-91092380D02*
X150432856Y-91092380D01*
X150432856Y-91092380D02*
X150528094Y-91044761D01*
X150528094Y-91044761D02*
X150575713Y-90997142D01*
X150575713Y-90997142D02*
X150623332Y-90901904D01*
X150623332Y-90901904D02*
X150623332Y-90616190D01*
X150623332Y-90616190D02*
X150575713Y-90520952D01*
X150575713Y-90520952D02*
X150528094Y-90473333D01*
X150528094Y-90473333D02*
X150432856Y-90425714D01*
X150432856Y-90425714D02*
X150242380Y-90425714D01*
X150242380Y-90425714D02*
X150147142Y-90473333D01*
X149575713Y-91092380D02*
X149670951Y-91044761D01*
X149670951Y-91044761D02*
X149718570Y-90997142D01*
X149718570Y-90997142D02*
X149766189Y-90901904D01*
X149766189Y-90901904D02*
X149766189Y-90616190D01*
X149766189Y-90616190D02*
X149718570Y-90520952D01*
X149718570Y-90520952D02*
X149670951Y-90473333D01*
X149670951Y-90473333D02*
X149575713Y-90425714D01*
X149575713Y-90425714D02*
X149432856Y-90425714D01*
X149432856Y-90425714D02*
X149337618Y-90473333D01*
X149337618Y-90473333D02*
X149289999Y-90520952D01*
X149289999Y-90520952D02*
X149242380Y-90616190D01*
X149242380Y-90616190D02*
X149242380Y-90901904D01*
X149242380Y-90901904D02*
X149289999Y-90997142D01*
X149289999Y-90997142D02*
X149337618Y-91044761D01*
X149337618Y-91044761D02*
X149432856Y-91092380D01*
X149432856Y-91092380D02*
X149575713Y-91092380D01*
X148813808Y-91092380D02*
X148813808Y-90425714D01*
X148813808Y-90520952D02*
X148766189Y-90473333D01*
X148766189Y-90473333D02*
X148670951Y-90425714D01*
X148670951Y-90425714D02*
X148528094Y-90425714D01*
X148528094Y-90425714D02*
X148432856Y-90473333D01*
X148432856Y-90473333D02*
X148385237Y-90568571D01*
X148385237Y-90568571D02*
X148385237Y-91092380D01*
X148385237Y-90568571D02*
X148337618Y-90473333D01*
X148337618Y-90473333D02*
X148242380Y-90425714D01*
X148242380Y-90425714D02*
X148099523Y-90425714D01*
X148099523Y-90425714D02*
X148004284Y-90473333D01*
X148004284Y-90473333D02*
X147956665Y-90568571D01*
X147956665Y-90568571D02*
X147956665Y-91092380D01*
X146766190Y-90044761D02*
X147623332Y-91330476D01*
X146528094Y-90425714D02*
X146289999Y-91092380D01*
X146051904Y-90425714D02*
X146289999Y-91092380D01*
X146289999Y-91092380D02*
X146385237Y-91330476D01*
X146385237Y-91330476D02*
X146432856Y-91378095D01*
X146432856Y-91378095D02*
X146528094Y-91425714D01*
X145670951Y-91092380D02*
X145670951Y-90425714D01*
X145670951Y-90520952D02*
X145623332Y-90473333D01*
X145623332Y-90473333D02*
X145528094Y-90425714D01*
X145528094Y-90425714D02*
X145385237Y-90425714D01*
X145385237Y-90425714D02*
X145289999Y-90473333D01*
X145289999Y-90473333D02*
X145242380Y-90568571D01*
X145242380Y-90568571D02*
X145242380Y-91092380D01*
X145242380Y-90568571D02*
X145194761Y-90473333D01*
X145194761Y-90473333D02*
X145099523Y-90425714D01*
X145099523Y-90425714D02*
X144956666Y-90425714D01*
X144956666Y-90425714D02*
X144861427Y-90473333D01*
X144861427Y-90473333D02*
X144813808Y-90568571D01*
X144813808Y-90568571D02*
X144813808Y-91092380D01*
X144337618Y-91092380D02*
X144337618Y-90092380D01*
X143909047Y-91092380D02*
X143909047Y-90568571D01*
X143909047Y-90568571D02*
X143956666Y-90473333D01*
X143956666Y-90473333D02*
X144051904Y-90425714D01*
X144051904Y-90425714D02*
X144194761Y-90425714D01*
X144194761Y-90425714D02*
X144289999Y-90473333D01*
X144289999Y-90473333D02*
X144337618Y-90520952D01*
X143575713Y-90425714D02*
X143194761Y-90425714D01*
X143432856Y-90092380D02*
X143432856Y-90949523D01*
X143432856Y-90949523D02*
X143385237Y-91044761D01*
X143385237Y-91044761D02*
X143289999Y-91092380D01*
X143289999Y-91092380D02*
X143194761Y-91092380D01*
X142956665Y-90425714D02*
X142766189Y-91092380D01*
X142766189Y-91092380D02*
X142575713Y-90616190D01*
X142575713Y-90616190D02*
X142385237Y-91092380D01*
X142385237Y-91092380D02*
X142194761Y-90425714D01*
X141432856Y-91044761D02*
X141528094Y-91092380D01*
X141528094Y-91092380D02*
X141718570Y-91092380D01*
X141718570Y-91092380D02*
X141813808Y-91044761D01*
X141813808Y-91044761D02*
X141861427Y-90949523D01*
X141861427Y-90949523D02*
X141861427Y-90568571D01*
X141861427Y-90568571D02*
X141813808Y-90473333D01*
X141813808Y-90473333D02*
X141718570Y-90425714D01*
X141718570Y-90425714D02*
X141528094Y-90425714D01*
X141528094Y-90425714D02*
X141432856Y-90473333D01*
X141432856Y-90473333D02*
X141385237Y-90568571D01*
X141385237Y-90568571D02*
X141385237Y-90663809D01*
X141385237Y-90663809D02*
X141861427Y-90759047D01*
X161337619Y-91664761D02*
X162194761Y-92950476D01*
X161051904Y-92664761D02*
X160909047Y-92712380D01*
X160909047Y-92712380D02*
X160670952Y-92712380D01*
X160670952Y-92712380D02*
X160575714Y-92664761D01*
X160575714Y-92664761D02*
X160528095Y-92617142D01*
X160528095Y-92617142D02*
X160480476Y-92521904D01*
X160480476Y-92521904D02*
X160480476Y-92426666D01*
X160480476Y-92426666D02*
X160528095Y-92331428D01*
X160528095Y-92331428D02*
X160575714Y-92283809D01*
X160575714Y-92283809D02*
X160670952Y-92236190D01*
X160670952Y-92236190D02*
X160861428Y-92188571D01*
X160861428Y-92188571D02*
X160956666Y-92140952D01*
X160956666Y-92140952D02*
X161004285Y-92093333D01*
X161004285Y-92093333D02*
X161051904Y-91998095D01*
X161051904Y-91998095D02*
X161051904Y-91902857D01*
X161051904Y-91902857D02*
X161004285Y-91807619D01*
X161004285Y-91807619D02*
X160956666Y-91760000D01*
X160956666Y-91760000D02*
X160861428Y-91712380D01*
X160861428Y-91712380D02*
X160623333Y-91712380D01*
X160623333Y-91712380D02*
X160480476Y-91760000D01*
X160194761Y-91712380D02*
X159623333Y-91712380D01*
X159909047Y-92712380D02*
X159909047Y-91712380D01*
X159289999Y-92712380D02*
X159289999Y-91712380D01*
X159289999Y-91712380D02*
X158956666Y-92426666D01*
X158956666Y-92426666D02*
X158623333Y-91712380D01*
X158623333Y-91712380D02*
X158623333Y-92712380D01*
X158242380Y-91712380D02*
X157623333Y-91712380D01*
X157623333Y-91712380D02*
X157956666Y-92093333D01*
X157956666Y-92093333D02*
X157813809Y-92093333D01*
X157813809Y-92093333D02*
X157718571Y-92140952D01*
X157718571Y-92140952D02*
X157670952Y-92188571D01*
X157670952Y-92188571D02*
X157623333Y-92283809D01*
X157623333Y-92283809D02*
X157623333Y-92521904D01*
X157623333Y-92521904D02*
X157670952Y-92617142D01*
X157670952Y-92617142D02*
X157718571Y-92664761D01*
X157718571Y-92664761D02*
X157813809Y-92712380D01*
X157813809Y-92712380D02*
X158099523Y-92712380D01*
X158099523Y-92712380D02*
X158194761Y-92664761D01*
X158194761Y-92664761D02*
X158242380Y-92617142D01*
X157242380Y-91807619D02*
X157194761Y-91760000D01*
X157194761Y-91760000D02*
X157099523Y-91712380D01*
X157099523Y-91712380D02*
X156861428Y-91712380D01*
X156861428Y-91712380D02*
X156766190Y-91760000D01*
X156766190Y-91760000D02*
X156718571Y-91807619D01*
X156718571Y-91807619D02*
X156670952Y-91902857D01*
X156670952Y-91902857D02*
X156670952Y-91998095D01*
X156670952Y-91998095D02*
X156718571Y-92140952D01*
X156718571Y-92140952D02*
X157289999Y-92712380D01*
X157289999Y-92712380D02*
X156670952Y-92712380D01*
X155909047Y-92188571D02*
X156242380Y-92188571D01*
X156242380Y-92712380D02*
X156242380Y-91712380D01*
X156242380Y-91712380D02*
X155766190Y-91712380D01*
X154861428Y-92712380D02*
X155432856Y-92712380D01*
X155147142Y-92712380D02*
X155147142Y-91712380D01*
X155147142Y-91712380D02*
X155242380Y-91855238D01*
X155242380Y-91855238D02*
X155337618Y-91950476D01*
X155337618Y-91950476D02*
X155432856Y-91998095D01*
X154242380Y-91712380D02*
X154147142Y-91712380D01*
X154147142Y-91712380D02*
X154051904Y-91760000D01*
X154051904Y-91760000D02*
X154004285Y-91807619D01*
X154004285Y-91807619D02*
X153956666Y-91902857D01*
X153956666Y-91902857D02*
X153909047Y-92093333D01*
X153909047Y-92093333D02*
X153909047Y-92331428D01*
X153909047Y-92331428D02*
X153956666Y-92521904D01*
X153956666Y-92521904D02*
X154004285Y-92617142D01*
X154004285Y-92617142D02*
X154051904Y-92664761D01*
X154051904Y-92664761D02*
X154147142Y-92712380D01*
X154147142Y-92712380D02*
X154242380Y-92712380D01*
X154242380Y-92712380D02*
X154337618Y-92664761D01*
X154337618Y-92664761D02*
X154385237Y-92617142D01*
X154385237Y-92617142D02*
X154432856Y-92521904D01*
X154432856Y-92521904D02*
X154480475Y-92331428D01*
X154480475Y-92331428D02*
X154480475Y-92093333D01*
X154480475Y-92093333D02*
X154432856Y-91902857D01*
X154432856Y-91902857D02*
X154385237Y-91807619D01*
X154385237Y-91807619D02*
X154337618Y-91760000D01*
X154337618Y-91760000D02*
X154242380Y-91712380D01*
X153575713Y-91712380D02*
X152956666Y-91712380D01*
X152956666Y-91712380D02*
X153289999Y-92093333D01*
X153289999Y-92093333D02*
X153147142Y-92093333D01*
X153147142Y-92093333D02*
X153051904Y-92140952D01*
X153051904Y-92140952D02*
X153004285Y-92188571D01*
X153004285Y-92188571D02*
X152956666Y-92283809D01*
X152956666Y-92283809D02*
X152956666Y-92521904D01*
X152956666Y-92521904D02*
X153004285Y-92617142D01*
X153004285Y-92617142D02*
X153051904Y-92664761D01*
X153051904Y-92664761D02*
X153147142Y-92712380D01*
X153147142Y-92712380D02*
X153432856Y-92712380D01*
X153432856Y-92712380D02*
X153528094Y-92664761D01*
X153528094Y-92664761D02*
X153575713Y-92617142D01*
X151956666Y-92617142D02*
X152004285Y-92664761D01*
X152004285Y-92664761D02*
X152147142Y-92712380D01*
X152147142Y-92712380D02*
X152242380Y-92712380D01*
X152242380Y-92712380D02*
X152385237Y-92664761D01*
X152385237Y-92664761D02*
X152480475Y-92569523D01*
X152480475Y-92569523D02*
X152528094Y-92474285D01*
X152528094Y-92474285D02*
X152575713Y-92283809D01*
X152575713Y-92283809D02*
X152575713Y-92140952D01*
X152575713Y-92140952D02*
X152528094Y-91950476D01*
X152528094Y-91950476D02*
X152480475Y-91855238D01*
X152480475Y-91855238D02*
X152385237Y-91760000D01*
X152385237Y-91760000D02*
X152242380Y-91712380D01*
X152242380Y-91712380D02*
X152147142Y-91712380D01*
X152147142Y-91712380D02*
X152004285Y-91760000D01*
X152004285Y-91760000D02*
X151956666Y-91807619D01*
X151385237Y-92140952D02*
X151480475Y-92093333D01*
X151480475Y-92093333D02*
X151528094Y-92045714D01*
X151528094Y-92045714D02*
X151575713Y-91950476D01*
X151575713Y-91950476D02*
X151575713Y-91902857D01*
X151575713Y-91902857D02*
X151528094Y-91807619D01*
X151528094Y-91807619D02*
X151480475Y-91760000D01*
X151480475Y-91760000D02*
X151385237Y-91712380D01*
X151385237Y-91712380D02*
X151194761Y-91712380D01*
X151194761Y-91712380D02*
X151099523Y-91760000D01*
X151099523Y-91760000D02*
X151051904Y-91807619D01*
X151051904Y-91807619D02*
X151004285Y-91902857D01*
X151004285Y-91902857D02*
X151004285Y-91950476D01*
X151004285Y-91950476D02*
X151051904Y-92045714D01*
X151051904Y-92045714D02*
X151099523Y-92093333D01*
X151099523Y-92093333D02*
X151194761Y-92140952D01*
X151194761Y-92140952D02*
X151385237Y-92140952D01*
X151385237Y-92140952D02*
X151480475Y-92188571D01*
X151480475Y-92188571D02*
X151528094Y-92236190D01*
X151528094Y-92236190D02*
X151575713Y-92331428D01*
X151575713Y-92331428D02*
X151575713Y-92521904D01*
X151575713Y-92521904D02*
X151528094Y-92617142D01*
X151528094Y-92617142D02*
X151480475Y-92664761D01*
X151480475Y-92664761D02*
X151385237Y-92712380D01*
X151385237Y-92712380D02*
X151194761Y-92712380D01*
X151194761Y-92712380D02*
X151099523Y-92664761D01*
X151099523Y-92664761D02*
X151051904Y-92617142D01*
X151051904Y-92617142D02*
X151004285Y-92521904D01*
X151004285Y-92521904D02*
X151004285Y-92331428D01*
X151004285Y-92331428D02*
X151051904Y-92236190D01*
X151051904Y-92236190D02*
X151099523Y-92188571D01*
X151099523Y-92188571D02*
X151194761Y-92140952D01*
X150575713Y-92331428D02*
X149813809Y-92331428D01*
X149004285Y-92188571D02*
X148861428Y-92236190D01*
X148861428Y-92236190D02*
X148813809Y-92283809D01*
X148813809Y-92283809D02*
X148766190Y-92379047D01*
X148766190Y-92379047D02*
X148766190Y-92521904D01*
X148766190Y-92521904D02*
X148813809Y-92617142D01*
X148813809Y-92617142D02*
X148861428Y-92664761D01*
X148861428Y-92664761D02*
X148956666Y-92712380D01*
X148956666Y-92712380D02*
X149337618Y-92712380D01*
X149337618Y-92712380D02*
X149337618Y-91712380D01*
X149337618Y-91712380D02*
X149004285Y-91712380D01*
X149004285Y-91712380D02*
X148909047Y-91760000D01*
X148909047Y-91760000D02*
X148861428Y-91807619D01*
X148861428Y-91807619D02*
X148813809Y-91902857D01*
X148813809Y-91902857D02*
X148813809Y-91998095D01*
X148813809Y-91998095D02*
X148861428Y-92093333D01*
X148861428Y-92093333D02*
X148909047Y-92140952D01*
X148909047Y-92140952D02*
X149004285Y-92188571D01*
X149004285Y-92188571D02*
X149337618Y-92188571D01*
X148337618Y-92712380D02*
X148337618Y-92045714D01*
X148337618Y-92236190D02*
X148289999Y-92140952D01*
X148289999Y-92140952D02*
X148242380Y-92093333D01*
X148242380Y-92093333D02*
X148147142Y-92045714D01*
X148147142Y-92045714D02*
X148051904Y-92045714D01*
X147337618Y-92664761D02*
X147432856Y-92712380D01*
X147432856Y-92712380D02*
X147623332Y-92712380D01*
X147623332Y-92712380D02*
X147718570Y-92664761D01*
X147718570Y-92664761D02*
X147766189Y-92569523D01*
X147766189Y-92569523D02*
X147766189Y-92188571D01*
X147766189Y-92188571D02*
X147718570Y-92093333D01*
X147718570Y-92093333D02*
X147623332Y-92045714D01*
X147623332Y-92045714D02*
X147432856Y-92045714D01*
X147432856Y-92045714D02*
X147337618Y-92093333D01*
X147337618Y-92093333D02*
X147289999Y-92188571D01*
X147289999Y-92188571D02*
X147289999Y-92283809D01*
X147289999Y-92283809D02*
X147766189Y-92379047D01*
X146432856Y-92712380D02*
X146432856Y-92188571D01*
X146432856Y-92188571D02*
X146480475Y-92093333D01*
X146480475Y-92093333D02*
X146575713Y-92045714D01*
X146575713Y-92045714D02*
X146766189Y-92045714D01*
X146766189Y-92045714D02*
X146861427Y-92093333D01*
X146432856Y-92664761D02*
X146528094Y-92712380D01*
X146528094Y-92712380D02*
X146766189Y-92712380D01*
X146766189Y-92712380D02*
X146861427Y-92664761D01*
X146861427Y-92664761D02*
X146909046Y-92569523D01*
X146909046Y-92569523D02*
X146909046Y-92474285D01*
X146909046Y-92474285D02*
X146861427Y-92379047D01*
X146861427Y-92379047D02*
X146766189Y-92331428D01*
X146766189Y-92331428D02*
X146528094Y-92331428D01*
X146528094Y-92331428D02*
X146432856Y-92283809D01*
X145956665Y-92712380D02*
X145956665Y-91712380D01*
X145861427Y-92331428D02*
X145575713Y-92712380D01*
X145575713Y-92045714D02*
X145956665Y-92426666D01*
X144956665Y-91712380D02*
X144766189Y-91712380D01*
X144766189Y-91712380D02*
X144670951Y-91760000D01*
X144670951Y-91760000D02*
X144575713Y-91855238D01*
X144575713Y-91855238D02*
X144528094Y-92045714D01*
X144528094Y-92045714D02*
X144528094Y-92379047D01*
X144528094Y-92379047D02*
X144575713Y-92569523D01*
X144575713Y-92569523D02*
X144670951Y-92664761D01*
X144670951Y-92664761D02*
X144766189Y-92712380D01*
X144766189Y-92712380D02*
X144956665Y-92712380D01*
X144956665Y-92712380D02*
X145051903Y-92664761D01*
X145051903Y-92664761D02*
X145147141Y-92569523D01*
X145147141Y-92569523D02*
X145194760Y-92379047D01*
X145194760Y-92379047D02*
X145194760Y-92045714D01*
X145194760Y-92045714D02*
X145147141Y-91855238D01*
X145147141Y-91855238D02*
X145051903Y-91760000D01*
X145051903Y-91760000D02*
X144956665Y-91712380D01*
X143670951Y-92045714D02*
X143670951Y-92712380D01*
X144099522Y-92045714D02*
X144099522Y-92569523D01*
X144099522Y-92569523D02*
X144051903Y-92664761D01*
X144051903Y-92664761D02*
X143956665Y-92712380D01*
X143956665Y-92712380D02*
X143813808Y-92712380D01*
X143813808Y-92712380D02*
X143718570Y-92664761D01*
X143718570Y-92664761D02*
X143670951Y-92617142D01*
X143337617Y-92045714D02*
X142956665Y-92045714D01*
X143194760Y-91712380D02*
X143194760Y-92569523D01*
X143194760Y-92569523D02*
X143147141Y-92664761D01*
X143147141Y-92664761D02*
X143051903Y-92712380D01*
X143051903Y-92712380D02*
X142956665Y-92712380D01*
X142623331Y-92331428D02*
X141861427Y-92331428D01*
X141051903Y-92188571D02*
X140909046Y-92236190D01*
X140909046Y-92236190D02*
X140861427Y-92283809D01*
X140861427Y-92283809D02*
X140813808Y-92379047D01*
X140813808Y-92379047D02*
X140813808Y-92521904D01*
X140813808Y-92521904D02*
X140861427Y-92617142D01*
X140861427Y-92617142D02*
X140909046Y-92664761D01*
X140909046Y-92664761D02*
X141004284Y-92712380D01*
X141004284Y-92712380D02*
X141385236Y-92712380D01*
X141385236Y-92712380D02*
X141385236Y-91712380D01*
X141385236Y-91712380D02*
X141051903Y-91712380D01*
X141051903Y-91712380D02*
X140956665Y-91760000D01*
X140956665Y-91760000D02*
X140909046Y-91807619D01*
X140909046Y-91807619D02*
X140861427Y-91902857D01*
X140861427Y-91902857D02*
X140861427Y-91998095D01*
X140861427Y-91998095D02*
X140909046Y-92093333D01*
X140909046Y-92093333D02*
X140956665Y-92140952D01*
X140956665Y-92140952D02*
X141051903Y-92188571D01*
X141051903Y-92188571D02*
X141385236Y-92188571D01*
X140242379Y-92712380D02*
X140337617Y-92664761D01*
X140337617Y-92664761D02*
X140385236Y-92617142D01*
X140385236Y-92617142D02*
X140432855Y-92521904D01*
X140432855Y-92521904D02*
X140432855Y-92236190D01*
X140432855Y-92236190D02*
X140385236Y-92140952D01*
X140385236Y-92140952D02*
X140337617Y-92093333D01*
X140337617Y-92093333D02*
X140242379Y-92045714D01*
X140242379Y-92045714D02*
X140099522Y-92045714D01*
X140099522Y-92045714D02*
X140004284Y-92093333D01*
X140004284Y-92093333D02*
X139956665Y-92140952D01*
X139956665Y-92140952D02*
X139909046Y-92236190D01*
X139909046Y-92236190D02*
X139909046Y-92521904D01*
X139909046Y-92521904D02*
X139956665Y-92617142D01*
X139956665Y-92617142D02*
X140004284Y-92664761D01*
X140004284Y-92664761D02*
X140099522Y-92712380D01*
X140099522Y-92712380D02*
X140242379Y-92712380D01*
X139051903Y-92712380D02*
X139051903Y-92188571D01*
X139051903Y-92188571D02*
X139099522Y-92093333D01*
X139099522Y-92093333D02*
X139194760Y-92045714D01*
X139194760Y-92045714D02*
X139385236Y-92045714D01*
X139385236Y-92045714D02*
X139480474Y-92093333D01*
X139051903Y-92664761D02*
X139147141Y-92712380D01*
X139147141Y-92712380D02*
X139385236Y-92712380D01*
X139385236Y-92712380D02*
X139480474Y-92664761D01*
X139480474Y-92664761D02*
X139528093Y-92569523D01*
X139528093Y-92569523D02*
X139528093Y-92474285D01*
X139528093Y-92474285D02*
X139480474Y-92379047D01*
X139480474Y-92379047D02*
X139385236Y-92331428D01*
X139385236Y-92331428D02*
X139147141Y-92331428D01*
X139147141Y-92331428D02*
X139051903Y-92283809D01*
X138575712Y-92712380D02*
X138575712Y-92045714D01*
X138575712Y-92236190D02*
X138528093Y-92140952D01*
X138528093Y-92140952D02*
X138480474Y-92093333D01*
X138480474Y-92093333D02*
X138385236Y-92045714D01*
X138385236Y-92045714D02*
X138289998Y-92045714D01*
X137528093Y-92712380D02*
X137528093Y-91712380D01*
X137528093Y-92664761D02*
X137623331Y-92712380D01*
X137623331Y-92712380D02*
X137813807Y-92712380D01*
X137813807Y-92712380D02*
X137909045Y-92664761D01*
X137909045Y-92664761D02*
X137956664Y-92617142D01*
X137956664Y-92617142D02*
X138004283Y-92521904D01*
X138004283Y-92521904D02*
X138004283Y-92236190D01*
X138004283Y-92236190D02*
X137956664Y-92140952D01*
X137956664Y-92140952D02*
X137909045Y-92093333D01*
X137909045Y-92093333D02*
X137813807Y-92045714D01*
X137813807Y-92045714D02*
X137623331Y-92045714D01*
X137623331Y-92045714D02*
X137528093Y-92093333D01*
X137051902Y-92331428D02*
X136289998Y-92331428D01*
X135813807Y-92712380D02*
X135813807Y-91712380D01*
X135813807Y-91712380D02*
X135432855Y-91712380D01*
X135432855Y-91712380D02*
X135337617Y-91760000D01*
X135337617Y-91760000D02*
X135289998Y-91807619D01*
X135289998Y-91807619D02*
X135242379Y-91902857D01*
X135242379Y-91902857D02*
X135242379Y-92045714D01*
X135242379Y-92045714D02*
X135289998Y-92140952D01*
X135289998Y-92140952D02*
X135337617Y-92188571D01*
X135337617Y-92188571D02*
X135432855Y-92236190D01*
X135432855Y-92236190D02*
X135813807Y-92236190D01*
X134242379Y-92617142D02*
X134289998Y-92664761D01*
X134289998Y-92664761D02*
X134432855Y-92712380D01*
X134432855Y-92712380D02*
X134528093Y-92712380D01*
X134528093Y-92712380D02*
X134670950Y-92664761D01*
X134670950Y-92664761D02*
X134766188Y-92569523D01*
X134766188Y-92569523D02*
X134813807Y-92474285D01*
X134813807Y-92474285D02*
X134861426Y-92283809D01*
X134861426Y-92283809D02*
X134861426Y-92140952D01*
X134861426Y-92140952D02*
X134813807Y-91950476D01*
X134813807Y-91950476D02*
X134766188Y-91855238D01*
X134766188Y-91855238D02*
X134670950Y-91760000D01*
X134670950Y-91760000D02*
X134528093Y-91712380D01*
X134528093Y-91712380D02*
X134432855Y-91712380D01*
X134432855Y-91712380D02*
X134289998Y-91760000D01*
X134289998Y-91760000D02*
X134242379Y-91807619D01*
X133480474Y-92188571D02*
X133337617Y-92236190D01*
X133337617Y-92236190D02*
X133289998Y-92283809D01*
X133289998Y-92283809D02*
X133242379Y-92379047D01*
X133242379Y-92379047D02*
X133242379Y-92521904D01*
X133242379Y-92521904D02*
X133289998Y-92617142D01*
X133289998Y-92617142D02*
X133337617Y-92664761D01*
X133337617Y-92664761D02*
X133432855Y-92712380D01*
X133432855Y-92712380D02*
X133813807Y-92712380D01*
X133813807Y-92712380D02*
X133813807Y-91712380D01*
X133813807Y-91712380D02*
X133480474Y-91712380D01*
X133480474Y-91712380D02*
X133385236Y-91760000D01*
X133385236Y-91760000D02*
X133337617Y-91807619D01*
X133337617Y-91807619D02*
X133289998Y-91902857D01*
X133289998Y-91902857D02*
X133289998Y-91998095D01*
X133289998Y-91998095D02*
X133337617Y-92093333D01*
X133337617Y-92093333D02*
X133385236Y-92140952D01*
X133385236Y-92140952D02*
X133480474Y-92188571D01*
X133480474Y-92188571D02*
X133813807Y-92188571D01*
M02*
