M48
; DRILL file {KiCad (7.0.0)} date Thu Feb 16 03:23:38 2023
; FORMAT={-:-/ absolute / metric / decimal}
; #@! TF.CreationDate,2023-02-16T03:23:38+08:00
; #@! TF.GenerationSoftware,Kicad,Pcbnew,(7.0.0)
; #@! TF.FileFunction,MixedPlating,1,2
FMAT,2
METRIC
; #@! TA.AperFunction,Plated,PTH,ViaDrill
T1C0.400
; #@! TA.AperFunction,Plated,PTH,ComponentDrill
T2C0.550
; #@! TA.AperFunction,Plated,PTH,ComponentDrill
T3C0.850
; #@! TA.AperFunction,Plated,PTH,ComponentDrill
T4C1.000
; #@! TA.AperFunction,NonPlated,NPTH,ComponentDrill
T5C0.800
; #@! TA.AperFunction,NonPlated,NPTH,ComponentDrill
T6C0.900
; #@! TA.AperFunction,NonPlated,NPTH,ComponentDrill
T7C2.200
%
G90
G05
T1
X127.82Y-90.33
X128.53Y-81.06
X128.57Y-103.46
X128.62Y-89.4
X132.66Y-89.53
X134.1Y-88.76
X134.535Y-86.789
X140.71Y-93.78
X142.06Y-90.29
X145.38Y-91.62
X147.68Y-99.72
X149.23Y-90.71
X150.57Y-85.24
X150.59Y-101.234
X150.59Y-104.76
X151.45Y-97.03
X152.54Y-88.94
X152.54Y-89.98
X156.34Y-100.98
X158.25Y-96.77
X160.74Y-89.689
X161.81Y-88.93
T4
X128.66Y-78.55
X128.93Y-109.36
X131.2Y-78.55
X131.47Y-109.36
X133.21Y-82.9
X133.74Y-78.55
X134.01Y-109.36
X135.75Y-82.9
X136.28Y-78.55
X136.55Y-109.36
X138.29Y-82.9
X138.82Y-78.55
X139.09Y-109.36
X140.83Y-82.9
X141.36Y-78.55
X141.63Y-109.36
X143.9Y-78.55
X144.17Y-109.36
X146.44Y-78.55
X146.71Y-109.36
X147.33Y-82.97
X148.98Y-78.55
X149.25Y-109.36
X149.87Y-82.97
X151.52Y-78.55
X151.79Y-109.36
X152.41Y-82.97
X154.06Y-78.55
X154.33Y-109.36
X154.95Y-82.97
X156.6Y-78.55
X156.87Y-109.36
X159.14Y-78.55
X159.41Y-109.36
X161.68Y-78.55
X161.95Y-109.36
X165.12Y-96.62
X165.12Y-99.16
X165.12Y-101.7
X165.12Y-104.24
T5
X165.625Y-86.38
X165.625Y-91.38
T6
X122.985Y-85.7
X122.985Y-88.7
T7
X123.25Y-79.26
X123.25Y-108.69
X167.4Y-79.26
X167.4Y-108.69
T2
G00X168.05Y-85.005
M15
G01X168.7Y-85.005
M16
G05
G00X168.05Y-92.755
M15
G01X168.7Y-92.755
M16
G05
T3
G00X164.3Y-85.155
M15
G01X164.85Y-85.155
M16
G05
G00X164.3Y-92.605
M15
G01X164.85Y-92.605
M16
G05
T0
M30
