%TF.GenerationSoftware,KiCad,Pcbnew,(7.0.0)*%
%TF.CreationDate,2023-02-16T03:23:41+08:00*%
%TF.ProjectId,STM32F103C8T6_BreakOut_Board,53544d33-3246-4313-9033-433854365f42,rev?*%
%TF.SameCoordinates,Original*%
%TF.FileFunction,Legend,Top*%
%TF.FilePolarity,Positive*%
%FSLAX46Y46*%
G04 Gerber Fmt 4.6, Leading zero omitted, Abs format (unit mm)*
G04 Created by KiCad (PCBNEW (7.0.0)) date 2023-02-16 03:23:41*
%MOMM*%
%LPD*%
G01*
G04 APERTURE LIST*
%ADD10C,0.100000*%
%ADD11C,0.080000*%
%ADD12C,0.200000*%
%ADD13C,0.125000*%
%ADD14C,0.150000*%
%ADD15C,0.120000*%
G04 APERTURE END LIST*
D10*
X140925807Y-112101235D02*
X140925807Y-111301235D01*
X140925807Y-111301235D02*
X141230569Y-111301235D01*
X141230569Y-111301235D02*
X141306759Y-111339331D01*
X141306759Y-111339331D02*
X141344854Y-111377426D01*
X141344854Y-111377426D02*
X141382950Y-111453616D01*
X141382950Y-111453616D02*
X141382950Y-111567902D01*
X141382950Y-111567902D02*
X141344854Y-111644092D01*
X141344854Y-111644092D02*
X141306759Y-111682188D01*
X141306759Y-111682188D02*
X141230569Y-111720283D01*
X141230569Y-111720283D02*
X140925807Y-111720283D01*
X141687711Y-111872664D02*
X142068664Y-111872664D01*
X141611521Y-112101235D02*
X141878188Y-111301235D01*
X141878188Y-111301235D02*
X142144854Y-112101235D01*
X142335330Y-111301235D02*
X142830568Y-111301235D01*
X142830568Y-111301235D02*
X142563902Y-111605997D01*
X142563902Y-111605997D02*
X142678187Y-111605997D01*
X142678187Y-111605997D02*
X142754378Y-111644092D01*
X142754378Y-111644092D02*
X142792473Y-111682188D01*
X142792473Y-111682188D02*
X142830568Y-111758378D01*
X142830568Y-111758378D02*
X142830568Y-111948854D01*
X142830568Y-111948854D02*
X142792473Y-112025045D01*
X142792473Y-112025045D02*
X142754378Y-112063140D01*
X142754378Y-112063140D02*
X142678187Y-112101235D01*
X142678187Y-112101235D02*
X142449616Y-112101235D01*
X142449616Y-112101235D02*
X142373425Y-112063140D01*
X142373425Y-112063140D02*
X142335330Y-112025045D01*
X137815807Y-76511235D02*
X137815807Y-75711235D01*
X137815807Y-75711235D02*
X138120569Y-75711235D01*
X138120569Y-75711235D02*
X138196759Y-75749331D01*
X138196759Y-75749331D02*
X138234854Y-75787426D01*
X138234854Y-75787426D02*
X138272950Y-75863616D01*
X138272950Y-75863616D02*
X138272950Y-75977902D01*
X138272950Y-75977902D02*
X138234854Y-76054092D01*
X138234854Y-76054092D02*
X138196759Y-76092188D01*
X138196759Y-76092188D02*
X138120569Y-76130283D01*
X138120569Y-76130283D02*
X137815807Y-76130283D01*
X138882473Y-76092188D02*
X138996759Y-76130283D01*
X138996759Y-76130283D02*
X139034854Y-76168378D01*
X139034854Y-76168378D02*
X139072950Y-76244569D01*
X139072950Y-76244569D02*
X139072950Y-76358854D01*
X139072950Y-76358854D02*
X139034854Y-76435045D01*
X139034854Y-76435045D02*
X138996759Y-76473140D01*
X138996759Y-76473140D02*
X138920569Y-76511235D01*
X138920569Y-76511235D02*
X138615807Y-76511235D01*
X138615807Y-76511235D02*
X138615807Y-75711235D01*
X138615807Y-75711235D02*
X138882473Y-75711235D01*
X138882473Y-75711235D02*
X138958664Y-75749331D01*
X138958664Y-75749331D02*
X138996759Y-75787426D01*
X138996759Y-75787426D02*
X139034854Y-75863616D01*
X139034854Y-75863616D02*
X139034854Y-75939807D01*
X139034854Y-75939807D02*
X138996759Y-76015997D01*
X138996759Y-76015997D02*
X138958664Y-76054092D01*
X138958664Y-76054092D02*
X138882473Y-76092188D01*
X138882473Y-76092188D02*
X138615807Y-76092188D01*
X139758664Y-75977902D02*
X139758664Y-76511235D01*
X139568188Y-75673140D02*
X139377711Y-76244569D01*
X139377711Y-76244569D02*
X139872950Y-76244569D01*
X151595807Y-81181235D02*
X151595807Y-80381235D01*
X151595807Y-80381235D02*
X151786283Y-80381235D01*
X151786283Y-80381235D02*
X151900569Y-80419331D01*
X151900569Y-80419331D02*
X151976759Y-80495521D01*
X151976759Y-80495521D02*
X152014854Y-80571711D01*
X152014854Y-80571711D02*
X152052950Y-80724092D01*
X152052950Y-80724092D02*
X152052950Y-80838378D01*
X152052950Y-80838378D02*
X152014854Y-80990759D01*
X152014854Y-80990759D02*
X151976759Y-81066950D01*
X151976759Y-81066950D02*
X151900569Y-81143140D01*
X151900569Y-81143140D02*
X151786283Y-81181235D01*
X151786283Y-81181235D02*
X151595807Y-81181235D01*
X152395807Y-81181235D02*
X152395807Y-80381235D01*
X152929140Y-80381235D02*
X153081521Y-80381235D01*
X153081521Y-80381235D02*
X153157711Y-80419331D01*
X153157711Y-80419331D02*
X153233902Y-80495521D01*
X153233902Y-80495521D02*
X153271997Y-80647902D01*
X153271997Y-80647902D02*
X153271997Y-80914569D01*
X153271997Y-80914569D02*
X153233902Y-81066950D01*
X153233902Y-81066950D02*
X153157711Y-81143140D01*
X153157711Y-81143140D02*
X153081521Y-81181235D01*
X153081521Y-81181235D02*
X152929140Y-81181235D01*
X152929140Y-81181235D02*
X152852949Y-81143140D01*
X152852949Y-81143140D02*
X152776759Y-81066950D01*
X152776759Y-81066950D02*
X152738663Y-80914569D01*
X152738663Y-80914569D02*
X152738663Y-80647902D01*
X152738663Y-80647902D02*
X152776759Y-80495521D01*
X152776759Y-80495521D02*
X152852949Y-80419331D01*
X152852949Y-80419331D02*
X152929140Y-80381235D01*
X150925807Y-76471235D02*
X150925807Y-75671235D01*
X150925807Y-75671235D02*
X151230569Y-75671235D01*
X151230569Y-75671235D02*
X151306759Y-75709331D01*
X151306759Y-75709331D02*
X151344854Y-75747426D01*
X151344854Y-75747426D02*
X151382950Y-75823616D01*
X151382950Y-75823616D02*
X151382950Y-75937902D01*
X151382950Y-75937902D02*
X151344854Y-76014092D01*
X151344854Y-76014092D02*
X151306759Y-76052188D01*
X151306759Y-76052188D02*
X151230569Y-76090283D01*
X151230569Y-76090283D02*
X150925807Y-76090283D01*
X151687711Y-76242664D02*
X152068664Y-76242664D01*
X151611521Y-76471235D02*
X151878188Y-75671235D01*
X151878188Y-75671235D02*
X152144854Y-76471235D01*
X152525806Y-76014092D02*
X152449616Y-75975997D01*
X152449616Y-75975997D02*
X152411521Y-75937902D01*
X152411521Y-75937902D02*
X152373425Y-75861711D01*
X152373425Y-75861711D02*
X152373425Y-75823616D01*
X152373425Y-75823616D02*
X152411521Y-75747426D01*
X152411521Y-75747426D02*
X152449616Y-75709331D01*
X152449616Y-75709331D02*
X152525806Y-75671235D01*
X152525806Y-75671235D02*
X152678187Y-75671235D01*
X152678187Y-75671235D02*
X152754378Y-75709331D01*
X152754378Y-75709331D02*
X152792473Y-75747426D01*
X152792473Y-75747426D02*
X152830568Y-75823616D01*
X152830568Y-75823616D02*
X152830568Y-75861711D01*
X152830568Y-75861711D02*
X152792473Y-75937902D01*
X152792473Y-75937902D02*
X152754378Y-75975997D01*
X152754378Y-75975997D02*
X152678187Y-76014092D01*
X152678187Y-76014092D02*
X152525806Y-76014092D01*
X152525806Y-76014092D02*
X152449616Y-76052188D01*
X152449616Y-76052188D02*
X152411521Y-76090283D01*
X152411521Y-76090283D02*
X152373425Y-76166473D01*
X152373425Y-76166473D02*
X152373425Y-76318854D01*
X152373425Y-76318854D02*
X152411521Y-76395045D01*
X152411521Y-76395045D02*
X152449616Y-76433140D01*
X152449616Y-76433140D02*
X152525806Y-76471235D01*
X152525806Y-76471235D02*
X152678187Y-76471235D01*
X152678187Y-76471235D02*
X152754378Y-76433140D01*
X152754378Y-76433140D02*
X152792473Y-76395045D01*
X152792473Y-76395045D02*
X152830568Y-76318854D01*
X152830568Y-76318854D02*
X152830568Y-76166473D01*
X152830568Y-76166473D02*
X152792473Y-76090283D01*
X152792473Y-76090283D02*
X152754378Y-76052188D01*
X152754378Y-76052188D02*
X152678187Y-76014092D01*
X129705807Y-76541235D02*
X129705807Y-75741235D01*
X129705807Y-75741235D02*
X130010569Y-75741235D01*
X130010569Y-75741235D02*
X130086759Y-75779331D01*
X130086759Y-75779331D02*
X130124854Y-75817426D01*
X130124854Y-75817426D02*
X130162950Y-75893616D01*
X130162950Y-75893616D02*
X130162950Y-76007902D01*
X130162950Y-76007902D02*
X130124854Y-76084092D01*
X130124854Y-76084092D02*
X130086759Y-76122188D01*
X130086759Y-76122188D02*
X130010569Y-76160283D01*
X130010569Y-76160283D02*
X129705807Y-76160283D01*
X130772473Y-76122188D02*
X130886759Y-76160283D01*
X130886759Y-76160283D02*
X130924854Y-76198378D01*
X130924854Y-76198378D02*
X130962950Y-76274569D01*
X130962950Y-76274569D02*
X130962950Y-76388854D01*
X130962950Y-76388854D02*
X130924854Y-76465045D01*
X130924854Y-76465045D02*
X130886759Y-76503140D01*
X130886759Y-76503140D02*
X130810569Y-76541235D01*
X130810569Y-76541235D02*
X130505807Y-76541235D01*
X130505807Y-76541235D02*
X130505807Y-75741235D01*
X130505807Y-75741235D02*
X130772473Y-75741235D01*
X130772473Y-75741235D02*
X130848664Y-75779331D01*
X130848664Y-75779331D02*
X130886759Y-75817426D01*
X130886759Y-75817426D02*
X130924854Y-75893616D01*
X130924854Y-75893616D02*
X130924854Y-75969807D01*
X130924854Y-75969807D02*
X130886759Y-76045997D01*
X130886759Y-76045997D02*
X130848664Y-76084092D01*
X130848664Y-76084092D02*
X130772473Y-76122188D01*
X130772473Y-76122188D02*
X130505807Y-76122188D01*
X131343902Y-76541235D02*
X131496283Y-76541235D01*
X131496283Y-76541235D02*
X131572473Y-76503140D01*
X131572473Y-76503140D02*
X131610569Y-76465045D01*
X131610569Y-76465045D02*
X131686759Y-76350759D01*
X131686759Y-76350759D02*
X131724854Y-76198378D01*
X131724854Y-76198378D02*
X131724854Y-75893616D01*
X131724854Y-75893616D02*
X131686759Y-75817426D01*
X131686759Y-75817426D02*
X131648664Y-75779331D01*
X131648664Y-75779331D02*
X131572473Y-75741235D01*
X131572473Y-75741235D02*
X131420092Y-75741235D01*
X131420092Y-75741235D02*
X131343902Y-75779331D01*
X131343902Y-75779331D02*
X131305807Y-75817426D01*
X131305807Y-75817426D02*
X131267711Y-75893616D01*
X131267711Y-75893616D02*
X131267711Y-76084092D01*
X131267711Y-76084092D02*
X131305807Y-76160283D01*
X131305807Y-76160283D02*
X131343902Y-76198378D01*
X131343902Y-76198378D02*
X131420092Y-76236473D01*
X131420092Y-76236473D02*
X131572473Y-76236473D01*
X131572473Y-76236473D02*
X131648664Y-76198378D01*
X131648664Y-76198378D02*
X131686759Y-76160283D01*
X131686759Y-76160283D02*
X131724854Y-76084092D01*
X143425807Y-112101235D02*
X143425807Y-111301235D01*
X143425807Y-111301235D02*
X143730569Y-111301235D01*
X143730569Y-111301235D02*
X143806759Y-111339331D01*
X143806759Y-111339331D02*
X143844854Y-111377426D01*
X143844854Y-111377426D02*
X143882950Y-111453616D01*
X143882950Y-111453616D02*
X143882950Y-111567902D01*
X143882950Y-111567902D02*
X143844854Y-111644092D01*
X143844854Y-111644092D02*
X143806759Y-111682188D01*
X143806759Y-111682188D02*
X143730569Y-111720283D01*
X143730569Y-111720283D02*
X143425807Y-111720283D01*
X144187711Y-111872664D02*
X144568664Y-111872664D01*
X144111521Y-112101235D02*
X144378188Y-111301235D01*
X144378188Y-111301235D02*
X144644854Y-112101235D01*
X145254378Y-111567902D02*
X145254378Y-112101235D01*
X145063902Y-111263140D02*
X144873425Y-111834569D01*
X144873425Y-111834569D02*
X145368664Y-111834569D01*
X135065807Y-76481235D02*
X135065807Y-75681235D01*
X135065807Y-75681235D02*
X135370569Y-75681235D01*
X135370569Y-75681235D02*
X135446759Y-75719331D01*
X135446759Y-75719331D02*
X135484854Y-75757426D01*
X135484854Y-75757426D02*
X135522950Y-75833616D01*
X135522950Y-75833616D02*
X135522950Y-75947902D01*
X135522950Y-75947902D02*
X135484854Y-76024092D01*
X135484854Y-76024092D02*
X135446759Y-76062188D01*
X135446759Y-76062188D02*
X135370569Y-76100283D01*
X135370569Y-76100283D02*
X135065807Y-76100283D01*
X136132473Y-76062188D02*
X136246759Y-76100283D01*
X136246759Y-76100283D02*
X136284854Y-76138378D01*
X136284854Y-76138378D02*
X136322950Y-76214569D01*
X136322950Y-76214569D02*
X136322950Y-76328854D01*
X136322950Y-76328854D02*
X136284854Y-76405045D01*
X136284854Y-76405045D02*
X136246759Y-76443140D01*
X136246759Y-76443140D02*
X136170569Y-76481235D01*
X136170569Y-76481235D02*
X135865807Y-76481235D01*
X135865807Y-76481235D02*
X135865807Y-75681235D01*
X135865807Y-75681235D02*
X136132473Y-75681235D01*
X136132473Y-75681235D02*
X136208664Y-75719331D01*
X136208664Y-75719331D02*
X136246759Y-75757426D01*
X136246759Y-75757426D02*
X136284854Y-75833616D01*
X136284854Y-75833616D02*
X136284854Y-75909807D01*
X136284854Y-75909807D02*
X136246759Y-75985997D01*
X136246759Y-75985997D02*
X136208664Y-76024092D01*
X136208664Y-76024092D02*
X136132473Y-76062188D01*
X136132473Y-76062188D02*
X135865807Y-76062188D01*
X137046759Y-75681235D02*
X136665807Y-75681235D01*
X136665807Y-75681235D02*
X136627711Y-76062188D01*
X136627711Y-76062188D02*
X136665807Y-76024092D01*
X136665807Y-76024092D02*
X136741997Y-75985997D01*
X136741997Y-75985997D02*
X136932473Y-75985997D01*
X136932473Y-75985997D02*
X137008664Y-76024092D01*
X137008664Y-76024092D02*
X137046759Y-76062188D01*
X137046759Y-76062188D02*
X137084854Y-76138378D01*
X137084854Y-76138378D02*
X137084854Y-76328854D01*
X137084854Y-76328854D02*
X137046759Y-76405045D01*
X137046759Y-76405045D02*
X137008664Y-76443140D01*
X137008664Y-76443140D02*
X136932473Y-76481235D01*
X136932473Y-76481235D02*
X136741997Y-76481235D01*
X136741997Y-76481235D02*
X136665807Y-76443140D01*
X136665807Y-76443140D02*
X136627711Y-76405045D01*
D11*
X135702950Y-81241235D02*
X135436283Y-80860283D01*
X135245807Y-81241235D02*
X135245807Y-80441235D01*
X135245807Y-80441235D02*
X135550569Y-80441235D01*
X135550569Y-80441235D02*
X135626759Y-80479331D01*
X135626759Y-80479331D02*
X135664854Y-80517426D01*
X135664854Y-80517426D02*
X135702950Y-80593616D01*
X135702950Y-80593616D02*
X135702950Y-80707902D01*
X135702950Y-80707902D02*
X135664854Y-80784092D01*
X135664854Y-80784092D02*
X135626759Y-80822188D01*
X135626759Y-80822188D02*
X135550569Y-80860283D01*
X135550569Y-80860283D02*
X135245807Y-80860283D01*
X135969616Y-80441235D02*
X136502950Y-81241235D01*
X136502950Y-80441235D02*
X135969616Y-81241235D01*
D10*
X161215807Y-112091235D02*
X161215807Y-111291235D01*
X161215807Y-111291235D02*
X161520569Y-111291235D01*
X161520569Y-111291235D02*
X161596759Y-111329331D01*
X161596759Y-111329331D02*
X161634854Y-111367426D01*
X161634854Y-111367426D02*
X161672950Y-111443616D01*
X161672950Y-111443616D02*
X161672950Y-111557902D01*
X161672950Y-111557902D02*
X161634854Y-111634092D01*
X161634854Y-111634092D02*
X161596759Y-111672188D01*
X161596759Y-111672188D02*
X161520569Y-111710283D01*
X161520569Y-111710283D02*
X161215807Y-111710283D01*
X162282473Y-111672188D02*
X162396759Y-111710283D01*
X162396759Y-111710283D02*
X162434854Y-111748378D01*
X162434854Y-111748378D02*
X162472950Y-111824569D01*
X162472950Y-111824569D02*
X162472950Y-111938854D01*
X162472950Y-111938854D02*
X162434854Y-112015045D01*
X162434854Y-112015045D02*
X162396759Y-112053140D01*
X162396759Y-112053140D02*
X162320569Y-112091235D01*
X162320569Y-112091235D02*
X162015807Y-112091235D01*
X162015807Y-112091235D02*
X162015807Y-111291235D01*
X162015807Y-111291235D02*
X162282473Y-111291235D01*
X162282473Y-111291235D02*
X162358664Y-111329331D01*
X162358664Y-111329331D02*
X162396759Y-111367426D01*
X162396759Y-111367426D02*
X162434854Y-111443616D01*
X162434854Y-111443616D02*
X162434854Y-111519807D01*
X162434854Y-111519807D02*
X162396759Y-111595997D01*
X162396759Y-111595997D02*
X162358664Y-111634092D01*
X162358664Y-111634092D02*
X162282473Y-111672188D01*
X162282473Y-111672188D02*
X162015807Y-111672188D01*
X163234854Y-112091235D02*
X162777711Y-112091235D01*
X163006283Y-112091235D02*
X163006283Y-111291235D01*
X163006283Y-111291235D02*
X162930092Y-111405521D01*
X162930092Y-111405521D02*
X162853902Y-111481711D01*
X162853902Y-111481711D02*
X162777711Y-111519807D01*
X163539616Y-111367426D02*
X163577712Y-111329331D01*
X163577712Y-111329331D02*
X163653902Y-111291235D01*
X163653902Y-111291235D02*
X163844378Y-111291235D01*
X163844378Y-111291235D02*
X163920569Y-111329331D01*
X163920569Y-111329331D02*
X163958664Y-111367426D01*
X163958664Y-111367426D02*
X163996759Y-111443616D01*
X163996759Y-111443616D02*
X163996759Y-111519807D01*
X163996759Y-111519807D02*
X163958664Y-111634092D01*
X163958664Y-111634092D02*
X163501521Y-112091235D01*
X163501521Y-112091235D02*
X163996759Y-112091235D01*
X135875807Y-112101235D02*
X135875807Y-111301235D01*
X135875807Y-111301235D02*
X136180569Y-111301235D01*
X136180569Y-111301235D02*
X136256759Y-111339331D01*
X136256759Y-111339331D02*
X136294854Y-111377426D01*
X136294854Y-111377426D02*
X136332950Y-111453616D01*
X136332950Y-111453616D02*
X136332950Y-111567902D01*
X136332950Y-111567902D02*
X136294854Y-111644092D01*
X136294854Y-111644092D02*
X136256759Y-111682188D01*
X136256759Y-111682188D02*
X136180569Y-111720283D01*
X136180569Y-111720283D02*
X135875807Y-111720283D01*
X136637711Y-111872664D02*
X137018664Y-111872664D01*
X136561521Y-112101235D02*
X136828188Y-111301235D01*
X136828188Y-111301235D02*
X137094854Y-112101235D01*
X137780568Y-112101235D02*
X137323425Y-112101235D01*
X137551997Y-112101235D02*
X137551997Y-111301235D01*
X137551997Y-111301235D02*
X137475806Y-111415521D01*
X137475806Y-111415521D02*
X137399616Y-111491711D01*
X137399616Y-111491711D02*
X137323425Y-111529807D01*
X158705807Y-112091235D02*
X158705807Y-111291235D01*
X158705807Y-111291235D02*
X159010569Y-111291235D01*
X159010569Y-111291235D02*
X159086759Y-111329331D01*
X159086759Y-111329331D02*
X159124854Y-111367426D01*
X159124854Y-111367426D02*
X159162950Y-111443616D01*
X159162950Y-111443616D02*
X159162950Y-111557902D01*
X159162950Y-111557902D02*
X159124854Y-111634092D01*
X159124854Y-111634092D02*
X159086759Y-111672188D01*
X159086759Y-111672188D02*
X159010569Y-111710283D01*
X159010569Y-111710283D02*
X158705807Y-111710283D01*
X159772473Y-111672188D02*
X159886759Y-111710283D01*
X159886759Y-111710283D02*
X159924854Y-111748378D01*
X159924854Y-111748378D02*
X159962950Y-111824569D01*
X159962950Y-111824569D02*
X159962950Y-111938854D01*
X159962950Y-111938854D02*
X159924854Y-112015045D01*
X159924854Y-112015045D02*
X159886759Y-112053140D01*
X159886759Y-112053140D02*
X159810569Y-112091235D01*
X159810569Y-112091235D02*
X159505807Y-112091235D01*
X159505807Y-112091235D02*
X159505807Y-111291235D01*
X159505807Y-111291235D02*
X159772473Y-111291235D01*
X159772473Y-111291235D02*
X159848664Y-111329331D01*
X159848664Y-111329331D02*
X159886759Y-111367426D01*
X159886759Y-111367426D02*
X159924854Y-111443616D01*
X159924854Y-111443616D02*
X159924854Y-111519807D01*
X159924854Y-111519807D02*
X159886759Y-111595997D01*
X159886759Y-111595997D02*
X159848664Y-111634092D01*
X159848664Y-111634092D02*
X159772473Y-111672188D01*
X159772473Y-111672188D02*
X159505807Y-111672188D01*
X160267711Y-111367426D02*
X160305807Y-111329331D01*
X160305807Y-111329331D02*
X160381997Y-111291235D01*
X160381997Y-111291235D02*
X160572473Y-111291235D01*
X160572473Y-111291235D02*
X160648664Y-111329331D01*
X160648664Y-111329331D02*
X160686759Y-111367426D01*
X160686759Y-111367426D02*
X160724854Y-111443616D01*
X160724854Y-111443616D02*
X160724854Y-111519807D01*
X160724854Y-111519807D02*
X160686759Y-111634092D01*
X160686759Y-111634092D02*
X160229616Y-112091235D01*
X160229616Y-112091235D02*
X160724854Y-112091235D01*
X167327711Y-101933140D02*
X167441997Y-101971235D01*
X167441997Y-101971235D02*
X167632473Y-101971235D01*
X167632473Y-101971235D02*
X167708664Y-101933140D01*
X167708664Y-101933140D02*
X167746759Y-101895045D01*
X167746759Y-101895045D02*
X167784854Y-101818854D01*
X167784854Y-101818854D02*
X167784854Y-101742664D01*
X167784854Y-101742664D02*
X167746759Y-101666473D01*
X167746759Y-101666473D02*
X167708664Y-101628378D01*
X167708664Y-101628378D02*
X167632473Y-101590283D01*
X167632473Y-101590283D02*
X167480092Y-101552188D01*
X167480092Y-101552188D02*
X167403902Y-101514092D01*
X167403902Y-101514092D02*
X167365807Y-101475997D01*
X167365807Y-101475997D02*
X167327711Y-101399807D01*
X167327711Y-101399807D02*
X167327711Y-101323616D01*
X167327711Y-101323616D02*
X167365807Y-101247426D01*
X167365807Y-101247426D02*
X167403902Y-101209331D01*
X167403902Y-101209331D02*
X167480092Y-101171235D01*
X167480092Y-101171235D02*
X167670569Y-101171235D01*
X167670569Y-101171235D02*
X167784854Y-101209331D01*
X168584855Y-101895045D02*
X168546759Y-101933140D01*
X168546759Y-101933140D02*
X168432474Y-101971235D01*
X168432474Y-101971235D02*
X168356283Y-101971235D01*
X168356283Y-101971235D02*
X168241997Y-101933140D01*
X168241997Y-101933140D02*
X168165807Y-101856950D01*
X168165807Y-101856950D02*
X168127712Y-101780759D01*
X168127712Y-101780759D02*
X168089616Y-101628378D01*
X168089616Y-101628378D02*
X168089616Y-101514092D01*
X168089616Y-101514092D02*
X168127712Y-101361711D01*
X168127712Y-101361711D02*
X168165807Y-101285521D01*
X168165807Y-101285521D02*
X168241997Y-101209331D01*
X168241997Y-101209331D02*
X168356283Y-101171235D01*
X168356283Y-101171235D02*
X168432474Y-101171235D01*
X168432474Y-101171235D02*
X168546759Y-101209331D01*
X168546759Y-101209331D02*
X168584855Y-101247426D01*
X169308664Y-101971235D02*
X168927712Y-101971235D01*
X168927712Y-101971235D02*
X168927712Y-101171235D01*
X138415807Y-112101235D02*
X138415807Y-111301235D01*
X138415807Y-111301235D02*
X138720569Y-111301235D01*
X138720569Y-111301235D02*
X138796759Y-111339331D01*
X138796759Y-111339331D02*
X138834854Y-111377426D01*
X138834854Y-111377426D02*
X138872950Y-111453616D01*
X138872950Y-111453616D02*
X138872950Y-111567902D01*
X138872950Y-111567902D02*
X138834854Y-111644092D01*
X138834854Y-111644092D02*
X138796759Y-111682188D01*
X138796759Y-111682188D02*
X138720569Y-111720283D01*
X138720569Y-111720283D02*
X138415807Y-111720283D01*
X139177711Y-111872664D02*
X139558664Y-111872664D01*
X139101521Y-112101235D02*
X139368188Y-111301235D01*
X139368188Y-111301235D02*
X139634854Y-112101235D01*
X139863425Y-111377426D02*
X139901521Y-111339331D01*
X139901521Y-111339331D02*
X139977711Y-111301235D01*
X139977711Y-111301235D02*
X140168187Y-111301235D01*
X140168187Y-111301235D02*
X140244378Y-111339331D01*
X140244378Y-111339331D02*
X140282473Y-111377426D01*
X140282473Y-111377426D02*
X140320568Y-111453616D01*
X140320568Y-111453616D02*
X140320568Y-111529807D01*
X140320568Y-111529807D02*
X140282473Y-111644092D01*
X140282473Y-111644092D02*
X139825330Y-112101235D01*
X139825330Y-112101235D02*
X140320568Y-112101235D01*
X127005807Y-112151235D02*
X127005807Y-111351235D01*
X127005807Y-111351235D02*
X127310569Y-111351235D01*
X127310569Y-111351235D02*
X127386759Y-111389331D01*
X127386759Y-111389331D02*
X127424854Y-111427426D01*
X127424854Y-111427426D02*
X127462950Y-111503616D01*
X127462950Y-111503616D02*
X127462950Y-111617902D01*
X127462950Y-111617902D02*
X127424854Y-111694092D01*
X127424854Y-111694092D02*
X127386759Y-111732188D01*
X127386759Y-111732188D02*
X127310569Y-111770283D01*
X127310569Y-111770283D02*
X127005807Y-111770283D01*
X128262950Y-112075045D02*
X128224854Y-112113140D01*
X128224854Y-112113140D02*
X128110569Y-112151235D01*
X128110569Y-112151235D02*
X128034378Y-112151235D01*
X128034378Y-112151235D02*
X127920092Y-112113140D01*
X127920092Y-112113140D02*
X127843902Y-112036950D01*
X127843902Y-112036950D02*
X127805807Y-111960759D01*
X127805807Y-111960759D02*
X127767711Y-111808378D01*
X127767711Y-111808378D02*
X127767711Y-111694092D01*
X127767711Y-111694092D02*
X127805807Y-111541711D01*
X127805807Y-111541711D02*
X127843902Y-111465521D01*
X127843902Y-111465521D02*
X127920092Y-111389331D01*
X127920092Y-111389331D02*
X128034378Y-111351235D01*
X128034378Y-111351235D02*
X128110569Y-111351235D01*
X128110569Y-111351235D02*
X128224854Y-111389331D01*
X128224854Y-111389331D02*
X128262950Y-111427426D01*
X129024854Y-112151235D02*
X128567711Y-112151235D01*
X128796283Y-112151235D02*
X128796283Y-111351235D01*
X128796283Y-111351235D02*
X128720092Y-111465521D01*
X128720092Y-111465521D02*
X128643902Y-111541711D01*
X128643902Y-111541711D02*
X128567711Y-111579807D01*
X129710569Y-111617902D02*
X129710569Y-112151235D01*
X129520093Y-111313140D02*
X129329616Y-111884569D01*
X129329616Y-111884569D02*
X129824855Y-111884569D01*
D11*
X132728664Y-80437902D02*
X132728664Y-81085521D01*
X132728664Y-81085521D02*
X132690569Y-81161711D01*
X132690569Y-81161711D02*
X132652473Y-81199807D01*
X132652473Y-81199807D02*
X132576283Y-81237902D01*
X132576283Y-81237902D02*
X132461997Y-81237902D01*
X132461997Y-81237902D02*
X132385807Y-81199807D01*
X132728664Y-80933140D02*
X132652473Y-80971235D01*
X132652473Y-80971235D02*
X132500092Y-80971235D01*
X132500092Y-80971235D02*
X132423902Y-80933140D01*
X132423902Y-80933140D02*
X132385807Y-80895045D01*
X132385807Y-80895045D02*
X132347711Y-80818854D01*
X132347711Y-80818854D02*
X132347711Y-80590283D01*
X132347711Y-80590283D02*
X132385807Y-80514092D01*
X132385807Y-80514092D02*
X132423902Y-80475997D01*
X132423902Y-80475997D02*
X132500092Y-80437902D01*
X132500092Y-80437902D02*
X132652473Y-80437902D01*
X132652473Y-80437902D02*
X132728664Y-80475997D01*
X133109617Y-80437902D02*
X133109617Y-80971235D01*
X133109617Y-80514092D02*
X133147712Y-80475997D01*
X133147712Y-80475997D02*
X133223902Y-80437902D01*
X133223902Y-80437902D02*
X133338188Y-80437902D01*
X133338188Y-80437902D02*
X133414379Y-80475997D01*
X133414379Y-80475997D02*
X133452474Y-80552188D01*
X133452474Y-80552188D02*
X133452474Y-80971235D01*
X134176284Y-80971235D02*
X134176284Y-80171235D01*
X134176284Y-80933140D02*
X134100093Y-80971235D01*
X134100093Y-80971235D02*
X133947712Y-80971235D01*
X133947712Y-80971235D02*
X133871522Y-80933140D01*
X133871522Y-80933140D02*
X133833427Y-80895045D01*
X133833427Y-80895045D02*
X133795331Y-80818854D01*
X133795331Y-80818854D02*
X133795331Y-80590283D01*
X133795331Y-80590283D02*
X133833427Y-80514092D01*
X133833427Y-80514092D02*
X133871522Y-80475997D01*
X133871522Y-80475997D02*
X133947712Y-80437902D01*
X133947712Y-80437902D02*
X134100093Y-80437902D01*
X134100093Y-80437902D02*
X134176284Y-80475997D01*
D12*
X122101045Y-92825616D02*
X122272473Y-92882759D01*
X122272473Y-92882759D02*
X122329616Y-92939902D01*
X122329616Y-92939902D02*
X122386759Y-93054188D01*
X122386759Y-93054188D02*
X122386759Y-93225616D01*
X122386759Y-93225616D02*
X122329616Y-93339902D01*
X122329616Y-93339902D02*
X122272473Y-93397045D01*
X122272473Y-93397045D02*
X122158188Y-93454188D01*
X122158188Y-93454188D02*
X121701045Y-93454188D01*
X121701045Y-93454188D02*
X121701045Y-92254188D01*
X121701045Y-92254188D02*
X122101045Y-92254188D01*
X122101045Y-92254188D02*
X122215331Y-92311331D01*
X122215331Y-92311331D02*
X122272473Y-92368473D01*
X122272473Y-92368473D02*
X122329616Y-92482759D01*
X122329616Y-92482759D02*
X122329616Y-92597045D01*
X122329616Y-92597045D02*
X122272473Y-92711331D01*
X122272473Y-92711331D02*
X122215331Y-92768473D01*
X122215331Y-92768473D02*
X122101045Y-92825616D01*
X122101045Y-92825616D02*
X121701045Y-92825616D01*
X123072473Y-93454188D02*
X122958188Y-93397045D01*
X122958188Y-93397045D02*
X122901045Y-93339902D01*
X122901045Y-93339902D02*
X122843902Y-93225616D01*
X122843902Y-93225616D02*
X122843902Y-92882759D01*
X122843902Y-92882759D02*
X122901045Y-92768473D01*
X122901045Y-92768473D02*
X122958188Y-92711331D01*
X122958188Y-92711331D02*
X123072473Y-92654188D01*
X123072473Y-92654188D02*
X123243902Y-92654188D01*
X123243902Y-92654188D02*
X123358188Y-92711331D01*
X123358188Y-92711331D02*
X123415331Y-92768473D01*
X123415331Y-92768473D02*
X123472473Y-92882759D01*
X123472473Y-92882759D02*
X123472473Y-93225616D01*
X123472473Y-93225616D02*
X123415331Y-93339902D01*
X123415331Y-93339902D02*
X123358188Y-93397045D01*
X123358188Y-93397045D02*
X123243902Y-93454188D01*
X123243902Y-93454188D02*
X123072473Y-93454188D01*
X124158187Y-93454188D02*
X124043902Y-93397045D01*
X124043902Y-93397045D02*
X123986759Y-93339902D01*
X123986759Y-93339902D02*
X123929616Y-93225616D01*
X123929616Y-93225616D02*
X123929616Y-92882759D01*
X123929616Y-92882759D02*
X123986759Y-92768473D01*
X123986759Y-92768473D02*
X124043902Y-92711331D01*
X124043902Y-92711331D02*
X124158187Y-92654188D01*
X124158187Y-92654188D02*
X124329616Y-92654188D01*
X124329616Y-92654188D02*
X124443902Y-92711331D01*
X124443902Y-92711331D02*
X124501045Y-92768473D01*
X124501045Y-92768473D02*
X124558187Y-92882759D01*
X124558187Y-92882759D02*
X124558187Y-93225616D01*
X124558187Y-93225616D02*
X124501045Y-93339902D01*
X124501045Y-93339902D02*
X124443902Y-93397045D01*
X124443902Y-93397045D02*
X124329616Y-93454188D01*
X124329616Y-93454188D02*
X124158187Y-93454188D01*
X124901044Y-92654188D02*
X125358187Y-92654188D01*
X125072473Y-92254188D02*
X125072473Y-93282759D01*
X125072473Y-93282759D02*
X125129616Y-93397045D01*
X125129616Y-93397045D02*
X125243901Y-93454188D01*
X125243901Y-93454188D02*
X125358187Y-93454188D01*
D10*
X145765807Y-76491235D02*
X145765807Y-75691235D01*
X145765807Y-75691235D02*
X146070569Y-75691235D01*
X146070569Y-75691235D02*
X146146759Y-75729331D01*
X146146759Y-75729331D02*
X146184854Y-75767426D01*
X146184854Y-75767426D02*
X146222950Y-75843616D01*
X146222950Y-75843616D02*
X146222950Y-75957902D01*
X146222950Y-75957902D02*
X146184854Y-76034092D01*
X146184854Y-76034092D02*
X146146759Y-76072188D01*
X146146759Y-76072188D02*
X146070569Y-76110283D01*
X146070569Y-76110283D02*
X145765807Y-76110283D01*
X146527711Y-76262664D02*
X146908664Y-76262664D01*
X146451521Y-76491235D02*
X146718188Y-75691235D01*
X146718188Y-75691235D02*
X146984854Y-76491235D01*
X147670568Y-76491235D02*
X147213425Y-76491235D01*
X147441997Y-76491235D02*
X147441997Y-75691235D01*
X147441997Y-75691235D02*
X147365806Y-75805521D01*
X147365806Y-75805521D02*
X147289616Y-75881711D01*
X147289616Y-75881711D02*
X147213425Y-75919807D01*
X148165807Y-75691235D02*
X148241997Y-75691235D01*
X148241997Y-75691235D02*
X148318188Y-75729331D01*
X148318188Y-75729331D02*
X148356283Y-75767426D01*
X148356283Y-75767426D02*
X148394378Y-75843616D01*
X148394378Y-75843616D02*
X148432473Y-75995997D01*
X148432473Y-75995997D02*
X148432473Y-76186473D01*
X148432473Y-76186473D02*
X148394378Y-76338854D01*
X148394378Y-76338854D02*
X148356283Y-76415045D01*
X148356283Y-76415045D02*
X148318188Y-76453140D01*
X148318188Y-76453140D02*
X148241997Y-76491235D01*
X148241997Y-76491235D02*
X148165807Y-76491235D01*
X148165807Y-76491235D02*
X148089616Y-76453140D01*
X148089616Y-76453140D02*
X148051521Y-76415045D01*
X148051521Y-76415045D02*
X148013426Y-76338854D01*
X148013426Y-76338854D02*
X147975330Y-76186473D01*
X147975330Y-76186473D02*
X147975330Y-75995997D01*
X147975330Y-75995997D02*
X148013426Y-75843616D01*
X148013426Y-75843616D02*
X148051521Y-75767426D01*
X148051521Y-75767426D02*
X148089616Y-75729331D01*
X148089616Y-75729331D02*
X148165807Y-75691235D01*
X148765807Y-76451235D02*
X148765807Y-75651235D01*
X148765807Y-75651235D02*
X149070569Y-75651235D01*
X149070569Y-75651235D02*
X149146759Y-75689331D01*
X149146759Y-75689331D02*
X149184854Y-75727426D01*
X149184854Y-75727426D02*
X149222950Y-75803616D01*
X149222950Y-75803616D02*
X149222950Y-75917902D01*
X149222950Y-75917902D02*
X149184854Y-75994092D01*
X149184854Y-75994092D02*
X149146759Y-76032188D01*
X149146759Y-76032188D02*
X149070569Y-76070283D01*
X149070569Y-76070283D02*
X148765807Y-76070283D01*
X149527711Y-76222664D02*
X149908664Y-76222664D01*
X149451521Y-76451235D02*
X149718188Y-75651235D01*
X149718188Y-75651235D02*
X149984854Y-76451235D01*
X150289616Y-76451235D02*
X150441997Y-76451235D01*
X150441997Y-76451235D02*
X150518187Y-76413140D01*
X150518187Y-76413140D02*
X150556283Y-76375045D01*
X150556283Y-76375045D02*
X150632473Y-76260759D01*
X150632473Y-76260759D02*
X150670568Y-76108378D01*
X150670568Y-76108378D02*
X150670568Y-75803616D01*
X150670568Y-75803616D02*
X150632473Y-75727426D01*
X150632473Y-75727426D02*
X150594378Y-75689331D01*
X150594378Y-75689331D02*
X150518187Y-75651235D01*
X150518187Y-75651235D02*
X150365806Y-75651235D01*
X150365806Y-75651235D02*
X150289616Y-75689331D01*
X150289616Y-75689331D02*
X150251521Y-75727426D01*
X150251521Y-75727426D02*
X150213425Y-75803616D01*
X150213425Y-75803616D02*
X150213425Y-75994092D01*
X150213425Y-75994092D02*
X150251521Y-76070283D01*
X150251521Y-76070283D02*
X150289616Y-76108378D01*
X150289616Y-76108378D02*
X150365806Y-76146473D01*
X150365806Y-76146473D02*
X150518187Y-76146473D01*
X150518187Y-76146473D02*
X150594378Y-76108378D01*
X150594378Y-76108378D02*
X150632473Y-76070283D01*
X150632473Y-76070283D02*
X150670568Y-75994092D01*
X151145807Y-112061235D02*
X151145807Y-111261235D01*
X151145807Y-111261235D02*
X151450569Y-111261235D01*
X151450569Y-111261235D02*
X151526759Y-111299331D01*
X151526759Y-111299331D02*
X151564854Y-111337426D01*
X151564854Y-111337426D02*
X151602950Y-111413616D01*
X151602950Y-111413616D02*
X151602950Y-111527902D01*
X151602950Y-111527902D02*
X151564854Y-111604092D01*
X151564854Y-111604092D02*
X151526759Y-111642188D01*
X151526759Y-111642188D02*
X151450569Y-111680283D01*
X151450569Y-111680283D02*
X151145807Y-111680283D01*
X151907711Y-111832664D02*
X152288664Y-111832664D01*
X151831521Y-112061235D02*
X152098188Y-111261235D01*
X152098188Y-111261235D02*
X152364854Y-112061235D01*
X152555330Y-111261235D02*
X153088664Y-111261235D01*
X153088664Y-111261235D02*
X152745806Y-112061235D01*
X153805807Y-112121235D02*
X153805807Y-111321235D01*
X153805807Y-111321235D02*
X154110569Y-111321235D01*
X154110569Y-111321235D02*
X154186759Y-111359331D01*
X154186759Y-111359331D02*
X154224854Y-111397426D01*
X154224854Y-111397426D02*
X154262950Y-111473616D01*
X154262950Y-111473616D02*
X154262950Y-111587902D01*
X154262950Y-111587902D02*
X154224854Y-111664092D01*
X154224854Y-111664092D02*
X154186759Y-111702188D01*
X154186759Y-111702188D02*
X154110569Y-111740283D01*
X154110569Y-111740283D02*
X153805807Y-111740283D01*
X154872473Y-111702188D02*
X154986759Y-111740283D01*
X154986759Y-111740283D02*
X155024854Y-111778378D01*
X155024854Y-111778378D02*
X155062950Y-111854569D01*
X155062950Y-111854569D02*
X155062950Y-111968854D01*
X155062950Y-111968854D02*
X155024854Y-112045045D01*
X155024854Y-112045045D02*
X154986759Y-112083140D01*
X154986759Y-112083140D02*
X154910569Y-112121235D01*
X154910569Y-112121235D02*
X154605807Y-112121235D01*
X154605807Y-112121235D02*
X154605807Y-111321235D01*
X154605807Y-111321235D02*
X154872473Y-111321235D01*
X154872473Y-111321235D02*
X154948664Y-111359331D01*
X154948664Y-111359331D02*
X154986759Y-111397426D01*
X154986759Y-111397426D02*
X155024854Y-111473616D01*
X155024854Y-111473616D02*
X155024854Y-111549807D01*
X155024854Y-111549807D02*
X154986759Y-111625997D01*
X154986759Y-111625997D02*
X154948664Y-111664092D01*
X154948664Y-111664092D02*
X154872473Y-111702188D01*
X154872473Y-111702188D02*
X154605807Y-111702188D01*
X155558188Y-111321235D02*
X155634378Y-111321235D01*
X155634378Y-111321235D02*
X155710569Y-111359331D01*
X155710569Y-111359331D02*
X155748664Y-111397426D01*
X155748664Y-111397426D02*
X155786759Y-111473616D01*
X155786759Y-111473616D02*
X155824854Y-111625997D01*
X155824854Y-111625997D02*
X155824854Y-111816473D01*
X155824854Y-111816473D02*
X155786759Y-111968854D01*
X155786759Y-111968854D02*
X155748664Y-112045045D01*
X155748664Y-112045045D02*
X155710569Y-112083140D01*
X155710569Y-112083140D02*
X155634378Y-112121235D01*
X155634378Y-112121235D02*
X155558188Y-112121235D01*
X155558188Y-112121235D02*
X155481997Y-112083140D01*
X155481997Y-112083140D02*
X155443902Y-112045045D01*
X155443902Y-112045045D02*
X155405807Y-111968854D01*
X155405807Y-111968854D02*
X155367711Y-111816473D01*
X155367711Y-111816473D02*
X155367711Y-111625997D01*
X155367711Y-111625997D02*
X155405807Y-111473616D01*
X155405807Y-111473616D02*
X155443902Y-111397426D01*
X155443902Y-111397426D02*
X155481997Y-111359331D01*
X155481997Y-111359331D02*
X155558188Y-111321235D01*
X167389616Y-103611235D02*
X167884854Y-103611235D01*
X167884854Y-103611235D02*
X167618188Y-103915997D01*
X167618188Y-103915997D02*
X167732473Y-103915997D01*
X167732473Y-103915997D02*
X167808664Y-103954092D01*
X167808664Y-103954092D02*
X167846759Y-103992188D01*
X167846759Y-103992188D02*
X167884854Y-104068378D01*
X167884854Y-104068378D02*
X167884854Y-104258854D01*
X167884854Y-104258854D02*
X167846759Y-104335045D01*
X167846759Y-104335045D02*
X167808664Y-104373140D01*
X167808664Y-104373140D02*
X167732473Y-104411235D01*
X167732473Y-104411235D02*
X167503902Y-104411235D01*
X167503902Y-104411235D02*
X167427711Y-104373140D01*
X167427711Y-104373140D02*
X167389616Y-104335045D01*
X168227712Y-104335045D02*
X168265807Y-104373140D01*
X168265807Y-104373140D02*
X168227712Y-104411235D01*
X168227712Y-104411235D02*
X168189616Y-104373140D01*
X168189616Y-104373140D02*
X168227712Y-104335045D01*
X168227712Y-104335045D02*
X168227712Y-104411235D01*
X168532473Y-103611235D02*
X169027711Y-103611235D01*
X169027711Y-103611235D02*
X168761045Y-103915997D01*
X168761045Y-103915997D02*
X168875330Y-103915997D01*
X168875330Y-103915997D02*
X168951521Y-103954092D01*
X168951521Y-103954092D02*
X168989616Y-103992188D01*
X168989616Y-103992188D02*
X169027711Y-104068378D01*
X169027711Y-104068378D02*
X169027711Y-104258854D01*
X169027711Y-104258854D02*
X168989616Y-104335045D01*
X168989616Y-104335045D02*
X168951521Y-104373140D01*
X168951521Y-104373140D02*
X168875330Y-104411235D01*
X168875330Y-104411235D02*
X168646759Y-104411235D01*
X168646759Y-104411235D02*
X168570568Y-104373140D01*
X168570568Y-104373140D02*
X168532473Y-104335045D01*
X169294378Y-103877902D02*
X169484854Y-104411235D01*
X169484854Y-104411235D02*
X169675331Y-103877902D01*
X154229616Y-80321235D02*
X154724854Y-80321235D01*
X154724854Y-80321235D02*
X154458188Y-80625997D01*
X154458188Y-80625997D02*
X154572473Y-80625997D01*
X154572473Y-80625997D02*
X154648664Y-80664092D01*
X154648664Y-80664092D02*
X154686759Y-80702188D01*
X154686759Y-80702188D02*
X154724854Y-80778378D01*
X154724854Y-80778378D02*
X154724854Y-80968854D01*
X154724854Y-80968854D02*
X154686759Y-81045045D01*
X154686759Y-81045045D02*
X154648664Y-81083140D01*
X154648664Y-81083140D02*
X154572473Y-81121235D01*
X154572473Y-81121235D02*
X154343902Y-81121235D01*
X154343902Y-81121235D02*
X154267711Y-81083140D01*
X154267711Y-81083140D02*
X154229616Y-81045045D01*
X155067712Y-81045045D02*
X155105807Y-81083140D01*
X155105807Y-81083140D02*
X155067712Y-81121235D01*
X155067712Y-81121235D02*
X155029616Y-81083140D01*
X155029616Y-81083140D02*
X155067712Y-81045045D01*
X155067712Y-81045045D02*
X155067712Y-81121235D01*
X155372473Y-80321235D02*
X155867711Y-80321235D01*
X155867711Y-80321235D02*
X155601045Y-80625997D01*
X155601045Y-80625997D02*
X155715330Y-80625997D01*
X155715330Y-80625997D02*
X155791521Y-80664092D01*
X155791521Y-80664092D02*
X155829616Y-80702188D01*
X155829616Y-80702188D02*
X155867711Y-80778378D01*
X155867711Y-80778378D02*
X155867711Y-80968854D01*
X155867711Y-80968854D02*
X155829616Y-81045045D01*
X155829616Y-81045045D02*
X155791521Y-81083140D01*
X155791521Y-81083140D02*
X155715330Y-81121235D01*
X155715330Y-81121235D02*
X155486759Y-81121235D01*
X155486759Y-81121235D02*
X155410568Y-81083140D01*
X155410568Y-81083140D02*
X155372473Y-81045045D01*
X156134378Y-80587902D02*
X156324854Y-81121235D01*
X156324854Y-81121235D02*
X156515331Y-80587902D01*
X145965807Y-112091235D02*
X145965807Y-111291235D01*
X145965807Y-111291235D02*
X146270569Y-111291235D01*
X146270569Y-111291235D02*
X146346759Y-111329331D01*
X146346759Y-111329331D02*
X146384854Y-111367426D01*
X146384854Y-111367426D02*
X146422950Y-111443616D01*
X146422950Y-111443616D02*
X146422950Y-111557902D01*
X146422950Y-111557902D02*
X146384854Y-111634092D01*
X146384854Y-111634092D02*
X146346759Y-111672188D01*
X146346759Y-111672188D02*
X146270569Y-111710283D01*
X146270569Y-111710283D02*
X145965807Y-111710283D01*
X146727711Y-111862664D02*
X147108664Y-111862664D01*
X146651521Y-112091235D02*
X146918188Y-111291235D01*
X146918188Y-111291235D02*
X147184854Y-112091235D01*
X147832473Y-111291235D02*
X147451521Y-111291235D01*
X147451521Y-111291235D02*
X147413425Y-111672188D01*
X147413425Y-111672188D02*
X147451521Y-111634092D01*
X147451521Y-111634092D02*
X147527711Y-111595997D01*
X147527711Y-111595997D02*
X147718187Y-111595997D01*
X147718187Y-111595997D02*
X147794378Y-111634092D01*
X147794378Y-111634092D02*
X147832473Y-111672188D01*
X147832473Y-111672188D02*
X147870568Y-111748378D01*
X147870568Y-111748378D02*
X147870568Y-111938854D01*
X147870568Y-111938854D02*
X147832473Y-112015045D01*
X147832473Y-112015045D02*
X147794378Y-112053140D01*
X147794378Y-112053140D02*
X147718187Y-112091235D01*
X147718187Y-112091235D02*
X147527711Y-112091235D01*
X147527711Y-112091235D02*
X147451521Y-112053140D01*
X147451521Y-112053140D02*
X147413425Y-112015045D01*
X146708664Y-80467902D02*
X146708664Y-81115521D01*
X146708664Y-81115521D02*
X146670569Y-81191711D01*
X146670569Y-81191711D02*
X146632473Y-81229807D01*
X146632473Y-81229807D02*
X146556283Y-81267902D01*
X146556283Y-81267902D02*
X146441997Y-81267902D01*
X146441997Y-81267902D02*
X146365807Y-81229807D01*
X146708664Y-80963140D02*
X146632473Y-81001235D01*
X146632473Y-81001235D02*
X146480092Y-81001235D01*
X146480092Y-81001235D02*
X146403902Y-80963140D01*
X146403902Y-80963140D02*
X146365807Y-80925045D01*
X146365807Y-80925045D02*
X146327711Y-80848854D01*
X146327711Y-80848854D02*
X146327711Y-80620283D01*
X146327711Y-80620283D02*
X146365807Y-80544092D01*
X146365807Y-80544092D02*
X146403902Y-80505997D01*
X146403902Y-80505997D02*
X146480092Y-80467902D01*
X146480092Y-80467902D02*
X146632473Y-80467902D01*
X146632473Y-80467902D02*
X146708664Y-80505997D01*
X147089617Y-80467902D02*
X147089617Y-81001235D01*
X147089617Y-80544092D02*
X147127712Y-80505997D01*
X147127712Y-80505997D02*
X147203902Y-80467902D01*
X147203902Y-80467902D02*
X147318188Y-80467902D01*
X147318188Y-80467902D02*
X147394379Y-80505997D01*
X147394379Y-80505997D02*
X147432474Y-80582188D01*
X147432474Y-80582188D02*
X147432474Y-81001235D01*
X148156284Y-81001235D02*
X148156284Y-80201235D01*
X148156284Y-80963140D02*
X148080093Y-81001235D01*
X148080093Y-81001235D02*
X147927712Y-81001235D01*
X147927712Y-81001235D02*
X147851522Y-80963140D01*
X147851522Y-80963140D02*
X147813427Y-80925045D01*
X147813427Y-80925045D02*
X147775331Y-80848854D01*
X147775331Y-80848854D02*
X147775331Y-80620283D01*
X147775331Y-80620283D02*
X147813427Y-80544092D01*
X147813427Y-80544092D02*
X147851522Y-80505997D01*
X147851522Y-80505997D02*
X147927712Y-80467902D01*
X147927712Y-80467902D02*
X148080093Y-80467902D01*
X148080093Y-80467902D02*
X148156284Y-80505997D01*
X167658664Y-96177902D02*
X167658664Y-96825521D01*
X167658664Y-96825521D02*
X167620569Y-96901711D01*
X167620569Y-96901711D02*
X167582473Y-96939807D01*
X167582473Y-96939807D02*
X167506283Y-96977902D01*
X167506283Y-96977902D02*
X167391997Y-96977902D01*
X167391997Y-96977902D02*
X167315807Y-96939807D01*
X167658664Y-96673140D02*
X167582473Y-96711235D01*
X167582473Y-96711235D02*
X167430092Y-96711235D01*
X167430092Y-96711235D02*
X167353902Y-96673140D01*
X167353902Y-96673140D02*
X167315807Y-96635045D01*
X167315807Y-96635045D02*
X167277711Y-96558854D01*
X167277711Y-96558854D02*
X167277711Y-96330283D01*
X167277711Y-96330283D02*
X167315807Y-96254092D01*
X167315807Y-96254092D02*
X167353902Y-96215997D01*
X167353902Y-96215997D02*
X167430092Y-96177902D01*
X167430092Y-96177902D02*
X167582473Y-96177902D01*
X167582473Y-96177902D02*
X167658664Y-96215997D01*
X168039617Y-96177902D02*
X168039617Y-96711235D01*
X168039617Y-96254092D02*
X168077712Y-96215997D01*
X168077712Y-96215997D02*
X168153902Y-96177902D01*
X168153902Y-96177902D02*
X168268188Y-96177902D01*
X168268188Y-96177902D02*
X168344379Y-96215997D01*
X168344379Y-96215997D02*
X168382474Y-96292188D01*
X168382474Y-96292188D02*
X168382474Y-96711235D01*
X169106284Y-96711235D02*
X169106284Y-95911235D01*
X169106284Y-96673140D02*
X169030093Y-96711235D01*
X169030093Y-96711235D02*
X168877712Y-96711235D01*
X168877712Y-96711235D02*
X168801522Y-96673140D01*
X168801522Y-96673140D02*
X168763427Y-96635045D01*
X168763427Y-96635045D02*
X168725331Y-96558854D01*
X168725331Y-96558854D02*
X168725331Y-96330283D01*
X168725331Y-96330283D02*
X168763427Y-96254092D01*
X168763427Y-96254092D02*
X168801522Y-96215997D01*
X168801522Y-96215997D02*
X168877712Y-96177902D01*
X168877712Y-96177902D02*
X169030093Y-96177902D01*
X169030093Y-96177902D02*
X169106284Y-96215997D01*
D12*
X151693426Y-86173783D02*
X151871997Y-86233307D01*
X151871997Y-86233307D02*
X152169616Y-86233307D01*
X152169616Y-86233307D02*
X152288664Y-86173783D01*
X152288664Y-86173783D02*
X152348188Y-86114259D01*
X152348188Y-86114259D02*
X152407711Y-85995211D01*
X152407711Y-85995211D02*
X152407711Y-85876164D01*
X152407711Y-85876164D02*
X152348188Y-85757116D01*
X152348188Y-85757116D02*
X152288664Y-85697592D01*
X152288664Y-85697592D02*
X152169616Y-85638069D01*
X152169616Y-85638069D02*
X151931521Y-85578545D01*
X151931521Y-85578545D02*
X151812473Y-85519021D01*
X151812473Y-85519021D02*
X151752950Y-85459497D01*
X151752950Y-85459497D02*
X151693426Y-85340450D01*
X151693426Y-85340450D02*
X151693426Y-85221402D01*
X151693426Y-85221402D02*
X151752950Y-85102354D01*
X151752950Y-85102354D02*
X151812473Y-85042831D01*
X151812473Y-85042831D02*
X151931521Y-84983307D01*
X151931521Y-84983307D02*
X152229140Y-84983307D01*
X152229140Y-84983307D02*
X152407711Y-85042831D01*
X152824378Y-84983307D02*
X153121997Y-86233307D01*
X153121997Y-86233307D02*
X153360092Y-85340450D01*
X153360092Y-85340450D02*
X153598187Y-86233307D01*
X153598187Y-86233307D02*
X153895807Y-84983307D01*
X154371997Y-86233307D02*
X154371997Y-84983307D01*
X154371997Y-84983307D02*
X154669616Y-84983307D01*
X154669616Y-84983307D02*
X154848187Y-85042831D01*
X154848187Y-85042831D02*
X154967235Y-85161878D01*
X154967235Y-85161878D02*
X155026758Y-85280926D01*
X155026758Y-85280926D02*
X155086282Y-85519021D01*
X155086282Y-85519021D02*
X155086282Y-85697592D01*
X155086282Y-85697592D02*
X155026758Y-85935688D01*
X155026758Y-85935688D02*
X154967235Y-86054735D01*
X154967235Y-86054735D02*
X154848187Y-86173783D01*
X154848187Y-86173783D02*
X154669616Y-86233307D01*
X154669616Y-86233307D02*
X154371997Y-86233307D01*
D10*
X130255807Y-112101235D02*
X130255807Y-111301235D01*
X130255807Y-111301235D02*
X130560569Y-111301235D01*
X130560569Y-111301235D02*
X130636759Y-111339331D01*
X130636759Y-111339331D02*
X130674854Y-111377426D01*
X130674854Y-111377426D02*
X130712950Y-111453616D01*
X130712950Y-111453616D02*
X130712950Y-111567902D01*
X130712950Y-111567902D02*
X130674854Y-111644092D01*
X130674854Y-111644092D02*
X130636759Y-111682188D01*
X130636759Y-111682188D02*
X130560569Y-111720283D01*
X130560569Y-111720283D02*
X130255807Y-111720283D01*
X131512950Y-112025045D02*
X131474854Y-112063140D01*
X131474854Y-112063140D02*
X131360569Y-112101235D01*
X131360569Y-112101235D02*
X131284378Y-112101235D01*
X131284378Y-112101235D02*
X131170092Y-112063140D01*
X131170092Y-112063140D02*
X131093902Y-111986950D01*
X131093902Y-111986950D02*
X131055807Y-111910759D01*
X131055807Y-111910759D02*
X131017711Y-111758378D01*
X131017711Y-111758378D02*
X131017711Y-111644092D01*
X131017711Y-111644092D02*
X131055807Y-111491711D01*
X131055807Y-111491711D02*
X131093902Y-111415521D01*
X131093902Y-111415521D02*
X131170092Y-111339331D01*
X131170092Y-111339331D02*
X131284378Y-111301235D01*
X131284378Y-111301235D02*
X131360569Y-111301235D01*
X131360569Y-111301235D02*
X131474854Y-111339331D01*
X131474854Y-111339331D02*
X131512950Y-111377426D01*
X132274854Y-112101235D02*
X131817711Y-112101235D01*
X132046283Y-112101235D02*
X132046283Y-111301235D01*
X132046283Y-111301235D02*
X131970092Y-111415521D01*
X131970092Y-111415521D02*
X131893902Y-111491711D01*
X131893902Y-111491711D02*
X131817711Y-111529807D01*
X132998664Y-111301235D02*
X132617712Y-111301235D01*
X132617712Y-111301235D02*
X132579616Y-111682188D01*
X132579616Y-111682188D02*
X132617712Y-111644092D01*
X132617712Y-111644092D02*
X132693902Y-111605997D01*
X132693902Y-111605997D02*
X132884378Y-111605997D01*
X132884378Y-111605997D02*
X132960569Y-111644092D01*
X132960569Y-111644092D02*
X132998664Y-111682188D01*
X132998664Y-111682188D02*
X133036759Y-111758378D01*
X133036759Y-111758378D02*
X133036759Y-111948854D01*
X133036759Y-111948854D02*
X132998664Y-112025045D01*
X132998664Y-112025045D02*
X132960569Y-112063140D01*
X132960569Y-112063140D02*
X132884378Y-112101235D01*
X132884378Y-112101235D02*
X132693902Y-112101235D01*
X132693902Y-112101235D02*
X132617712Y-112063140D01*
X132617712Y-112063140D02*
X132579616Y-112025045D01*
D12*
X163063307Y-101317711D02*
X161813307Y-101317711D01*
X161932354Y-100781997D02*
X161872831Y-100722473D01*
X161872831Y-100722473D02*
X161813307Y-100603426D01*
X161813307Y-100603426D02*
X161813307Y-100305807D01*
X161813307Y-100305807D02*
X161872831Y-100186759D01*
X161872831Y-100186759D02*
X161932354Y-100127235D01*
X161932354Y-100127235D02*
X162051402Y-100067712D01*
X162051402Y-100067712D02*
X162170450Y-100067712D01*
X162170450Y-100067712D02*
X162349021Y-100127235D01*
X162349021Y-100127235D02*
X163063307Y-100841521D01*
X163063307Y-100841521D02*
X163063307Y-100067712D01*
X162944259Y-98817712D02*
X163003783Y-98877236D01*
X163003783Y-98877236D02*
X163063307Y-99055807D01*
X163063307Y-99055807D02*
X163063307Y-99174855D01*
X163063307Y-99174855D02*
X163003783Y-99353426D01*
X163003783Y-99353426D02*
X162884735Y-99472474D01*
X162884735Y-99472474D02*
X162765688Y-99531997D01*
X162765688Y-99531997D02*
X162527592Y-99591521D01*
X162527592Y-99591521D02*
X162349021Y-99591521D01*
X162349021Y-99591521D02*
X162110926Y-99531997D01*
X162110926Y-99531997D02*
X161991878Y-99472474D01*
X161991878Y-99472474D02*
X161872831Y-99353426D01*
X161872831Y-99353426D02*
X161813307Y-99174855D01*
X161813307Y-99174855D02*
X161813307Y-99055807D01*
X161813307Y-99055807D02*
X161872831Y-98877236D01*
X161872831Y-98877236D02*
X161932354Y-98817712D01*
D13*
X126165807Y-76581235D02*
X126165807Y-75781235D01*
X126165807Y-75781235D02*
X126470569Y-75781235D01*
X126470569Y-75781235D02*
X126546759Y-75819331D01*
X126546759Y-75819331D02*
X126584854Y-75857426D01*
X126584854Y-75857426D02*
X126622950Y-75933616D01*
X126622950Y-75933616D02*
X126622950Y-76047902D01*
X126622950Y-76047902D02*
X126584854Y-76124092D01*
X126584854Y-76124092D02*
X126546759Y-76162188D01*
X126546759Y-76162188D02*
X126470569Y-76200283D01*
X126470569Y-76200283D02*
X126165807Y-76200283D01*
X127422950Y-76505045D02*
X127384854Y-76543140D01*
X127384854Y-76543140D02*
X127270569Y-76581235D01*
X127270569Y-76581235D02*
X127194378Y-76581235D01*
X127194378Y-76581235D02*
X127080092Y-76543140D01*
X127080092Y-76543140D02*
X127003902Y-76466950D01*
X127003902Y-76466950D02*
X126965807Y-76390759D01*
X126965807Y-76390759D02*
X126927711Y-76238378D01*
X126927711Y-76238378D02*
X126927711Y-76124092D01*
X126927711Y-76124092D02*
X126965807Y-75971711D01*
X126965807Y-75971711D02*
X127003902Y-75895521D01*
X127003902Y-75895521D02*
X127080092Y-75819331D01*
X127080092Y-75819331D02*
X127194378Y-75781235D01*
X127194378Y-75781235D02*
X127270569Y-75781235D01*
X127270569Y-75781235D02*
X127384854Y-75819331D01*
X127384854Y-75819331D02*
X127422950Y-75857426D01*
X128184854Y-76581235D02*
X127727711Y-76581235D01*
X127956283Y-76581235D02*
X127956283Y-75781235D01*
X127956283Y-75781235D02*
X127880092Y-75895521D01*
X127880092Y-75895521D02*
X127803902Y-75971711D01*
X127803902Y-75971711D02*
X127727711Y-76009807D01*
X128451521Y-75781235D02*
X128946759Y-75781235D01*
X128946759Y-75781235D02*
X128680093Y-76085997D01*
X128680093Y-76085997D02*
X128794378Y-76085997D01*
X128794378Y-76085997D02*
X128870569Y-76124092D01*
X128870569Y-76124092D02*
X128908664Y-76162188D01*
X128908664Y-76162188D02*
X128946759Y-76238378D01*
X128946759Y-76238378D02*
X128946759Y-76428854D01*
X128946759Y-76428854D02*
X128908664Y-76505045D01*
X128908664Y-76505045D02*
X128870569Y-76543140D01*
X128870569Y-76543140D02*
X128794378Y-76581235D01*
X128794378Y-76581235D02*
X128565807Y-76581235D01*
X128565807Y-76581235D02*
X128489616Y-76543140D01*
X128489616Y-76543140D02*
X128451521Y-76505045D01*
D11*
X139929616Y-80451235D02*
X140424854Y-80451235D01*
X140424854Y-80451235D02*
X140158188Y-80755997D01*
X140158188Y-80755997D02*
X140272473Y-80755997D01*
X140272473Y-80755997D02*
X140348664Y-80794092D01*
X140348664Y-80794092D02*
X140386759Y-80832188D01*
X140386759Y-80832188D02*
X140424854Y-80908378D01*
X140424854Y-80908378D02*
X140424854Y-81098854D01*
X140424854Y-81098854D02*
X140386759Y-81175045D01*
X140386759Y-81175045D02*
X140348664Y-81213140D01*
X140348664Y-81213140D02*
X140272473Y-81251235D01*
X140272473Y-81251235D02*
X140043902Y-81251235D01*
X140043902Y-81251235D02*
X139967711Y-81213140D01*
X139967711Y-81213140D02*
X139929616Y-81175045D01*
X140767712Y-81175045D02*
X140805807Y-81213140D01*
X140805807Y-81213140D02*
X140767712Y-81251235D01*
X140767712Y-81251235D02*
X140729616Y-81213140D01*
X140729616Y-81213140D02*
X140767712Y-81175045D01*
X140767712Y-81175045D02*
X140767712Y-81251235D01*
X141072473Y-80451235D02*
X141567711Y-80451235D01*
X141567711Y-80451235D02*
X141301045Y-80755997D01*
X141301045Y-80755997D02*
X141415330Y-80755997D01*
X141415330Y-80755997D02*
X141491521Y-80794092D01*
X141491521Y-80794092D02*
X141529616Y-80832188D01*
X141529616Y-80832188D02*
X141567711Y-80908378D01*
X141567711Y-80908378D02*
X141567711Y-81098854D01*
X141567711Y-81098854D02*
X141529616Y-81175045D01*
X141529616Y-81175045D02*
X141491521Y-81213140D01*
X141491521Y-81213140D02*
X141415330Y-81251235D01*
X141415330Y-81251235D02*
X141186759Y-81251235D01*
X141186759Y-81251235D02*
X141110568Y-81213140D01*
X141110568Y-81213140D02*
X141072473Y-81175045D01*
X141834378Y-80717902D02*
X142024854Y-81251235D01*
X142024854Y-81251235D02*
X142215331Y-80717902D01*
D10*
X167277711Y-99393140D02*
X167391997Y-99431235D01*
X167391997Y-99431235D02*
X167582473Y-99431235D01*
X167582473Y-99431235D02*
X167658664Y-99393140D01*
X167658664Y-99393140D02*
X167696759Y-99355045D01*
X167696759Y-99355045D02*
X167734854Y-99278854D01*
X167734854Y-99278854D02*
X167734854Y-99202664D01*
X167734854Y-99202664D02*
X167696759Y-99126473D01*
X167696759Y-99126473D02*
X167658664Y-99088378D01*
X167658664Y-99088378D02*
X167582473Y-99050283D01*
X167582473Y-99050283D02*
X167430092Y-99012188D01*
X167430092Y-99012188D02*
X167353902Y-98974092D01*
X167353902Y-98974092D02*
X167315807Y-98935997D01*
X167315807Y-98935997D02*
X167277711Y-98859807D01*
X167277711Y-98859807D02*
X167277711Y-98783616D01*
X167277711Y-98783616D02*
X167315807Y-98707426D01*
X167315807Y-98707426D02*
X167353902Y-98669331D01*
X167353902Y-98669331D02*
X167430092Y-98631235D01*
X167430092Y-98631235D02*
X167620569Y-98631235D01*
X167620569Y-98631235D02*
X167734854Y-98669331D01*
X168077712Y-99431235D02*
X168077712Y-98631235D01*
X168077712Y-98631235D02*
X168268188Y-98631235D01*
X168268188Y-98631235D02*
X168382474Y-98669331D01*
X168382474Y-98669331D02*
X168458664Y-98745521D01*
X168458664Y-98745521D02*
X168496759Y-98821711D01*
X168496759Y-98821711D02*
X168534855Y-98974092D01*
X168534855Y-98974092D02*
X168534855Y-99088378D01*
X168534855Y-99088378D02*
X168496759Y-99240759D01*
X168496759Y-99240759D02*
X168458664Y-99316950D01*
X168458664Y-99316950D02*
X168382474Y-99393140D01*
X168382474Y-99393140D02*
X168268188Y-99431235D01*
X168268188Y-99431235D02*
X168077712Y-99431235D01*
X168839616Y-99202664D02*
X169220569Y-99202664D01*
X168763426Y-99431235D02*
X169030093Y-98631235D01*
X169030093Y-98631235D02*
X169296759Y-99431235D01*
X153245807Y-76491235D02*
X153245807Y-75691235D01*
X153245807Y-75691235D02*
X153550569Y-75691235D01*
X153550569Y-75691235D02*
X153626759Y-75729331D01*
X153626759Y-75729331D02*
X153664854Y-75767426D01*
X153664854Y-75767426D02*
X153702950Y-75843616D01*
X153702950Y-75843616D02*
X153702950Y-75957902D01*
X153702950Y-75957902D02*
X153664854Y-76034092D01*
X153664854Y-76034092D02*
X153626759Y-76072188D01*
X153626759Y-76072188D02*
X153550569Y-76110283D01*
X153550569Y-76110283D02*
X153245807Y-76110283D01*
X154312473Y-76072188D02*
X154426759Y-76110283D01*
X154426759Y-76110283D02*
X154464854Y-76148378D01*
X154464854Y-76148378D02*
X154502950Y-76224569D01*
X154502950Y-76224569D02*
X154502950Y-76338854D01*
X154502950Y-76338854D02*
X154464854Y-76415045D01*
X154464854Y-76415045D02*
X154426759Y-76453140D01*
X154426759Y-76453140D02*
X154350569Y-76491235D01*
X154350569Y-76491235D02*
X154045807Y-76491235D01*
X154045807Y-76491235D02*
X154045807Y-75691235D01*
X154045807Y-75691235D02*
X154312473Y-75691235D01*
X154312473Y-75691235D02*
X154388664Y-75729331D01*
X154388664Y-75729331D02*
X154426759Y-75767426D01*
X154426759Y-75767426D02*
X154464854Y-75843616D01*
X154464854Y-75843616D02*
X154464854Y-75919807D01*
X154464854Y-75919807D02*
X154426759Y-75995997D01*
X154426759Y-75995997D02*
X154388664Y-76034092D01*
X154388664Y-76034092D02*
X154312473Y-76072188D01*
X154312473Y-76072188D02*
X154045807Y-76072188D01*
X155264854Y-76491235D02*
X154807711Y-76491235D01*
X155036283Y-76491235D02*
X155036283Y-75691235D01*
X155036283Y-75691235D02*
X154960092Y-75805521D01*
X154960092Y-75805521D02*
X154883902Y-75881711D01*
X154883902Y-75881711D02*
X154807711Y-75919807D01*
X155988664Y-75691235D02*
X155607712Y-75691235D01*
X155607712Y-75691235D02*
X155569616Y-76072188D01*
X155569616Y-76072188D02*
X155607712Y-76034092D01*
X155607712Y-76034092D02*
X155683902Y-75995997D01*
X155683902Y-75995997D02*
X155874378Y-75995997D01*
X155874378Y-75995997D02*
X155950569Y-76034092D01*
X155950569Y-76034092D02*
X155988664Y-76072188D01*
X155988664Y-76072188D02*
X156026759Y-76148378D01*
X156026759Y-76148378D02*
X156026759Y-76338854D01*
X156026759Y-76338854D02*
X155988664Y-76415045D01*
X155988664Y-76415045D02*
X155950569Y-76453140D01*
X155950569Y-76453140D02*
X155874378Y-76491235D01*
X155874378Y-76491235D02*
X155683902Y-76491235D01*
X155683902Y-76491235D02*
X155607712Y-76453140D01*
X155607712Y-76453140D02*
X155569616Y-76415045D01*
X156295807Y-112091235D02*
X156295807Y-111291235D01*
X156295807Y-111291235D02*
X156600569Y-111291235D01*
X156600569Y-111291235D02*
X156676759Y-111329331D01*
X156676759Y-111329331D02*
X156714854Y-111367426D01*
X156714854Y-111367426D02*
X156752950Y-111443616D01*
X156752950Y-111443616D02*
X156752950Y-111557902D01*
X156752950Y-111557902D02*
X156714854Y-111634092D01*
X156714854Y-111634092D02*
X156676759Y-111672188D01*
X156676759Y-111672188D02*
X156600569Y-111710283D01*
X156600569Y-111710283D02*
X156295807Y-111710283D01*
X157362473Y-111672188D02*
X157476759Y-111710283D01*
X157476759Y-111710283D02*
X157514854Y-111748378D01*
X157514854Y-111748378D02*
X157552950Y-111824569D01*
X157552950Y-111824569D02*
X157552950Y-111938854D01*
X157552950Y-111938854D02*
X157514854Y-112015045D01*
X157514854Y-112015045D02*
X157476759Y-112053140D01*
X157476759Y-112053140D02*
X157400569Y-112091235D01*
X157400569Y-112091235D02*
X157095807Y-112091235D01*
X157095807Y-112091235D02*
X157095807Y-111291235D01*
X157095807Y-111291235D02*
X157362473Y-111291235D01*
X157362473Y-111291235D02*
X157438664Y-111329331D01*
X157438664Y-111329331D02*
X157476759Y-111367426D01*
X157476759Y-111367426D02*
X157514854Y-111443616D01*
X157514854Y-111443616D02*
X157514854Y-111519807D01*
X157514854Y-111519807D02*
X157476759Y-111595997D01*
X157476759Y-111595997D02*
X157438664Y-111634092D01*
X157438664Y-111634092D02*
X157362473Y-111672188D01*
X157362473Y-111672188D02*
X157095807Y-111672188D01*
X158314854Y-112091235D02*
X157857711Y-112091235D01*
X158086283Y-112091235D02*
X158086283Y-111291235D01*
X158086283Y-111291235D02*
X158010092Y-111405521D01*
X158010092Y-111405521D02*
X157933902Y-111481711D01*
X157933902Y-111481711D02*
X157857711Y-111519807D01*
X133385807Y-112081235D02*
X133385807Y-111281235D01*
X133385807Y-111281235D02*
X133690569Y-111281235D01*
X133690569Y-111281235D02*
X133766759Y-111319331D01*
X133766759Y-111319331D02*
X133804854Y-111357426D01*
X133804854Y-111357426D02*
X133842950Y-111433616D01*
X133842950Y-111433616D02*
X133842950Y-111547902D01*
X133842950Y-111547902D02*
X133804854Y-111624092D01*
X133804854Y-111624092D02*
X133766759Y-111662188D01*
X133766759Y-111662188D02*
X133690569Y-111700283D01*
X133690569Y-111700283D02*
X133385807Y-111700283D01*
X134147711Y-111852664D02*
X134528664Y-111852664D01*
X134071521Y-112081235D02*
X134338188Y-111281235D01*
X134338188Y-111281235D02*
X134604854Y-112081235D01*
X135023902Y-111281235D02*
X135100092Y-111281235D01*
X135100092Y-111281235D02*
X135176283Y-111319331D01*
X135176283Y-111319331D02*
X135214378Y-111357426D01*
X135214378Y-111357426D02*
X135252473Y-111433616D01*
X135252473Y-111433616D02*
X135290568Y-111585997D01*
X135290568Y-111585997D02*
X135290568Y-111776473D01*
X135290568Y-111776473D02*
X135252473Y-111928854D01*
X135252473Y-111928854D02*
X135214378Y-112005045D01*
X135214378Y-112005045D02*
X135176283Y-112043140D01*
X135176283Y-112043140D02*
X135100092Y-112081235D01*
X135100092Y-112081235D02*
X135023902Y-112081235D01*
X135023902Y-112081235D02*
X134947711Y-112043140D01*
X134947711Y-112043140D02*
X134909616Y-112005045D01*
X134909616Y-112005045D02*
X134871521Y-111928854D01*
X134871521Y-111928854D02*
X134833425Y-111776473D01*
X134833425Y-111776473D02*
X134833425Y-111585997D01*
X134833425Y-111585997D02*
X134871521Y-111433616D01*
X134871521Y-111433616D02*
X134909616Y-111357426D01*
X134909616Y-111357426D02*
X134947711Y-111319331D01*
X134947711Y-111319331D02*
X135023902Y-111281235D01*
X156485807Y-76481235D02*
X156485807Y-75681235D01*
X156485807Y-75681235D02*
X156790569Y-75681235D01*
X156790569Y-75681235D02*
X156866759Y-75719331D01*
X156866759Y-75719331D02*
X156904854Y-75757426D01*
X156904854Y-75757426D02*
X156942950Y-75833616D01*
X156942950Y-75833616D02*
X156942950Y-75947902D01*
X156942950Y-75947902D02*
X156904854Y-76024092D01*
X156904854Y-76024092D02*
X156866759Y-76062188D01*
X156866759Y-76062188D02*
X156790569Y-76100283D01*
X156790569Y-76100283D02*
X156485807Y-76100283D01*
X157552473Y-76062188D02*
X157666759Y-76100283D01*
X157666759Y-76100283D02*
X157704854Y-76138378D01*
X157704854Y-76138378D02*
X157742950Y-76214569D01*
X157742950Y-76214569D02*
X157742950Y-76328854D01*
X157742950Y-76328854D02*
X157704854Y-76405045D01*
X157704854Y-76405045D02*
X157666759Y-76443140D01*
X157666759Y-76443140D02*
X157590569Y-76481235D01*
X157590569Y-76481235D02*
X157285807Y-76481235D01*
X157285807Y-76481235D02*
X157285807Y-75681235D01*
X157285807Y-75681235D02*
X157552473Y-75681235D01*
X157552473Y-75681235D02*
X157628664Y-75719331D01*
X157628664Y-75719331D02*
X157666759Y-75757426D01*
X157666759Y-75757426D02*
X157704854Y-75833616D01*
X157704854Y-75833616D02*
X157704854Y-75909807D01*
X157704854Y-75909807D02*
X157666759Y-75985997D01*
X157666759Y-75985997D02*
X157628664Y-76024092D01*
X157628664Y-76024092D02*
X157552473Y-76062188D01*
X157552473Y-76062188D02*
X157285807Y-76062188D01*
X158504854Y-76481235D02*
X158047711Y-76481235D01*
X158276283Y-76481235D02*
X158276283Y-75681235D01*
X158276283Y-75681235D02*
X158200092Y-75795521D01*
X158200092Y-75795521D02*
X158123902Y-75871711D01*
X158123902Y-75871711D02*
X158047711Y-75909807D01*
X159190569Y-75947902D02*
X159190569Y-76481235D01*
X159000093Y-75643140D02*
X158809616Y-76214569D01*
X158809616Y-76214569D02*
X159304855Y-76214569D01*
X132415807Y-76561235D02*
X132415807Y-75761235D01*
X132415807Y-75761235D02*
X132720569Y-75761235D01*
X132720569Y-75761235D02*
X132796759Y-75799331D01*
X132796759Y-75799331D02*
X132834854Y-75837426D01*
X132834854Y-75837426D02*
X132872950Y-75913616D01*
X132872950Y-75913616D02*
X132872950Y-76027902D01*
X132872950Y-76027902D02*
X132834854Y-76104092D01*
X132834854Y-76104092D02*
X132796759Y-76142188D01*
X132796759Y-76142188D02*
X132720569Y-76180283D01*
X132720569Y-76180283D02*
X132415807Y-76180283D01*
X133482473Y-76142188D02*
X133596759Y-76180283D01*
X133596759Y-76180283D02*
X133634854Y-76218378D01*
X133634854Y-76218378D02*
X133672950Y-76294569D01*
X133672950Y-76294569D02*
X133672950Y-76408854D01*
X133672950Y-76408854D02*
X133634854Y-76485045D01*
X133634854Y-76485045D02*
X133596759Y-76523140D01*
X133596759Y-76523140D02*
X133520569Y-76561235D01*
X133520569Y-76561235D02*
X133215807Y-76561235D01*
X133215807Y-76561235D02*
X133215807Y-75761235D01*
X133215807Y-75761235D02*
X133482473Y-75761235D01*
X133482473Y-75761235D02*
X133558664Y-75799331D01*
X133558664Y-75799331D02*
X133596759Y-75837426D01*
X133596759Y-75837426D02*
X133634854Y-75913616D01*
X133634854Y-75913616D02*
X133634854Y-75989807D01*
X133634854Y-75989807D02*
X133596759Y-76065997D01*
X133596759Y-76065997D02*
X133558664Y-76104092D01*
X133558664Y-76104092D02*
X133482473Y-76142188D01*
X133482473Y-76142188D02*
X133215807Y-76142188D01*
X134130092Y-76104092D02*
X134053902Y-76065997D01*
X134053902Y-76065997D02*
X134015807Y-76027902D01*
X134015807Y-76027902D02*
X133977711Y-75951711D01*
X133977711Y-75951711D02*
X133977711Y-75913616D01*
X133977711Y-75913616D02*
X134015807Y-75837426D01*
X134015807Y-75837426D02*
X134053902Y-75799331D01*
X134053902Y-75799331D02*
X134130092Y-75761235D01*
X134130092Y-75761235D02*
X134282473Y-75761235D01*
X134282473Y-75761235D02*
X134358664Y-75799331D01*
X134358664Y-75799331D02*
X134396759Y-75837426D01*
X134396759Y-75837426D02*
X134434854Y-75913616D01*
X134434854Y-75913616D02*
X134434854Y-75951711D01*
X134434854Y-75951711D02*
X134396759Y-76027902D01*
X134396759Y-76027902D02*
X134358664Y-76065997D01*
X134358664Y-76065997D02*
X134282473Y-76104092D01*
X134282473Y-76104092D02*
X134130092Y-76104092D01*
X134130092Y-76104092D02*
X134053902Y-76142188D01*
X134053902Y-76142188D02*
X134015807Y-76180283D01*
X134015807Y-76180283D02*
X133977711Y-76256473D01*
X133977711Y-76256473D02*
X133977711Y-76408854D01*
X133977711Y-76408854D02*
X134015807Y-76485045D01*
X134015807Y-76485045D02*
X134053902Y-76523140D01*
X134053902Y-76523140D02*
X134130092Y-76561235D01*
X134130092Y-76561235D02*
X134282473Y-76561235D01*
X134282473Y-76561235D02*
X134358664Y-76523140D01*
X134358664Y-76523140D02*
X134396759Y-76485045D01*
X134396759Y-76485045D02*
X134434854Y-76408854D01*
X134434854Y-76408854D02*
X134434854Y-76256473D01*
X134434854Y-76256473D02*
X134396759Y-76180283D01*
X134396759Y-76180283D02*
X134358664Y-76142188D01*
X134358664Y-76142188D02*
X134282473Y-76104092D01*
X142765807Y-76471235D02*
X142765807Y-75671235D01*
X142765807Y-75671235D02*
X143070569Y-75671235D01*
X143070569Y-75671235D02*
X143146759Y-75709331D01*
X143146759Y-75709331D02*
X143184854Y-75747426D01*
X143184854Y-75747426D02*
X143222950Y-75823616D01*
X143222950Y-75823616D02*
X143222950Y-75937902D01*
X143222950Y-75937902D02*
X143184854Y-76014092D01*
X143184854Y-76014092D02*
X143146759Y-76052188D01*
X143146759Y-76052188D02*
X143070569Y-76090283D01*
X143070569Y-76090283D02*
X142765807Y-76090283D01*
X143527711Y-76242664D02*
X143908664Y-76242664D01*
X143451521Y-76471235D02*
X143718188Y-75671235D01*
X143718188Y-75671235D02*
X143984854Y-76471235D01*
X144670568Y-76471235D02*
X144213425Y-76471235D01*
X144441997Y-76471235D02*
X144441997Y-75671235D01*
X144441997Y-75671235D02*
X144365806Y-75785521D01*
X144365806Y-75785521D02*
X144289616Y-75861711D01*
X144289616Y-75861711D02*
X144213425Y-75899807D01*
X145394378Y-75671235D02*
X145013426Y-75671235D01*
X145013426Y-75671235D02*
X144975330Y-76052188D01*
X144975330Y-76052188D02*
X145013426Y-76014092D01*
X145013426Y-76014092D02*
X145089616Y-75975997D01*
X145089616Y-75975997D02*
X145280092Y-75975997D01*
X145280092Y-75975997D02*
X145356283Y-76014092D01*
X145356283Y-76014092D02*
X145394378Y-76052188D01*
X145394378Y-76052188D02*
X145432473Y-76128378D01*
X145432473Y-76128378D02*
X145432473Y-76318854D01*
X145432473Y-76318854D02*
X145394378Y-76395045D01*
X145394378Y-76395045D02*
X145356283Y-76433140D01*
X145356283Y-76433140D02*
X145280092Y-76471235D01*
X145280092Y-76471235D02*
X145089616Y-76471235D01*
X145089616Y-76471235D02*
X145013426Y-76433140D01*
X145013426Y-76433140D02*
X144975330Y-76395045D01*
X140375807Y-76461235D02*
X140375807Y-75661235D01*
X140375807Y-75661235D02*
X140680569Y-75661235D01*
X140680569Y-75661235D02*
X140756759Y-75699331D01*
X140756759Y-75699331D02*
X140794854Y-75737426D01*
X140794854Y-75737426D02*
X140832950Y-75813616D01*
X140832950Y-75813616D02*
X140832950Y-75927902D01*
X140832950Y-75927902D02*
X140794854Y-76004092D01*
X140794854Y-76004092D02*
X140756759Y-76042188D01*
X140756759Y-76042188D02*
X140680569Y-76080283D01*
X140680569Y-76080283D02*
X140375807Y-76080283D01*
X141442473Y-76042188D02*
X141556759Y-76080283D01*
X141556759Y-76080283D02*
X141594854Y-76118378D01*
X141594854Y-76118378D02*
X141632950Y-76194569D01*
X141632950Y-76194569D02*
X141632950Y-76308854D01*
X141632950Y-76308854D02*
X141594854Y-76385045D01*
X141594854Y-76385045D02*
X141556759Y-76423140D01*
X141556759Y-76423140D02*
X141480569Y-76461235D01*
X141480569Y-76461235D02*
X141175807Y-76461235D01*
X141175807Y-76461235D02*
X141175807Y-75661235D01*
X141175807Y-75661235D02*
X141442473Y-75661235D01*
X141442473Y-75661235D02*
X141518664Y-75699331D01*
X141518664Y-75699331D02*
X141556759Y-75737426D01*
X141556759Y-75737426D02*
X141594854Y-75813616D01*
X141594854Y-75813616D02*
X141594854Y-75889807D01*
X141594854Y-75889807D02*
X141556759Y-75965997D01*
X141556759Y-75965997D02*
X141518664Y-76004092D01*
X141518664Y-76004092D02*
X141442473Y-76042188D01*
X141442473Y-76042188D02*
X141175807Y-76042188D01*
X141899616Y-75661235D02*
X142394854Y-75661235D01*
X142394854Y-75661235D02*
X142128188Y-75965997D01*
X142128188Y-75965997D02*
X142242473Y-75965997D01*
X142242473Y-75965997D02*
X142318664Y-76004092D01*
X142318664Y-76004092D02*
X142356759Y-76042188D01*
X142356759Y-76042188D02*
X142394854Y-76118378D01*
X142394854Y-76118378D02*
X142394854Y-76308854D01*
X142394854Y-76308854D02*
X142356759Y-76385045D01*
X142356759Y-76385045D02*
X142318664Y-76423140D01*
X142318664Y-76423140D02*
X142242473Y-76461235D01*
X142242473Y-76461235D02*
X142013902Y-76461235D01*
X142013902Y-76461235D02*
X141937711Y-76423140D01*
X141937711Y-76423140D02*
X141899616Y-76385045D01*
D12*
X133992950Y-84953307D02*
X133992950Y-85965211D01*
X133992950Y-85965211D02*
X134052473Y-86084259D01*
X134052473Y-86084259D02*
X134111997Y-86143783D01*
X134111997Y-86143783D02*
X134231045Y-86203307D01*
X134231045Y-86203307D02*
X134469140Y-86203307D01*
X134469140Y-86203307D02*
X134588188Y-86143783D01*
X134588188Y-86143783D02*
X134647711Y-86084259D01*
X134647711Y-86084259D02*
X134707235Y-85965211D01*
X134707235Y-85965211D02*
X134707235Y-84953307D01*
X135242950Y-85846164D02*
X135838188Y-85846164D01*
X135123902Y-86203307D02*
X135540569Y-84953307D01*
X135540569Y-84953307D02*
X135957235Y-86203307D01*
X137088188Y-86203307D02*
X136671522Y-85608069D01*
X136373903Y-86203307D02*
X136373903Y-84953307D01*
X136373903Y-84953307D02*
X136850093Y-84953307D01*
X136850093Y-84953307D02*
X136969141Y-85012831D01*
X136969141Y-85012831D02*
X137028664Y-85072354D01*
X137028664Y-85072354D02*
X137088188Y-85191402D01*
X137088188Y-85191402D02*
X137088188Y-85369973D01*
X137088188Y-85369973D02*
X137028664Y-85489021D01*
X137028664Y-85489021D02*
X136969141Y-85548545D01*
X136969141Y-85548545D02*
X136850093Y-85608069D01*
X136850093Y-85608069D02*
X136373903Y-85608069D01*
X137445331Y-84953307D02*
X138159617Y-84953307D01*
X137802474Y-86203307D02*
X137802474Y-84953307D01*
D10*
X159655807Y-76471235D02*
X159655807Y-75671235D01*
X159655807Y-75671235D02*
X159960569Y-75671235D01*
X159960569Y-75671235D02*
X160036759Y-75709331D01*
X160036759Y-75709331D02*
X160074854Y-75747426D01*
X160074854Y-75747426D02*
X160112950Y-75823616D01*
X160112950Y-75823616D02*
X160112950Y-75937902D01*
X160112950Y-75937902D02*
X160074854Y-76014092D01*
X160074854Y-76014092D02*
X160036759Y-76052188D01*
X160036759Y-76052188D02*
X159960569Y-76090283D01*
X159960569Y-76090283D02*
X159655807Y-76090283D01*
X160722473Y-76052188D02*
X160836759Y-76090283D01*
X160836759Y-76090283D02*
X160874854Y-76128378D01*
X160874854Y-76128378D02*
X160912950Y-76204569D01*
X160912950Y-76204569D02*
X160912950Y-76318854D01*
X160912950Y-76318854D02*
X160874854Y-76395045D01*
X160874854Y-76395045D02*
X160836759Y-76433140D01*
X160836759Y-76433140D02*
X160760569Y-76471235D01*
X160760569Y-76471235D02*
X160455807Y-76471235D01*
X160455807Y-76471235D02*
X160455807Y-75671235D01*
X160455807Y-75671235D02*
X160722473Y-75671235D01*
X160722473Y-75671235D02*
X160798664Y-75709331D01*
X160798664Y-75709331D02*
X160836759Y-75747426D01*
X160836759Y-75747426D02*
X160874854Y-75823616D01*
X160874854Y-75823616D02*
X160874854Y-75899807D01*
X160874854Y-75899807D02*
X160836759Y-75975997D01*
X160836759Y-75975997D02*
X160798664Y-76014092D01*
X160798664Y-76014092D02*
X160722473Y-76052188D01*
X160722473Y-76052188D02*
X160455807Y-76052188D01*
X161674854Y-76471235D02*
X161217711Y-76471235D01*
X161446283Y-76471235D02*
X161446283Y-75671235D01*
X161446283Y-75671235D02*
X161370092Y-75785521D01*
X161370092Y-75785521D02*
X161293902Y-75861711D01*
X161293902Y-75861711D02*
X161217711Y-75899807D01*
X161941521Y-75671235D02*
X162436759Y-75671235D01*
X162436759Y-75671235D02*
X162170093Y-75975997D01*
X162170093Y-75975997D02*
X162284378Y-75975997D01*
X162284378Y-75975997D02*
X162360569Y-76014092D01*
X162360569Y-76014092D02*
X162398664Y-76052188D01*
X162398664Y-76052188D02*
X162436759Y-76128378D01*
X162436759Y-76128378D02*
X162436759Y-76318854D01*
X162436759Y-76318854D02*
X162398664Y-76395045D01*
X162398664Y-76395045D02*
X162360569Y-76433140D01*
X162360569Y-76433140D02*
X162284378Y-76471235D01*
X162284378Y-76471235D02*
X162055807Y-76471235D01*
X162055807Y-76471235D02*
X161979616Y-76433140D01*
X161979616Y-76433140D02*
X161941521Y-76395045D01*
X148485807Y-112071235D02*
X148485807Y-111271235D01*
X148485807Y-111271235D02*
X148790569Y-111271235D01*
X148790569Y-111271235D02*
X148866759Y-111309331D01*
X148866759Y-111309331D02*
X148904854Y-111347426D01*
X148904854Y-111347426D02*
X148942950Y-111423616D01*
X148942950Y-111423616D02*
X148942950Y-111537902D01*
X148942950Y-111537902D02*
X148904854Y-111614092D01*
X148904854Y-111614092D02*
X148866759Y-111652188D01*
X148866759Y-111652188D02*
X148790569Y-111690283D01*
X148790569Y-111690283D02*
X148485807Y-111690283D01*
X149247711Y-111842664D02*
X149628664Y-111842664D01*
X149171521Y-112071235D02*
X149438188Y-111271235D01*
X149438188Y-111271235D02*
X149704854Y-112071235D01*
X150314378Y-111271235D02*
X150161997Y-111271235D01*
X150161997Y-111271235D02*
X150085806Y-111309331D01*
X150085806Y-111309331D02*
X150047711Y-111347426D01*
X150047711Y-111347426D02*
X149971521Y-111461711D01*
X149971521Y-111461711D02*
X149933425Y-111614092D01*
X149933425Y-111614092D02*
X149933425Y-111918854D01*
X149933425Y-111918854D02*
X149971521Y-111995045D01*
X149971521Y-111995045D02*
X150009616Y-112033140D01*
X150009616Y-112033140D02*
X150085806Y-112071235D01*
X150085806Y-112071235D02*
X150238187Y-112071235D01*
X150238187Y-112071235D02*
X150314378Y-112033140D01*
X150314378Y-112033140D02*
X150352473Y-111995045D01*
X150352473Y-111995045D02*
X150390568Y-111918854D01*
X150390568Y-111918854D02*
X150390568Y-111728378D01*
X150390568Y-111728378D02*
X150352473Y-111652188D01*
X150352473Y-111652188D02*
X150314378Y-111614092D01*
X150314378Y-111614092D02*
X150238187Y-111575997D01*
X150238187Y-111575997D02*
X150085806Y-111575997D01*
X150085806Y-111575997D02*
X150009616Y-111614092D01*
X150009616Y-111614092D02*
X149971521Y-111652188D01*
X149971521Y-111652188D02*
X149933425Y-111728378D01*
X149548664Y-81043140D02*
X149472473Y-81081235D01*
X149472473Y-81081235D02*
X149320092Y-81081235D01*
X149320092Y-81081235D02*
X149243902Y-81043140D01*
X149243902Y-81043140D02*
X149205807Y-81005045D01*
X149205807Y-81005045D02*
X149167711Y-80928854D01*
X149167711Y-80928854D02*
X149167711Y-80700283D01*
X149167711Y-80700283D02*
X149205807Y-80624092D01*
X149205807Y-80624092D02*
X149243902Y-80585997D01*
X149243902Y-80585997D02*
X149320092Y-80547902D01*
X149320092Y-80547902D02*
X149472473Y-80547902D01*
X149472473Y-80547902D02*
X149548664Y-80585997D01*
X150005806Y-81081235D02*
X149929616Y-81043140D01*
X149929616Y-81043140D02*
X149891521Y-80966950D01*
X149891521Y-80966950D02*
X149891521Y-80281235D01*
X150310569Y-81081235D02*
X150310569Y-80281235D01*
X150386759Y-80776473D02*
X150615331Y-81081235D01*
X150615331Y-80547902D02*
X150310569Y-80852664D01*
D11*
X137601521Y-80441235D02*
X138058664Y-80441235D01*
X137830092Y-81241235D02*
X137830092Y-80441235D01*
X138249140Y-80441235D02*
X138782474Y-81241235D01*
X138782474Y-80441235D02*
X138249140Y-81241235D01*
D14*
%TO.C,J5*%
X157426666Y-82197380D02*
X157426666Y-82911666D01*
X157426666Y-82911666D02*
X157379047Y-83054523D01*
X157379047Y-83054523D02*
X157283809Y-83149761D01*
X157283809Y-83149761D02*
X157140952Y-83197380D01*
X157140952Y-83197380D02*
X157045714Y-83197380D01*
X158379047Y-82197380D02*
X157902857Y-82197380D01*
X157902857Y-82197380D02*
X157855238Y-82673571D01*
X157855238Y-82673571D02*
X157902857Y-82625952D01*
X157902857Y-82625952D02*
X157998095Y-82578333D01*
X157998095Y-82578333D02*
X158236190Y-82578333D01*
X158236190Y-82578333D02*
X158331428Y-82625952D01*
X158331428Y-82625952D02*
X158379047Y-82673571D01*
X158379047Y-82673571D02*
X158426666Y-82768809D01*
X158426666Y-82768809D02*
X158426666Y-83006904D01*
X158426666Y-83006904D02*
X158379047Y-83102142D01*
X158379047Y-83102142D02*
X158331428Y-83149761D01*
X158331428Y-83149761D02*
X158236190Y-83197380D01*
X158236190Y-83197380D02*
X157998095Y-83197380D01*
X157998095Y-83197380D02*
X157902857Y-83149761D01*
X157902857Y-83149761D02*
X157855238Y-83102142D01*
%TO.C,J3*%
X164301997Y-106252711D02*
X164301997Y-106966997D01*
X164301997Y-106966997D02*
X164254378Y-107109854D01*
X164254378Y-107109854D02*
X164159140Y-107205092D01*
X164159140Y-107205092D02*
X164016283Y-107252711D01*
X164016283Y-107252711D02*
X163921045Y-107252711D01*
X164682950Y-106252711D02*
X165301997Y-106252711D01*
X165301997Y-106252711D02*
X164968664Y-106633664D01*
X164968664Y-106633664D02*
X165111521Y-106633664D01*
X165111521Y-106633664D02*
X165206759Y-106681283D01*
X165206759Y-106681283D02*
X165254378Y-106728902D01*
X165254378Y-106728902D02*
X165301997Y-106824140D01*
X165301997Y-106824140D02*
X165301997Y-107062235D01*
X165301997Y-107062235D02*
X165254378Y-107157473D01*
X165254378Y-107157473D02*
X165206759Y-107205092D01*
X165206759Y-107205092D02*
X165111521Y-107252711D01*
X165111521Y-107252711D02*
X164825807Y-107252711D01*
X164825807Y-107252711D02*
X164730569Y-107205092D01*
X164730569Y-107205092D02*
X164682950Y-107157473D01*
%TO.C,C13*%
X161157142Y-93452142D02*
X161109523Y-93499761D01*
X161109523Y-93499761D02*
X160966666Y-93547380D01*
X160966666Y-93547380D02*
X160871428Y-93547380D01*
X160871428Y-93547380D02*
X160728571Y-93499761D01*
X160728571Y-93499761D02*
X160633333Y-93404523D01*
X160633333Y-93404523D02*
X160585714Y-93309285D01*
X160585714Y-93309285D02*
X160538095Y-93118809D01*
X160538095Y-93118809D02*
X160538095Y-92975952D01*
X160538095Y-92975952D02*
X160585714Y-92785476D01*
X160585714Y-92785476D02*
X160633333Y-92690238D01*
X160633333Y-92690238D02*
X160728571Y-92595000D01*
X160728571Y-92595000D02*
X160871428Y-92547380D01*
X160871428Y-92547380D02*
X160966666Y-92547380D01*
X160966666Y-92547380D02*
X161109523Y-92595000D01*
X161109523Y-92595000D02*
X161157142Y-92642619D01*
X162109523Y-93547380D02*
X161538095Y-93547380D01*
X161823809Y-93547380D02*
X161823809Y-92547380D01*
X161823809Y-92547380D02*
X161728571Y-92690238D01*
X161728571Y-92690238D02*
X161633333Y-92785476D01*
X161633333Y-92785476D02*
X161538095Y-92833095D01*
X162442857Y-92547380D02*
X163061904Y-92547380D01*
X163061904Y-92547380D02*
X162728571Y-92928333D01*
X162728571Y-92928333D02*
X162871428Y-92928333D01*
X162871428Y-92928333D02*
X162966666Y-92975952D01*
X162966666Y-92975952D02*
X163014285Y-93023571D01*
X163014285Y-93023571D02*
X163061904Y-93118809D01*
X163061904Y-93118809D02*
X163061904Y-93356904D01*
X163061904Y-93356904D02*
X163014285Y-93452142D01*
X163014285Y-93452142D02*
X162966666Y-93499761D01*
X162966666Y-93499761D02*
X162871428Y-93547380D01*
X162871428Y-93547380D02*
X162585714Y-93547380D01*
X162585714Y-93547380D02*
X162490476Y-93499761D01*
X162490476Y-93499761D02*
X162442857Y-93452142D01*
%TO.C,C4*%
X149053333Y-98642142D02*
X149005714Y-98689761D01*
X149005714Y-98689761D02*
X148862857Y-98737380D01*
X148862857Y-98737380D02*
X148767619Y-98737380D01*
X148767619Y-98737380D02*
X148624762Y-98689761D01*
X148624762Y-98689761D02*
X148529524Y-98594523D01*
X148529524Y-98594523D02*
X148481905Y-98499285D01*
X148481905Y-98499285D02*
X148434286Y-98308809D01*
X148434286Y-98308809D02*
X148434286Y-98165952D01*
X148434286Y-98165952D02*
X148481905Y-97975476D01*
X148481905Y-97975476D02*
X148529524Y-97880238D01*
X148529524Y-97880238D02*
X148624762Y-97785000D01*
X148624762Y-97785000D02*
X148767619Y-97737380D01*
X148767619Y-97737380D02*
X148862857Y-97737380D01*
X148862857Y-97737380D02*
X149005714Y-97785000D01*
X149005714Y-97785000D02*
X149053333Y-97832619D01*
X149910476Y-98070714D02*
X149910476Y-98737380D01*
X149672381Y-97689761D02*
X149434286Y-98404047D01*
X149434286Y-98404047D02*
X150053333Y-98404047D01*
%TO.C,U2*%
X159518095Y-100747380D02*
X159518095Y-101556904D01*
X159518095Y-101556904D02*
X159565714Y-101652142D01*
X159565714Y-101652142D02*
X159613333Y-101699761D01*
X159613333Y-101699761D02*
X159708571Y-101747380D01*
X159708571Y-101747380D02*
X159899047Y-101747380D01*
X159899047Y-101747380D02*
X159994285Y-101699761D01*
X159994285Y-101699761D02*
X160041904Y-101652142D01*
X160041904Y-101652142D02*
X160089523Y-101556904D01*
X160089523Y-101556904D02*
X160089523Y-100747380D01*
X160518095Y-100842619D02*
X160565714Y-100795000D01*
X160565714Y-100795000D02*
X160660952Y-100747380D01*
X160660952Y-100747380D02*
X160899047Y-100747380D01*
X160899047Y-100747380D02*
X160994285Y-100795000D01*
X160994285Y-100795000D02*
X161041904Y-100842619D01*
X161041904Y-100842619D02*
X161089523Y-100937857D01*
X161089523Y-100937857D02*
X161089523Y-101033095D01*
X161089523Y-101033095D02*
X161041904Y-101175952D01*
X161041904Y-101175952D02*
X160470476Y-101747380D01*
X160470476Y-101747380D02*
X161089523Y-101747380D01*
%TO.C,Y1*%
X128203809Y-98161190D02*
X128203809Y-98637380D01*
X127870476Y-97637380D02*
X128203809Y-98161190D01*
X128203809Y-98161190D02*
X128537142Y-97637380D01*
X129394285Y-98637380D02*
X128822857Y-98637380D01*
X129108571Y-98637380D02*
X129108571Y-97637380D01*
X129108571Y-97637380D02*
X129013333Y-97780238D01*
X129013333Y-97780238D02*
X128918095Y-97875476D01*
X128918095Y-97875476D02*
X128822857Y-97923095D01*
%TO.C,SW1*%
X124121998Y-82545092D02*
X124264855Y-82592711D01*
X124264855Y-82592711D02*
X124502950Y-82592711D01*
X124502950Y-82592711D02*
X124598188Y-82545092D01*
X124598188Y-82545092D02*
X124645807Y-82497473D01*
X124645807Y-82497473D02*
X124693426Y-82402235D01*
X124693426Y-82402235D02*
X124693426Y-82306997D01*
X124693426Y-82306997D02*
X124645807Y-82211759D01*
X124645807Y-82211759D02*
X124598188Y-82164140D01*
X124598188Y-82164140D02*
X124502950Y-82116521D01*
X124502950Y-82116521D02*
X124312474Y-82068902D01*
X124312474Y-82068902D02*
X124217236Y-82021283D01*
X124217236Y-82021283D02*
X124169617Y-81973664D01*
X124169617Y-81973664D02*
X124121998Y-81878426D01*
X124121998Y-81878426D02*
X124121998Y-81783188D01*
X124121998Y-81783188D02*
X124169617Y-81687950D01*
X124169617Y-81687950D02*
X124217236Y-81640331D01*
X124217236Y-81640331D02*
X124312474Y-81592711D01*
X124312474Y-81592711D02*
X124550569Y-81592711D01*
X124550569Y-81592711D02*
X124693426Y-81640331D01*
X125026760Y-81592711D02*
X125264855Y-82592711D01*
X125264855Y-82592711D02*
X125455331Y-81878426D01*
X125455331Y-81878426D02*
X125645807Y-82592711D01*
X125645807Y-82592711D02*
X125883903Y-81592711D01*
X126788664Y-82592711D02*
X126217236Y-82592711D01*
X126502950Y-82592711D02*
X126502950Y-81592711D01*
X126502950Y-81592711D02*
X126407712Y-81735569D01*
X126407712Y-81735569D02*
X126312474Y-81830807D01*
X126312474Y-81830807D02*
X126217236Y-81878426D01*
%TO.C,C3*%
X148813333Y-88342142D02*
X148765714Y-88389761D01*
X148765714Y-88389761D02*
X148622857Y-88437380D01*
X148622857Y-88437380D02*
X148527619Y-88437380D01*
X148527619Y-88437380D02*
X148384762Y-88389761D01*
X148384762Y-88389761D02*
X148289524Y-88294523D01*
X148289524Y-88294523D02*
X148241905Y-88199285D01*
X148241905Y-88199285D02*
X148194286Y-88008809D01*
X148194286Y-88008809D02*
X148194286Y-87865952D01*
X148194286Y-87865952D02*
X148241905Y-87675476D01*
X148241905Y-87675476D02*
X148289524Y-87580238D01*
X148289524Y-87580238D02*
X148384762Y-87485000D01*
X148384762Y-87485000D02*
X148527619Y-87437380D01*
X148527619Y-87437380D02*
X148622857Y-87437380D01*
X148622857Y-87437380D02*
X148765714Y-87485000D01*
X148765714Y-87485000D02*
X148813333Y-87532619D01*
X149146667Y-87437380D02*
X149765714Y-87437380D01*
X149765714Y-87437380D02*
X149432381Y-87818333D01*
X149432381Y-87818333D02*
X149575238Y-87818333D01*
X149575238Y-87818333D02*
X149670476Y-87865952D01*
X149670476Y-87865952D02*
X149718095Y-87913571D01*
X149718095Y-87913571D02*
X149765714Y-88008809D01*
X149765714Y-88008809D02*
X149765714Y-88246904D01*
X149765714Y-88246904D02*
X149718095Y-88342142D01*
X149718095Y-88342142D02*
X149670476Y-88389761D01*
X149670476Y-88389761D02*
X149575238Y-88437380D01*
X149575238Y-88437380D02*
X149289524Y-88437380D01*
X149289524Y-88437380D02*
X149194286Y-88389761D01*
X149194286Y-88389761D02*
X149146667Y-88342142D01*
%TO.C,C9*%
X130093333Y-101902142D02*
X130045714Y-101949761D01*
X130045714Y-101949761D02*
X129902857Y-101997380D01*
X129902857Y-101997380D02*
X129807619Y-101997380D01*
X129807619Y-101997380D02*
X129664762Y-101949761D01*
X129664762Y-101949761D02*
X129569524Y-101854523D01*
X129569524Y-101854523D02*
X129521905Y-101759285D01*
X129521905Y-101759285D02*
X129474286Y-101568809D01*
X129474286Y-101568809D02*
X129474286Y-101425952D01*
X129474286Y-101425952D02*
X129521905Y-101235476D01*
X129521905Y-101235476D02*
X129569524Y-101140238D01*
X129569524Y-101140238D02*
X129664762Y-101045000D01*
X129664762Y-101045000D02*
X129807619Y-100997380D01*
X129807619Y-100997380D02*
X129902857Y-100997380D01*
X129902857Y-100997380D02*
X130045714Y-101045000D01*
X130045714Y-101045000D02*
X130093333Y-101092619D01*
X130569524Y-101997380D02*
X130760000Y-101997380D01*
X130760000Y-101997380D02*
X130855238Y-101949761D01*
X130855238Y-101949761D02*
X130902857Y-101902142D01*
X130902857Y-101902142D02*
X130998095Y-101759285D01*
X130998095Y-101759285D02*
X131045714Y-101568809D01*
X131045714Y-101568809D02*
X131045714Y-101187857D01*
X131045714Y-101187857D02*
X130998095Y-101092619D01*
X130998095Y-101092619D02*
X130950476Y-101045000D01*
X130950476Y-101045000D02*
X130855238Y-100997380D01*
X130855238Y-100997380D02*
X130664762Y-100997380D01*
X130664762Y-100997380D02*
X130569524Y-101045000D01*
X130569524Y-101045000D02*
X130521905Y-101092619D01*
X130521905Y-101092619D02*
X130474286Y-101187857D01*
X130474286Y-101187857D02*
X130474286Y-101425952D01*
X130474286Y-101425952D02*
X130521905Y-101521190D01*
X130521905Y-101521190D02*
X130569524Y-101568809D01*
X130569524Y-101568809D02*
X130664762Y-101616428D01*
X130664762Y-101616428D02*
X130855238Y-101616428D01*
X130855238Y-101616428D02*
X130950476Y-101568809D01*
X130950476Y-101568809D02*
X130998095Y-101521190D01*
X130998095Y-101521190D02*
X131045714Y-101425952D01*
%TO.C,R1*%
X130993333Y-89697380D02*
X130660000Y-89221190D01*
X130421905Y-89697380D02*
X130421905Y-88697380D01*
X130421905Y-88697380D02*
X130802857Y-88697380D01*
X130802857Y-88697380D02*
X130898095Y-88745000D01*
X130898095Y-88745000D02*
X130945714Y-88792619D01*
X130945714Y-88792619D02*
X130993333Y-88887857D01*
X130993333Y-88887857D02*
X130993333Y-89030714D01*
X130993333Y-89030714D02*
X130945714Y-89125952D01*
X130945714Y-89125952D02*
X130898095Y-89173571D01*
X130898095Y-89173571D02*
X130802857Y-89221190D01*
X130802857Y-89221190D02*
X130421905Y-89221190D01*
X131945714Y-89697380D02*
X131374286Y-89697380D01*
X131660000Y-89697380D02*
X131660000Y-88697380D01*
X131660000Y-88697380D02*
X131564762Y-88840238D01*
X131564762Y-88840238D02*
X131469524Y-88935476D01*
X131469524Y-88935476D02*
X131374286Y-88983095D01*
%TO.C,D1*%
X155971905Y-92967380D02*
X155971905Y-91967380D01*
X155971905Y-91967380D02*
X156210000Y-91967380D01*
X156210000Y-91967380D02*
X156352857Y-92015000D01*
X156352857Y-92015000D02*
X156448095Y-92110238D01*
X156448095Y-92110238D02*
X156495714Y-92205476D01*
X156495714Y-92205476D02*
X156543333Y-92395952D01*
X156543333Y-92395952D02*
X156543333Y-92538809D01*
X156543333Y-92538809D02*
X156495714Y-92729285D01*
X156495714Y-92729285D02*
X156448095Y-92824523D01*
X156448095Y-92824523D02*
X156352857Y-92919761D01*
X156352857Y-92919761D02*
X156210000Y-92967380D01*
X156210000Y-92967380D02*
X155971905Y-92967380D01*
X157495714Y-92967380D02*
X156924286Y-92967380D01*
X157210000Y-92967380D02*
X157210000Y-91967380D01*
X157210000Y-91967380D02*
X157114762Y-92110238D01*
X157114762Y-92110238D02*
X157019524Y-92205476D01*
X157019524Y-92205476D02*
X156924286Y-92253095D01*
%TO.C,U1*%
X142048095Y-86547380D02*
X142048095Y-87356904D01*
X142048095Y-87356904D02*
X142095714Y-87452142D01*
X142095714Y-87452142D02*
X142143333Y-87499761D01*
X142143333Y-87499761D02*
X142238571Y-87547380D01*
X142238571Y-87547380D02*
X142429047Y-87547380D01*
X142429047Y-87547380D02*
X142524285Y-87499761D01*
X142524285Y-87499761D02*
X142571904Y-87452142D01*
X142571904Y-87452142D02*
X142619523Y-87356904D01*
X142619523Y-87356904D02*
X142619523Y-86547380D01*
X143619523Y-87547380D02*
X143048095Y-87547380D01*
X143333809Y-87547380D02*
X143333809Y-86547380D01*
X143333809Y-86547380D02*
X143238571Y-86690238D01*
X143238571Y-86690238D02*
X143143333Y-86785476D01*
X143143333Y-86785476D02*
X143048095Y-86833095D01*
%TO.C,C12*%
X132147142Y-93202142D02*
X132099523Y-93249761D01*
X132099523Y-93249761D02*
X131956666Y-93297380D01*
X131956666Y-93297380D02*
X131861428Y-93297380D01*
X131861428Y-93297380D02*
X131718571Y-93249761D01*
X131718571Y-93249761D02*
X131623333Y-93154523D01*
X131623333Y-93154523D02*
X131575714Y-93059285D01*
X131575714Y-93059285D02*
X131528095Y-92868809D01*
X131528095Y-92868809D02*
X131528095Y-92725952D01*
X131528095Y-92725952D02*
X131575714Y-92535476D01*
X131575714Y-92535476D02*
X131623333Y-92440238D01*
X131623333Y-92440238D02*
X131718571Y-92345000D01*
X131718571Y-92345000D02*
X131861428Y-92297380D01*
X131861428Y-92297380D02*
X131956666Y-92297380D01*
X131956666Y-92297380D02*
X132099523Y-92345000D01*
X132099523Y-92345000D02*
X132147142Y-92392619D01*
X133099523Y-93297380D02*
X132528095Y-93297380D01*
X132813809Y-93297380D02*
X132813809Y-92297380D01*
X132813809Y-92297380D02*
X132718571Y-92440238D01*
X132718571Y-92440238D02*
X132623333Y-92535476D01*
X132623333Y-92535476D02*
X132528095Y-92583095D01*
X133480476Y-92392619D02*
X133528095Y-92345000D01*
X133528095Y-92345000D02*
X133623333Y-92297380D01*
X133623333Y-92297380D02*
X133861428Y-92297380D01*
X133861428Y-92297380D02*
X133956666Y-92345000D01*
X133956666Y-92345000D02*
X134004285Y-92392619D01*
X134004285Y-92392619D02*
X134051904Y-92487857D01*
X134051904Y-92487857D02*
X134051904Y-92583095D01*
X134051904Y-92583095D02*
X134004285Y-92725952D01*
X134004285Y-92725952D02*
X133432857Y-93297380D01*
X133432857Y-93297380D02*
X134051904Y-93297380D01*
%TO.C,FB1*%
X131336666Y-106333571D02*
X131003333Y-106333571D01*
X131003333Y-106857380D02*
X131003333Y-105857380D01*
X131003333Y-105857380D02*
X131479523Y-105857380D01*
X132193809Y-106333571D02*
X132336666Y-106381190D01*
X132336666Y-106381190D02*
X132384285Y-106428809D01*
X132384285Y-106428809D02*
X132431904Y-106524047D01*
X132431904Y-106524047D02*
X132431904Y-106666904D01*
X132431904Y-106666904D02*
X132384285Y-106762142D01*
X132384285Y-106762142D02*
X132336666Y-106809761D01*
X132336666Y-106809761D02*
X132241428Y-106857380D01*
X132241428Y-106857380D02*
X131860476Y-106857380D01*
X131860476Y-106857380D02*
X131860476Y-105857380D01*
X131860476Y-105857380D02*
X132193809Y-105857380D01*
X132193809Y-105857380D02*
X132289047Y-105905000D01*
X132289047Y-105905000D02*
X132336666Y-105952619D01*
X132336666Y-105952619D02*
X132384285Y-106047857D01*
X132384285Y-106047857D02*
X132384285Y-106143095D01*
X132384285Y-106143095D02*
X132336666Y-106238333D01*
X132336666Y-106238333D02*
X132289047Y-106285952D01*
X132289047Y-106285952D02*
X132193809Y-106333571D01*
X132193809Y-106333571D02*
X131860476Y-106333571D01*
X133384285Y-106857380D02*
X132812857Y-106857380D01*
X133098571Y-106857380D02*
X133098571Y-105857380D01*
X133098571Y-105857380D02*
X133003333Y-106000238D01*
X133003333Y-106000238D02*
X132908095Y-106095476D01*
X132908095Y-106095476D02*
X132812857Y-106143095D01*
%TO.C,C5*%
X133848664Y-88247473D02*
X133801045Y-88295092D01*
X133801045Y-88295092D02*
X133658188Y-88342711D01*
X133658188Y-88342711D02*
X133562950Y-88342711D01*
X133562950Y-88342711D02*
X133420093Y-88295092D01*
X133420093Y-88295092D02*
X133324855Y-88199854D01*
X133324855Y-88199854D02*
X133277236Y-88104616D01*
X133277236Y-88104616D02*
X133229617Y-87914140D01*
X133229617Y-87914140D02*
X133229617Y-87771283D01*
X133229617Y-87771283D02*
X133277236Y-87580807D01*
X133277236Y-87580807D02*
X133324855Y-87485569D01*
X133324855Y-87485569D02*
X133420093Y-87390331D01*
X133420093Y-87390331D02*
X133562950Y-87342711D01*
X133562950Y-87342711D02*
X133658188Y-87342711D01*
X133658188Y-87342711D02*
X133801045Y-87390331D01*
X133801045Y-87390331D02*
X133848664Y-87437950D01*
X134753426Y-87342711D02*
X134277236Y-87342711D01*
X134277236Y-87342711D02*
X134229617Y-87818902D01*
X134229617Y-87818902D02*
X134277236Y-87771283D01*
X134277236Y-87771283D02*
X134372474Y-87723664D01*
X134372474Y-87723664D02*
X134610569Y-87723664D01*
X134610569Y-87723664D02*
X134705807Y-87771283D01*
X134705807Y-87771283D02*
X134753426Y-87818902D01*
X134753426Y-87818902D02*
X134801045Y-87914140D01*
X134801045Y-87914140D02*
X134801045Y-88152235D01*
X134801045Y-88152235D02*
X134753426Y-88247473D01*
X134753426Y-88247473D02*
X134705807Y-88295092D01*
X134705807Y-88295092D02*
X134610569Y-88342711D01*
X134610569Y-88342711D02*
X134372474Y-88342711D01*
X134372474Y-88342711D02*
X134277236Y-88295092D01*
X134277236Y-88295092D02*
X134229617Y-88247473D01*
%TO.C,C6*%
X136088664Y-90497473D02*
X136041045Y-90545092D01*
X136041045Y-90545092D02*
X135898188Y-90592711D01*
X135898188Y-90592711D02*
X135802950Y-90592711D01*
X135802950Y-90592711D02*
X135660093Y-90545092D01*
X135660093Y-90545092D02*
X135564855Y-90449854D01*
X135564855Y-90449854D02*
X135517236Y-90354616D01*
X135517236Y-90354616D02*
X135469617Y-90164140D01*
X135469617Y-90164140D02*
X135469617Y-90021283D01*
X135469617Y-90021283D02*
X135517236Y-89830807D01*
X135517236Y-89830807D02*
X135564855Y-89735569D01*
X135564855Y-89735569D02*
X135660093Y-89640331D01*
X135660093Y-89640331D02*
X135802950Y-89592711D01*
X135802950Y-89592711D02*
X135898188Y-89592711D01*
X135898188Y-89592711D02*
X136041045Y-89640331D01*
X136041045Y-89640331D02*
X136088664Y-89687950D01*
X136945807Y-89592711D02*
X136755331Y-89592711D01*
X136755331Y-89592711D02*
X136660093Y-89640331D01*
X136660093Y-89640331D02*
X136612474Y-89687950D01*
X136612474Y-89687950D02*
X136517236Y-89830807D01*
X136517236Y-89830807D02*
X136469617Y-90021283D01*
X136469617Y-90021283D02*
X136469617Y-90402235D01*
X136469617Y-90402235D02*
X136517236Y-90497473D01*
X136517236Y-90497473D02*
X136564855Y-90545092D01*
X136564855Y-90545092D02*
X136660093Y-90592711D01*
X136660093Y-90592711D02*
X136850569Y-90592711D01*
X136850569Y-90592711D02*
X136945807Y-90545092D01*
X136945807Y-90545092D02*
X136993426Y-90497473D01*
X136993426Y-90497473D02*
X137041045Y-90402235D01*
X137041045Y-90402235D02*
X137041045Y-90164140D01*
X137041045Y-90164140D02*
X136993426Y-90068902D01*
X136993426Y-90068902D02*
X136945807Y-90021283D01*
X136945807Y-90021283D02*
X136850569Y-89973664D01*
X136850569Y-89973664D02*
X136660093Y-89973664D01*
X136660093Y-89973664D02*
X136564855Y-90021283D01*
X136564855Y-90021283D02*
X136517236Y-90068902D01*
X136517236Y-90068902D02*
X136469617Y-90164140D01*
%TO.C,C10*%
X134507142Y-96232142D02*
X134459523Y-96279761D01*
X134459523Y-96279761D02*
X134316666Y-96327380D01*
X134316666Y-96327380D02*
X134221428Y-96327380D01*
X134221428Y-96327380D02*
X134078571Y-96279761D01*
X134078571Y-96279761D02*
X133983333Y-96184523D01*
X133983333Y-96184523D02*
X133935714Y-96089285D01*
X133935714Y-96089285D02*
X133888095Y-95898809D01*
X133888095Y-95898809D02*
X133888095Y-95755952D01*
X133888095Y-95755952D02*
X133935714Y-95565476D01*
X133935714Y-95565476D02*
X133983333Y-95470238D01*
X133983333Y-95470238D02*
X134078571Y-95375000D01*
X134078571Y-95375000D02*
X134221428Y-95327380D01*
X134221428Y-95327380D02*
X134316666Y-95327380D01*
X134316666Y-95327380D02*
X134459523Y-95375000D01*
X134459523Y-95375000D02*
X134507142Y-95422619D01*
X135459523Y-96327380D02*
X134888095Y-96327380D01*
X135173809Y-96327380D02*
X135173809Y-95327380D01*
X135173809Y-95327380D02*
X135078571Y-95470238D01*
X135078571Y-95470238D02*
X134983333Y-95565476D01*
X134983333Y-95565476D02*
X134888095Y-95613095D01*
X136078571Y-95327380D02*
X136173809Y-95327380D01*
X136173809Y-95327380D02*
X136269047Y-95375000D01*
X136269047Y-95375000D02*
X136316666Y-95422619D01*
X136316666Y-95422619D02*
X136364285Y-95517857D01*
X136364285Y-95517857D02*
X136411904Y-95708333D01*
X136411904Y-95708333D02*
X136411904Y-95946428D01*
X136411904Y-95946428D02*
X136364285Y-96136904D01*
X136364285Y-96136904D02*
X136316666Y-96232142D01*
X136316666Y-96232142D02*
X136269047Y-96279761D01*
X136269047Y-96279761D02*
X136173809Y-96327380D01*
X136173809Y-96327380D02*
X136078571Y-96327380D01*
X136078571Y-96327380D02*
X135983333Y-96279761D01*
X135983333Y-96279761D02*
X135935714Y-96232142D01*
X135935714Y-96232142D02*
X135888095Y-96136904D01*
X135888095Y-96136904D02*
X135840476Y-95946428D01*
X135840476Y-95946428D02*
X135840476Y-95708333D01*
X135840476Y-95708333D02*
X135888095Y-95517857D01*
X135888095Y-95517857D02*
X135935714Y-95422619D01*
X135935714Y-95422619D02*
X135983333Y-95375000D01*
X135983333Y-95375000D02*
X136078571Y-95327380D01*
%TO.C,R2*%
X150813333Y-91677380D02*
X150480000Y-91201190D01*
X150241905Y-91677380D02*
X150241905Y-90677380D01*
X150241905Y-90677380D02*
X150622857Y-90677380D01*
X150622857Y-90677380D02*
X150718095Y-90725000D01*
X150718095Y-90725000D02*
X150765714Y-90772619D01*
X150765714Y-90772619D02*
X150813333Y-90867857D01*
X150813333Y-90867857D02*
X150813333Y-91010714D01*
X150813333Y-91010714D02*
X150765714Y-91105952D01*
X150765714Y-91105952D02*
X150718095Y-91153571D01*
X150718095Y-91153571D02*
X150622857Y-91201190D01*
X150622857Y-91201190D02*
X150241905Y-91201190D01*
X151194286Y-90772619D02*
X151241905Y-90725000D01*
X151241905Y-90725000D02*
X151337143Y-90677380D01*
X151337143Y-90677380D02*
X151575238Y-90677380D01*
X151575238Y-90677380D02*
X151670476Y-90725000D01*
X151670476Y-90725000D02*
X151718095Y-90772619D01*
X151718095Y-90772619D02*
X151765714Y-90867857D01*
X151765714Y-90867857D02*
X151765714Y-90963095D01*
X151765714Y-90963095D02*
X151718095Y-91105952D01*
X151718095Y-91105952D02*
X151146667Y-91677380D01*
X151146667Y-91677380D02*
X151765714Y-91677380D01*
%TO.C,J6*%
X164126666Y-76827380D02*
X164126666Y-77541666D01*
X164126666Y-77541666D02*
X164079047Y-77684523D01*
X164079047Y-77684523D02*
X163983809Y-77779761D01*
X163983809Y-77779761D02*
X163840952Y-77827380D01*
X163840952Y-77827380D02*
X163745714Y-77827380D01*
X165031428Y-76827380D02*
X164840952Y-76827380D01*
X164840952Y-76827380D02*
X164745714Y-76875000D01*
X164745714Y-76875000D02*
X164698095Y-76922619D01*
X164698095Y-76922619D02*
X164602857Y-77065476D01*
X164602857Y-77065476D02*
X164555238Y-77255952D01*
X164555238Y-77255952D02*
X164555238Y-77636904D01*
X164555238Y-77636904D02*
X164602857Y-77732142D01*
X164602857Y-77732142D02*
X164650476Y-77779761D01*
X164650476Y-77779761D02*
X164745714Y-77827380D01*
X164745714Y-77827380D02*
X164936190Y-77827380D01*
X164936190Y-77827380D02*
X165031428Y-77779761D01*
X165031428Y-77779761D02*
X165079047Y-77732142D01*
X165079047Y-77732142D02*
X165126666Y-77636904D01*
X165126666Y-77636904D02*
X165126666Y-77398809D01*
X165126666Y-77398809D02*
X165079047Y-77303571D01*
X165079047Y-77303571D02*
X165031428Y-77255952D01*
X165031428Y-77255952D02*
X164936190Y-77208333D01*
X164936190Y-77208333D02*
X164745714Y-77208333D01*
X164745714Y-77208333D02*
X164650476Y-77255952D01*
X164650476Y-77255952D02*
X164602857Y-77303571D01*
X164602857Y-77303571D02*
X164555238Y-77398809D01*
%TO.C,J1*%
X168801997Y-82627711D02*
X168801997Y-83341997D01*
X168801997Y-83341997D02*
X168754378Y-83484854D01*
X168754378Y-83484854D02*
X168659140Y-83580092D01*
X168659140Y-83580092D02*
X168516283Y-83627711D01*
X168516283Y-83627711D02*
X168421045Y-83627711D01*
X169801997Y-83627711D02*
X169230569Y-83627711D01*
X169516283Y-83627711D02*
X169516283Y-82627711D01*
X169516283Y-82627711D02*
X169421045Y-82770569D01*
X169421045Y-82770569D02*
X169325807Y-82865807D01*
X169325807Y-82865807D02*
X169230569Y-82913426D01*
%TO.C,R5*%
X148873333Y-100457380D02*
X148540000Y-99981190D01*
X148301905Y-100457380D02*
X148301905Y-99457380D01*
X148301905Y-99457380D02*
X148682857Y-99457380D01*
X148682857Y-99457380D02*
X148778095Y-99505000D01*
X148778095Y-99505000D02*
X148825714Y-99552619D01*
X148825714Y-99552619D02*
X148873333Y-99647857D01*
X148873333Y-99647857D02*
X148873333Y-99790714D01*
X148873333Y-99790714D02*
X148825714Y-99885952D01*
X148825714Y-99885952D02*
X148778095Y-99933571D01*
X148778095Y-99933571D02*
X148682857Y-99981190D01*
X148682857Y-99981190D02*
X148301905Y-99981190D01*
X149778095Y-99457380D02*
X149301905Y-99457380D01*
X149301905Y-99457380D02*
X149254286Y-99933571D01*
X149254286Y-99933571D02*
X149301905Y-99885952D01*
X149301905Y-99885952D02*
X149397143Y-99838333D01*
X149397143Y-99838333D02*
X149635238Y-99838333D01*
X149635238Y-99838333D02*
X149730476Y-99885952D01*
X149730476Y-99885952D02*
X149778095Y-99933571D01*
X149778095Y-99933571D02*
X149825714Y-100028809D01*
X149825714Y-100028809D02*
X149825714Y-100266904D01*
X149825714Y-100266904D02*
X149778095Y-100362142D01*
X149778095Y-100362142D02*
X149730476Y-100409761D01*
X149730476Y-100409761D02*
X149635238Y-100457380D01*
X149635238Y-100457380D02*
X149397143Y-100457380D01*
X149397143Y-100457380D02*
X149301905Y-100409761D01*
X149301905Y-100409761D02*
X149254286Y-100362142D01*
%TO.C,C1*%
X140228664Y-87297473D02*
X140181045Y-87345092D01*
X140181045Y-87345092D02*
X140038188Y-87392711D01*
X140038188Y-87392711D02*
X139942950Y-87392711D01*
X139942950Y-87392711D02*
X139800093Y-87345092D01*
X139800093Y-87345092D02*
X139704855Y-87249854D01*
X139704855Y-87249854D02*
X139657236Y-87154616D01*
X139657236Y-87154616D02*
X139609617Y-86964140D01*
X139609617Y-86964140D02*
X139609617Y-86821283D01*
X139609617Y-86821283D02*
X139657236Y-86630807D01*
X139657236Y-86630807D02*
X139704855Y-86535569D01*
X139704855Y-86535569D02*
X139800093Y-86440331D01*
X139800093Y-86440331D02*
X139942950Y-86392711D01*
X139942950Y-86392711D02*
X140038188Y-86392711D01*
X140038188Y-86392711D02*
X140181045Y-86440331D01*
X140181045Y-86440331D02*
X140228664Y-86487950D01*
X141181045Y-87392711D02*
X140609617Y-87392711D01*
X140895331Y-87392711D02*
X140895331Y-86392711D01*
X140895331Y-86392711D02*
X140800093Y-86535569D01*
X140800093Y-86535569D02*
X140704855Y-86630807D01*
X140704855Y-86630807D02*
X140609617Y-86678426D01*
%TO.C,R4*%
X145483333Y-103207380D02*
X145150000Y-102731190D01*
X144911905Y-103207380D02*
X144911905Y-102207380D01*
X144911905Y-102207380D02*
X145292857Y-102207380D01*
X145292857Y-102207380D02*
X145388095Y-102255000D01*
X145388095Y-102255000D02*
X145435714Y-102302619D01*
X145435714Y-102302619D02*
X145483333Y-102397857D01*
X145483333Y-102397857D02*
X145483333Y-102540714D01*
X145483333Y-102540714D02*
X145435714Y-102635952D01*
X145435714Y-102635952D02*
X145388095Y-102683571D01*
X145388095Y-102683571D02*
X145292857Y-102731190D01*
X145292857Y-102731190D02*
X144911905Y-102731190D01*
X146340476Y-102540714D02*
X146340476Y-103207380D01*
X146102381Y-102159761D02*
X145864286Y-102874047D01*
X145864286Y-102874047D02*
X146483333Y-102874047D01*
%TO.C,C14*%
X156107142Y-102642142D02*
X156059523Y-102689761D01*
X156059523Y-102689761D02*
X155916666Y-102737380D01*
X155916666Y-102737380D02*
X155821428Y-102737380D01*
X155821428Y-102737380D02*
X155678571Y-102689761D01*
X155678571Y-102689761D02*
X155583333Y-102594523D01*
X155583333Y-102594523D02*
X155535714Y-102499285D01*
X155535714Y-102499285D02*
X155488095Y-102308809D01*
X155488095Y-102308809D02*
X155488095Y-102165952D01*
X155488095Y-102165952D02*
X155535714Y-101975476D01*
X155535714Y-101975476D02*
X155583333Y-101880238D01*
X155583333Y-101880238D02*
X155678571Y-101785000D01*
X155678571Y-101785000D02*
X155821428Y-101737380D01*
X155821428Y-101737380D02*
X155916666Y-101737380D01*
X155916666Y-101737380D02*
X156059523Y-101785000D01*
X156059523Y-101785000D02*
X156107142Y-101832619D01*
X157059523Y-102737380D02*
X156488095Y-102737380D01*
X156773809Y-102737380D02*
X156773809Y-101737380D01*
X156773809Y-101737380D02*
X156678571Y-101880238D01*
X156678571Y-101880238D02*
X156583333Y-101975476D01*
X156583333Y-101975476D02*
X156488095Y-102023095D01*
X157916666Y-102070714D02*
X157916666Y-102737380D01*
X157678571Y-101689761D02*
X157440476Y-102404047D01*
X157440476Y-102404047D02*
X158059523Y-102404047D01*
%TO.C,C7*%
X133973333Y-101902142D02*
X133925714Y-101949761D01*
X133925714Y-101949761D02*
X133782857Y-101997380D01*
X133782857Y-101997380D02*
X133687619Y-101997380D01*
X133687619Y-101997380D02*
X133544762Y-101949761D01*
X133544762Y-101949761D02*
X133449524Y-101854523D01*
X133449524Y-101854523D02*
X133401905Y-101759285D01*
X133401905Y-101759285D02*
X133354286Y-101568809D01*
X133354286Y-101568809D02*
X133354286Y-101425952D01*
X133354286Y-101425952D02*
X133401905Y-101235476D01*
X133401905Y-101235476D02*
X133449524Y-101140238D01*
X133449524Y-101140238D02*
X133544762Y-101045000D01*
X133544762Y-101045000D02*
X133687619Y-100997380D01*
X133687619Y-100997380D02*
X133782857Y-100997380D01*
X133782857Y-100997380D02*
X133925714Y-101045000D01*
X133925714Y-101045000D02*
X133973333Y-101092619D01*
X134306667Y-100997380D02*
X134973333Y-100997380D01*
X134973333Y-100997380D02*
X134544762Y-101997380D01*
%TO.C,J4*%
X160366666Y-106107380D02*
X160366666Y-106821666D01*
X160366666Y-106821666D02*
X160319047Y-106964523D01*
X160319047Y-106964523D02*
X160223809Y-107059761D01*
X160223809Y-107059761D02*
X160080952Y-107107380D01*
X160080952Y-107107380D02*
X159985714Y-107107380D01*
X161271428Y-106440714D02*
X161271428Y-107107380D01*
X161033333Y-106059761D02*
X160795238Y-106774047D01*
X160795238Y-106774047D02*
X161414285Y-106774047D01*
%TO.C,R3*%
X160703333Y-86867380D02*
X160370000Y-86391190D01*
X160131905Y-86867380D02*
X160131905Y-85867380D01*
X160131905Y-85867380D02*
X160512857Y-85867380D01*
X160512857Y-85867380D02*
X160608095Y-85915000D01*
X160608095Y-85915000D02*
X160655714Y-85962619D01*
X160655714Y-85962619D02*
X160703333Y-86057857D01*
X160703333Y-86057857D02*
X160703333Y-86200714D01*
X160703333Y-86200714D02*
X160655714Y-86295952D01*
X160655714Y-86295952D02*
X160608095Y-86343571D01*
X160608095Y-86343571D02*
X160512857Y-86391190D01*
X160512857Y-86391190D02*
X160131905Y-86391190D01*
X161036667Y-85867380D02*
X161655714Y-85867380D01*
X161655714Y-85867380D02*
X161322381Y-86248333D01*
X161322381Y-86248333D02*
X161465238Y-86248333D01*
X161465238Y-86248333D02*
X161560476Y-86295952D01*
X161560476Y-86295952D02*
X161608095Y-86343571D01*
X161608095Y-86343571D02*
X161655714Y-86438809D01*
X161655714Y-86438809D02*
X161655714Y-86676904D01*
X161655714Y-86676904D02*
X161608095Y-86772142D01*
X161608095Y-86772142D02*
X161560476Y-86819761D01*
X161560476Y-86819761D02*
X161465238Y-86867380D01*
X161465238Y-86867380D02*
X161179524Y-86867380D01*
X161179524Y-86867380D02*
X161084286Y-86819761D01*
X161084286Y-86819761D02*
X161036667Y-86772142D01*
%TO.C,C11*%
X130127142Y-94362142D02*
X130079523Y-94409761D01*
X130079523Y-94409761D02*
X129936666Y-94457380D01*
X129936666Y-94457380D02*
X129841428Y-94457380D01*
X129841428Y-94457380D02*
X129698571Y-94409761D01*
X129698571Y-94409761D02*
X129603333Y-94314523D01*
X129603333Y-94314523D02*
X129555714Y-94219285D01*
X129555714Y-94219285D02*
X129508095Y-94028809D01*
X129508095Y-94028809D02*
X129508095Y-93885952D01*
X129508095Y-93885952D02*
X129555714Y-93695476D01*
X129555714Y-93695476D02*
X129603333Y-93600238D01*
X129603333Y-93600238D02*
X129698571Y-93505000D01*
X129698571Y-93505000D02*
X129841428Y-93457380D01*
X129841428Y-93457380D02*
X129936666Y-93457380D01*
X129936666Y-93457380D02*
X130079523Y-93505000D01*
X130079523Y-93505000D02*
X130127142Y-93552619D01*
X131079523Y-94457380D02*
X130508095Y-94457380D01*
X130793809Y-94457380D02*
X130793809Y-93457380D01*
X130793809Y-93457380D02*
X130698571Y-93600238D01*
X130698571Y-93600238D02*
X130603333Y-93695476D01*
X130603333Y-93695476D02*
X130508095Y-93743095D01*
X132031904Y-94457380D02*
X131460476Y-94457380D01*
X131746190Y-94457380D02*
X131746190Y-93457380D01*
X131746190Y-93457380D02*
X131650952Y-93600238D01*
X131650952Y-93600238D02*
X131555714Y-93695476D01*
X131555714Y-93695476D02*
X131460476Y-93743095D01*
%TO.C,C8*%
X132033333Y-101882142D02*
X131985714Y-101929761D01*
X131985714Y-101929761D02*
X131842857Y-101977380D01*
X131842857Y-101977380D02*
X131747619Y-101977380D01*
X131747619Y-101977380D02*
X131604762Y-101929761D01*
X131604762Y-101929761D02*
X131509524Y-101834523D01*
X131509524Y-101834523D02*
X131461905Y-101739285D01*
X131461905Y-101739285D02*
X131414286Y-101548809D01*
X131414286Y-101548809D02*
X131414286Y-101405952D01*
X131414286Y-101405952D02*
X131461905Y-101215476D01*
X131461905Y-101215476D02*
X131509524Y-101120238D01*
X131509524Y-101120238D02*
X131604762Y-101025000D01*
X131604762Y-101025000D02*
X131747619Y-100977380D01*
X131747619Y-100977380D02*
X131842857Y-100977380D01*
X131842857Y-100977380D02*
X131985714Y-101025000D01*
X131985714Y-101025000D02*
X132033333Y-101072619D01*
X132604762Y-101405952D02*
X132509524Y-101358333D01*
X132509524Y-101358333D02*
X132461905Y-101310714D01*
X132461905Y-101310714D02*
X132414286Y-101215476D01*
X132414286Y-101215476D02*
X132414286Y-101167857D01*
X132414286Y-101167857D02*
X132461905Y-101072619D01*
X132461905Y-101072619D02*
X132509524Y-101025000D01*
X132509524Y-101025000D02*
X132604762Y-100977380D01*
X132604762Y-100977380D02*
X132795238Y-100977380D01*
X132795238Y-100977380D02*
X132890476Y-101025000D01*
X132890476Y-101025000D02*
X132938095Y-101072619D01*
X132938095Y-101072619D02*
X132985714Y-101167857D01*
X132985714Y-101167857D02*
X132985714Y-101215476D01*
X132985714Y-101215476D02*
X132938095Y-101310714D01*
X132938095Y-101310714D02*
X132890476Y-101358333D01*
X132890476Y-101358333D02*
X132795238Y-101405952D01*
X132795238Y-101405952D02*
X132604762Y-101405952D01*
X132604762Y-101405952D02*
X132509524Y-101453571D01*
X132509524Y-101453571D02*
X132461905Y-101501190D01*
X132461905Y-101501190D02*
X132414286Y-101596428D01*
X132414286Y-101596428D02*
X132414286Y-101786904D01*
X132414286Y-101786904D02*
X132461905Y-101882142D01*
X132461905Y-101882142D02*
X132509524Y-101929761D01*
X132509524Y-101929761D02*
X132604762Y-101977380D01*
X132604762Y-101977380D02*
X132795238Y-101977380D01*
X132795238Y-101977380D02*
X132890476Y-101929761D01*
X132890476Y-101929761D02*
X132938095Y-101882142D01*
X132938095Y-101882142D02*
X132985714Y-101786904D01*
X132985714Y-101786904D02*
X132985714Y-101596428D01*
X132985714Y-101596428D02*
X132938095Y-101501190D01*
X132938095Y-101501190D02*
X132890476Y-101453571D01*
X132890476Y-101453571D02*
X132795238Y-101405952D01*
%TO.C,J2*%
X143306666Y-81427380D02*
X143306666Y-82141666D01*
X143306666Y-82141666D02*
X143259047Y-82284523D01*
X143259047Y-82284523D02*
X143163809Y-82379761D01*
X143163809Y-82379761D02*
X143020952Y-82427380D01*
X143020952Y-82427380D02*
X142925714Y-82427380D01*
X143735238Y-81522619D02*
X143782857Y-81475000D01*
X143782857Y-81475000D02*
X143878095Y-81427380D01*
X143878095Y-81427380D02*
X144116190Y-81427380D01*
X144116190Y-81427380D02*
X144211428Y-81475000D01*
X144211428Y-81475000D02*
X144259047Y-81522619D01*
X144259047Y-81522619D02*
X144306666Y-81617857D01*
X144306666Y-81617857D02*
X144306666Y-81713095D01*
X144306666Y-81713095D02*
X144259047Y-81855952D01*
X144259047Y-81855952D02*
X143687619Y-82427380D01*
X143687619Y-82427380D02*
X144306666Y-82427380D01*
D15*
%TO.C,J5*%
X146000000Y-84300000D02*
X146000000Y-82970000D01*
X147330000Y-84300000D02*
X146000000Y-84300000D01*
X148600000Y-84300000D02*
X156280000Y-84300000D01*
X148600000Y-84300000D02*
X148600000Y-81640000D01*
X156280000Y-84300000D02*
X156280000Y-81640000D01*
X148600000Y-81640000D02*
X156280000Y-81640000D01*
%TO.C,J3*%
X166450000Y-105570000D02*
X165120000Y-105570000D01*
X166450000Y-104240000D02*
X166450000Y-105570000D01*
X166450000Y-102970000D02*
X166450000Y-95290000D01*
X166450000Y-102970000D02*
X163790000Y-102970000D01*
X166450000Y-95290000D02*
X163790000Y-95290000D01*
X163790000Y-102970000D02*
X163790000Y-95290000D01*
%TO.C,C13*%
X160938748Y-90645000D02*
X161461252Y-90645000D01*
X160938748Y-92115000D02*
X161461252Y-92115000D01*
%TO.C,C4*%
X148010000Y-98082164D02*
X148010000Y-98297836D01*
X147290000Y-98082164D02*
X147290000Y-98297836D01*
%TO.C,U2*%
X161100000Y-100270000D02*
X155090000Y-100270000D01*
X158850000Y-93450000D02*
X155090000Y-93450000D01*
X155090000Y-100270000D02*
X155090000Y-99010000D01*
X155090000Y-93450000D02*
X155090000Y-94710000D01*
%TO.C,Y1*%
X129720000Y-96660000D02*
X129720000Y-99960000D01*
X129720000Y-99960000D02*
X133720000Y-99960000D01*
%TO.C,SW1*%
X123385000Y-83750000D02*
X122595000Y-83750000D01*
X121585000Y-84350000D02*
X121585000Y-90050000D01*
X124435000Y-85600000D02*
X124435000Y-87300000D01*
X124435000Y-88600000D02*
X124435000Y-88800000D01*
X122595000Y-90650000D02*
X123385000Y-90650000D01*
%TO.C,G\u002A\u002A\u002A*%
G36*
X122770029Y-97709366D02*
G01*
X122778284Y-97714458D01*
X122829387Y-97771985D01*
X122837646Y-97840497D01*
X122801774Y-97905613D01*
X122795881Y-97911229D01*
X122726088Y-97948118D01*
X122657384Y-97939451D01*
X122604859Y-97891560D01*
X122579561Y-97818873D01*
X122593266Y-97754265D01*
X122636137Y-97707780D01*
X122698337Y-97689465D01*
X122770029Y-97709366D01*
G37*
G36*
X124780848Y-99444818D02*
G01*
X124827339Y-99499323D01*
X124843457Y-99569682D01*
X124826031Y-99635321D01*
X124812778Y-99652043D01*
X124753001Y-99680954D01*
X124681912Y-99675235D01*
X124620022Y-99638064D01*
X124605428Y-99619922D01*
X124579445Y-99571955D01*
X124583346Y-99534105D01*
X124606299Y-99495053D01*
X124660518Y-99433162D01*
X124716402Y-99417661D01*
X124780848Y-99444818D01*
G37*
G36*
X125386008Y-103514787D02*
G01*
X125381118Y-103611639D01*
X125368534Y-103726003D01*
X125357029Y-103798931D01*
X125337994Y-103887065D01*
X125318738Y-103935745D01*
X125294611Y-103954735D01*
X125282129Y-103956206D01*
X125238744Y-103941835D01*
X125226263Y-103925321D01*
X125202736Y-103831075D01*
X125182028Y-103711887D01*
X125167830Y-103592225D01*
X125163634Y-103510243D01*
X125163634Y-103387918D01*
X125274821Y-103387918D01*
X125386008Y-103387918D01*
X125386008Y-103514787D01*
G37*
G36*
X122371611Y-105438696D02*
G01*
X122371611Y-105784611D01*
X122680463Y-105784611D01*
X122989315Y-105784611D01*
X122989315Y-105858735D01*
X122989315Y-105932860D01*
X122632505Y-105932860D01*
X122504890Y-105931594D01*
X122395771Y-105928115D01*
X122314244Y-105922898D01*
X122269404Y-105916418D01*
X122263782Y-105913585D01*
X122256163Y-105875631D01*
X122250507Y-105791867D01*
X122246924Y-105665862D01*
X122245521Y-105501188D01*
X122246124Y-105333687D01*
X122247431Y-105223242D01*
X122250805Y-105153076D01*
X122258663Y-105114053D01*
X122273419Y-105097034D01*
X122297492Y-105092885D01*
X122309841Y-105092782D01*
X122371611Y-105092782D01*
X122371611Y-105438696D01*
G37*
G36*
X124131141Y-103616469D02*
G01*
X124138245Y-103845019D01*
X124385327Y-103845019D01*
X124632409Y-103845019D01*
X124639513Y-103616469D01*
X124646617Y-103387918D01*
X124793939Y-103387918D01*
X124941261Y-103387918D01*
X124941261Y-104005622D01*
X124941261Y-104623327D01*
X124793907Y-104623327D01*
X124646552Y-104623327D01*
X124639480Y-104382422D01*
X124632409Y-104141517D01*
X124385327Y-104141517D01*
X124138245Y-104141517D01*
X124131174Y-104382422D01*
X124124102Y-104623327D01*
X123976747Y-104623327D01*
X123829393Y-104623327D01*
X123829393Y-104005622D01*
X123829393Y-103387918D01*
X123976715Y-103387918D01*
X124124037Y-103387918D01*
X124131141Y-103616469D01*
G37*
G36*
X122097982Y-103390849D02*
G01*
X122154515Y-103398503D01*
X122173946Y-103408311D01*
X122162676Y-103435633D01*
X122131394Y-103498908D01*
X122083895Y-103590786D01*
X122023972Y-103703914D01*
X121963926Y-103815298D01*
X121753907Y-104201891D01*
X121753907Y-104412609D01*
X121753907Y-104623327D01*
X121605658Y-104623327D01*
X121457409Y-104623327D01*
X121457409Y-104424514D01*
X121457409Y-104225701D01*
X121244225Y-103825341D01*
X121175860Y-103697029D01*
X121115410Y-103583716D01*
X121066745Y-103492645D01*
X121033734Y-103431059D01*
X121020393Y-103406449D01*
X121037402Y-103397320D01*
X121092187Y-103390846D01*
X121173127Y-103388361D01*
X121177984Y-103388367D01*
X121346222Y-103388815D01*
X121464299Y-103610740D01*
X121515366Y-103703496D01*
X121559222Y-103777221D01*
X121590161Y-103822654D01*
X121601011Y-103832665D01*
X121619814Y-103812307D01*
X121655780Y-103757364D01*
X121703152Y-103677029D01*
X121740192Y-103610292D01*
X121860736Y-103387918D01*
X122017341Y-103387918D01*
X122097982Y-103390849D01*
G37*
G36*
X124032575Y-105407811D02*
G01*
X124039413Y-105772257D01*
X124237078Y-105772257D01*
X124434743Y-105772257D01*
X124442281Y-105640533D01*
X124442011Y-105541922D01*
X124421702Y-105481381D01*
X124372807Y-105450104D01*
X124286777Y-105439282D01*
X124246407Y-105438696D01*
X124165280Y-105437308D01*
X124121843Y-105429848D01*
X124104382Y-105411371D01*
X124101183Y-105377397D01*
X124116115Y-105325337D01*
X124164705Y-105300154D01*
X124245807Y-105292930D01*
X124345388Y-105301166D01*
X124439595Y-105321605D01*
X124496607Y-105345494D01*
X124546841Y-105402976D01*
X124578420Y-105491924D01*
X124591029Y-105597919D01*
X124584351Y-105706541D01*
X124558072Y-105803368D01*
X124511876Y-105873982D01*
X124508239Y-105877266D01*
X124469504Y-105905327D01*
X124423941Y-105922108D01*
X124358149Y-105930356D01*
X124258730Y-105932819D01*
X124237078Y-105932860D01*
X124131275Y-105931250D01*
X124061098Y-105924446D01*
X124012804Y-105909489D01*
X123972653Y-105883419D01*
X123960489Y-105873287D01*
X123891164Y-105813714D01*
X123883247Y-105428540D01*
X123875331Y-105043366D01*
X123950534Y-105043366D01*
X124025737Y-105043366D01*
X124032575Y-105407811D01*
G37*
G36*
X125077156Y-105294899D02*
G01*
X125159589Y-105300780D01*
X125204883Y-105311188D01*
X125225291Y-105332081D01*
X125233068Y-105369414D01*
X125233223Y-105370749D01*
X125241041Y-105438696D01*
X125041735Y-105438696D01*
X124939834Y-105440419D01*
X124878511Y-105446670D01*
X124849015Y-105459079D01*
X124842428Y-105475759D01*
X124854909Y-105498380D01*
X124898546Y-105509860D01*
X124974636Y-105512821D01*
X125116091Y-105522296D01*
X125215885Y-105552725D01*
X125278402Y-105607114D01*
X125308023Y-105688467D01*
X125311883Y-105744131D01*
X125297273Y-105822851D01*
X125246781Y-105881650D01*
X125209392Y-105905828D01*
X125163857Y-105921078D01*
X125098422Y-105929337D01*
X125001330Y-105932544D01*
X124936288Y-105932860D01*
X124690897Y-105932860D01*
X124698715Y-105864912D01*
X124704023Y-105832691D01*
X124717479Y-105812357D01*
X124748924Y-105800693D01*
X124808201Y-105794482D01*
X124905151Y-105790509D01*
X124928721Y-105789738D01*
X125054475Y-105782908D01*
X125135414Y-105771004D01*
X125176025Y-105752303D01*
X125180793Y-105725081D01*
X125164503Y-105699179D01*
X125126230Y-105675937D01*
X125054488Y-105663833D01*
X124967251Y-105661070D01*
X124872998Y-105658498D01*
X124812809Y-105648141D01*
X124771480Y-105626033D01*
X124747902Y-105603884D01*
X124703683Y-105539375D01*
X124698934Y-105472001D01*
X124722957Y-105402569D01*
X124776877Y-105343080D01*
X124872753Y-105306410D01*
X125008365Y-105293236D01*
X125077156Y-105294899D01*
G37*
G36*
X123497633Y-105296063D02*
G01*
X123610422Y-105321725D01*
X123692235Y-105373508D01*
X123696259Y-105377440D01*
X123729247Y-105417951D01*
X123747214Y-105466285D01*
X123754388Y-105538370D01*
X123755269Y-105599801D01*
X123747470Y-105729603D01*
X123721978Y-105821977D01*
X123675649Y-105886724D01*
X123658577Y-105901189D01*
X123614447Y-105915727D01*
X123536065Y-105925385D01*
X123438374Y-105929956D01*
X123336317Y-105929232D01*
X123244836Y-105923006D01*
X123178876Y-105911069D01*
X123170065Y-105907979D01*
X123102717Y-105857566D01*
X123069120Y-105782357D01*
X123071227Y-105695386D01*
X123110992Y-105609686D01*
X123123070Y-105594500D01*
X123159633Y-105557270D01*
X123198759Y-105536410D01*
X123255800Y-105527265D01*
X123346110Y-105525178D01*
X123351620Y-105525175D01*
X123440780Y-105526091D01*
X123491949Y-105531767D01*
X123516554Y-105546595D01*
X123526019Y-105574969D01*
X123528359Y-105593122D01*
X123530543Y-105630861D01*
X123518608Y-105651156D01*
X123481483Y-105659420D01*
X123408098Y-105661060D01*
X123389313Y-105661070D01*
X123281887Y-105668102D01*
X123220852Y-105689335D01*
X123212587Y-105697050D01*
X123192752Y-105735796D01*
X123210785Y-105762274D01*
X123270030Y-105777954D01*
X123373831Y-105784304D01*
X123411941Y-105784611D01*
X123609277Y-105784611D01*
X123601971Y-105617831D01*
X123594666Y-105451050D01*
X123401639Y-105443806D01*
X123208612Y-105436562D01*
X123216328Y-105369682D01*
X123225421Y-105329542D01*
X123249666Y-105308342D01*
X123302568Y-105298398D01*
X123347518Y-105295021D01*
X123497633Y-105296063D01*
G37*
G36*
X122476294Y-103392916D02*
G01*
X122630394Y-103400272D01*
X122780222Y-103645712D01*
X122841247Y-103743132D01*
X122894653Y-103823692D01*
X122934446Y-103878652D01*
X122954026Y-103899145D01*
X122975166Y-103882301D01*
X123015335Y-103830538D01*
X123068886Y-103751751D01*
X123130171Y-103653837D01*
X123133970Y-103647527D01*
X123289938Y-103387918D01*
X123436125Y-103387918D01*
X123582311Y-103387918D01*
X123582311Y-104004164D01*
X123581600Y-104173317D01*
X123579598Y-104325339D01*
X123576506Y-104453498D01*
X123572524Y-104551060D01*
X123567852Y-104611291D01*
X123563780Y-104628063D01*
X123529957Y-104631117D01*
X123465331Y-104630134D01*
X123427885Y-104628167D01*
X123381616Y-104626188D01*
X123348868Y-104622266D01*
X123327206Y-104609039D01*
X123314195Y-104579145D01*
X123307401Y-104525220D01*
X123304391Y-104439903D01*
X123302728Y-104315830D01*
X123301793Y-104246807D01*
X123297823Y-104139903D01*
X123290154Y-104057819D01*
X123279900Y-104010239D01*
X123273689Y-104002303D01*
X123251306Y-104020445D01*
X123210854Y-104072419D01*
X123158948Y-104149248D01*
X123123652Y-104205865D01*
X123066224Y-104295364D01*
X123014060Y-104367082D01*
X122974541Y-104411327D01*
X122960026Y-104420644D01*
X122927020Y-104402480D01*
X122875495Y-104339295D01*
X122805923Y-104231687D01*
X122789624Y-104204448D01*
X122733398Y-104112384D01*
X122685141Y-104038738D01*
X122650884Y-103992400D01*
X122637991Y-103980914D01*
X122630812Y-104004091D01*
X122624844Y-104067507D01*
X122620638Y-104161988D01*
X122618745Y-104278360D01*
X122618693Y-104302120D01*
X122618693Y-104623327D01*
X122470444Y-104623327D01*
X122322195Y-104623327D01*
X122322195Y-104004443D01*
X122322195Y-103385560D01*
X122476294Y-103392916D01*
G37*
G36*
X126035357Y-103372884D02*
G01*
X126165543Y-103410782D01*
X126275196Y-103477323D01*
X126320683Y-103524041D01*
X126362359Y-103587180D01*
X126366773Y-103633831D01*
X126330658Y-103675687D01*
X126267174Y-103715376D01*
X126160013Y-103775270D01*
X126092839Y-103717489D01*
X126018375Y-103674339D01*
X125940163Y-103661220D01*
X125874820Y-103679607D01*
X125855724Y-103696456D01*
X125834967Y-103742052D01*
X125855545Y-103783506D01*
X125920348Y-103824076D01*
X125995834Y-103854506D01*
X126142113Y-103912272D01*
X126248848Y-103968474D01*
X126325375Y-104028802D01*
X126370344Y-104082732D01*
X126404811Y-104142838D01*
X126419608Y-104205054D01*
X126419325Y-104290906D01*
X126418251Y-104307372D01*
X126398441Y-104427996D01*
X126360471Y-104502349D01*
X126264598Y-104576292D01*
X126139032Y-104625183D01*
X125997805Y-104646996D01*
X125854947Y-104639708D01*
X125724491Y-104601290D01*
X125713002Y-104595824D01*
X125620566Y-104537654D01*
X125550566Y-104469626D01*
X125513134Y-104402561D01*
X125509549Y-104378574D01*
X125529831Y-104344115D01*
X125581893Y-104301130D01*
X125620653Y-104277457D01*
X125731757Y-104216764D01*
X125768979Y-104269906D01*
X125826742Y-104323837D01*
X125900762Y-104355473D01*
X125979218Y-104365302D01*
X126050293Y-104353809D01*
X126102169Y-104321483D01*
X126123027Y-104268810D01*
X126122376Y-104255345D01*
X126112478Y-104219837D01*
X126085681Y-104191758D01*
X126031867Y-104164191D01*
X125940920Y-104130216D01*
X125937770Y-104129116D01*
X125784839Y-104066919D01*
X125674768Y-104000435D01*
X125601002Y-103924972D01*
X125567406Y-103864172D01*
X125543592Y-103747563D01*
X125562157Y-103629216D01*
X125617934Y-103520861D01*
X125705757Y-103434229D01*
X125773214Y-103396913D01*
X125899595Y-103367103D01*
X126035357Y-103372884D01*
G37*
G36*
X121605658Y-97874244D02*
G01*
X122176314Y-97874244D01*
X122216020Y-98019769D01*
X122297750Y-98153663D01*
X122381155Y-98237918D01*
X122495152Y-98333208D01*
X122495152Y-100053429D01*
X122495396Y-100340609D01*
X122496101Y-100613266D01*
X122497228Y-100867382D01*
X122498735Y-101098938D01*
X122500582Y-101303918D01*
X122502730Y-101478302D01*
X122505137Y-101618072D01*
X122507764Y-101719211D01*
X122510570Y-101777699D01*
X122512572Y-101791071D01*
X122544070Y-101798564D01*
X122611342Y-101802402D01*
X122700836Y-101801899D01*
X122716415Y-101801366D01*
X122902837Y-101794241D01*
X122905954Y-100941809D01*
X123507927Y-100941809D01*
X123705464Y-100941809D01*
X123903002Y-100941809D01*
X123907150Y-99491904D01*
X124179590Y-99491904D01*
X124181373Y-99631767D01*
X124220958Y-99762296D01*
X124292548Y-99878064D01*
X124390347Y-99973646D01*
X124508560Y-100043616D01*
X124641392Y-100082546D01*
X124783045Y-100085011D01*
X124927725Y-100045586D01*
X124953615Y-100033634D01*
X125077137Y-99948617D01*
X125167266Y-99837367D01*
X125223719Y-99708499D01*
X125246209Y-99570629D01*
X125234453Y-99432373D01*
X125188167Y-99302346D01*
X125107066Y-99189163D01*
X124990866Y-99101439D01*
X124984500Y-99098068D01*
X124916553Y-99062719D01*
X124916553Y-97321428D01*
X124916553Y-95580136D01*
X124718887Y-95580136D01*
X124521222Y-95580136D01*
X124521222Y-97322062D01*
X124520874Y-97700738D01*
X124519835Y-98034324D01*
X124518114Y-98322245D01*
X124515717Y-98563929D01*
X124512655Y-98758802D01*
X124508934Y-98906292D01*
X124504563Y-99005825D01*
X124499550Y-99056827D01*
X124496585Y-99063988D01*
X124456140Y-99082281D01*
X124398213Y-99129583D01*
X124333813Y-99194524D01*
X124273950Y-99265738D01*
X124229631Y-99331856D01*
X124221405Y-99348132D01*
X124179590Y-99491904D01*
X123907150Y-99491904D01*
X123909437Y-98692284D01*
X123910524Y-98308146D01*
X123911410Y-97970417D01*
X123912036Y-97676090D01*
X123912344Y-97422159D01*
X123912275Y-97205616D01*
X123911771Y-97023455D01*
X123910774Y-96872669D01*
X123909224Y-96750250D01*
X123907064Y-96653191D01*
X123904234Y-96578487D01*
X123900677Y-96523129D01*
X123896334Y-96484112D01*
X123891145Y-96458427D01*
X123885054Y-96443068D01*
X123878001Y-96435029D01*
X123869928Y-96431302D01*
X123865426Y-96430100D01*
X123813700Y-96424416D01*
X123733103Y-96423017D01*
X123667760Y-96425004D01*
X123520541Y-96432568D01*
X123514234Y-98687189D01*
X123507927Y-100941809D01*
X122905954Y-100941809D01*
X122909180Y-100059564D01*
X122915524Y-98324888D01*
X123024101Y-98250185D01*
X123135351Y-98146342D01*
X123205466Y-98015767D01*
X123234921Y-97857485D01*
X123235991Y-97814602D01*
X123214757Y-97661114D01*
X123156777Y-97531879D01*
X123069263Y-97428572D01*
X122959426Y-97352865D01*
X122834476Y-97306434D01*
X122701626Y-97290953D01*
X122568085Y-97308097D01*
X122441065Y-97359538D01*
X122327777Y-97446952D01*
X122235433Y-97572013D01*
X122230503Y-97581151D01*
X122180514Y-97725300D01*
X122176314Y-97874244D01*
X121605658Y-97874244D01*
X121605658Y-94987140D01*
X123755348Y-94987140D01*
X125905037Y-94987140D01*
X125898781Y-98761313D01*
X125892525Y-102535486D01*
X123749092Y-102541800D01*
X121605658Y-102548113D01*
X121605658Y-98767627D01*
X121605658Y-97874244D01*
G37*
%TO.C,C3*%
X148912164Y-88870000D02*
X149127836Y-88870000D01*
X148912164Y-89590000D02*
X149127836Y-89590000D01*
%TO.C,C9*%
X130405000Y-103170336D02*
X130405000Y-102954664D01*
X131125000Y-103170336D02*
X131125000Y-102954664D01*
%TO.C,R1*%
X133040000Y-88956359D02*
X133040000Y-89263641D01*
X132280000Y-88956359D02*
X132280000Y-89263641D01*
%TO.C,D1*%
X159125000Y-90185000D02*
X157655000Y-90185000D01*
X157655000Y-90185000D02*
X157655000Y-92470000D01*
X159125000Y-92470000D02*
X159125000Y-90185000D01*
%TO.C,U1*%
X139200000Y-89420000D02*
X139200000Y-89870000D01*
X139200000Y-89870000D02*
X137910000Y-89870000D01*
X139200000Y-96640000D02*
X139200000Y-96190000D01*
X139650000Y-89420000D02*
X139200000Y-89420000D01*
X139650000Y-96640000D02*
X139200000Y-96640000D01*
X145970000Y-89420000D02*
X146420000Y-89420000D01*
X145970000Y-96640000D02*
X146420000Y-96640000D01*
X146420000Y-89420000D02*
X146420000Y-89870000D01*
X146420000Y-96640000D02*
X146420000Y-96190000D01*
%TO.C,C12*%
X133360000Y-94572164D02*
X133360000Y-94787836D01*
X132640000Y-94572164D02*
X132640000Y-94787836D01*
%TO.C,FB1*%
X132215279Y-105432500D02*
X131889721Y-105432500D01*
X132215279Y-104412500D02*
X131889721Y-104412500D01*
%TO.C,C5*%
X135050000Y-88387836D02*
X135050000Y-88172164D01*
X135770000Y-88387836D02*
X135770000Y-88172164D01*
%TO.C,C6*%
X136660000Y-88015580D02*
X136660000Y-87734420D01*
X137680000Y-88015580D02*
X137680000Y-87734420D01*
%TO.C,C10*%
X135450000Y-94032164D02*
X135450000Y-94247836D01*
X134730000Y-94032164D02*
X134730000Y-94247836D01*
%TO.C,R2*%
X151350000Y-89366359D02*
X151350000Y-89673641D01*
X150590000Y-89366359D02*
X150590000Y-89673641D01*
%TO.C,J6*%
X163010000Y-77220000D02*
X163010000Y-78550000D01*
X161680000Y-77220000D02*
X163010000Y-77220000D01*
X160410000Y-77220000D02*
X127330000Y-77220000D01*
X160410000Y-77220000D02*
X160410000Y-79880000D01*
X127330000Y-77220000D02*
X127330000Y-79880000D01*
X160410000Y-79880000D02*
X127330000Y-79880000D01*
D14*
%TO.C,J1*%
X165775331Y-93030331D02*
X167175331Y-93030331D01*
X169575331Y-93030331D02*
X169725331Y-93030331D01*
X169725331Y-93030331D02*
X169725331Y-92730331D01*
X169725331Y-92730331D02*
X170175331Y-92730331D01*
X163600331Y-90680331D02*
X164025331Y-90680331D01*
X164025331Y-90680331D02*
X164025331Y-91680331D01*
X163600331Y-89955331D02*
X163600331Y-90680331D01*
X164025331Y-87080331D02*
X164025331Y-86080331D01*
X169725331Y-85030331D02*
X169725331Y-84730331D01*
X170175331Y-85030331D02*
X169725331Y-85030331D01*
X167175331Y-84730331D02*
X165775331Y-84730331D01*
X169725331Y-84730331D02*
X169575331Y-84730331D01*
D15*
%TO.C,R5*%
X148620000Y-101813641D02*
X148620000Y-101506359D01*
X149380000Y-101813641D02*
X149380000Y-101506359D01*
%TO.C,C1*%
X138680000Y-87587836D02*
X138680000Y-87372164D01*
X139400000Y-87587836D02*
X139400000Y-87372164D01*
%TO.C,R4*%
X146020000Y-100886359D02*
X146020000Y-101193641D01*
X145260000Y-100886359D02*
X145260000Y-101193641D01*
%TO.C,C14*%
X153198748Y-101095000D02*
X153721252Y-101095000D01*
X153198748Y-102565000D02*
X153721252Y-102565000D01*
%TO.C,C7*%
X133125000Y-103180336D02*
X133125000Y-102964664D01*
X133845000Y-103180336D02*
X133845000Y-102964664D01*
%TO.C,J4*%
X127600000Y-110690000D02*
X127600000Y-109360000D01*
X128930000Y-110690000D02*
X127600000Y-110690000D01*
X130200000Y-110690000D02*
X163280000Y-110690000D01*
X130200000Y-110690000D02*
X130200000Y-108030000D01*
X163280000Y-110690000D02*
X163280000Y-108030000D01*
X130200000Y-108030000D02*
X163280000Y-108030000D01*
%TO.C,R3*%
X160963641Y-87990000D02*
X160656359Y-87990000D01*
X160963641Y-87230000D02*
X160656359Y-87230000D01*
%TO.C,C11*%
X130652164Y-94850000D02*
X130867836Y-94850000D01*
X130652164Y-95570000D02*
X130867836Y-95570000D01*
%TO.C,C8*%
X131875000Y-103170336D02*
X131875000Y-102954664D01*
X132595000Y-103170336D02*
X132595000Y-102954664D01*
%TO.C,J2*%
X142160000Y-81570000D02*
X142160000Y-82900000D01*
X140830000Y-81570000D02*
X142160000Y-81570000D01*
X139560000Y-81570000D02*
X131880000Y-81570000D01*
X139560000Y-81570000D02*
X139560000Y-84230000D01*
X131880000Y-81570000D02*
X131880000Y-84230000D01*
X139560000Y-84230000D02*
X131880000Y-84230000D01*
%TD*%
M02*
