%TF.GenerationSoftware,KiCad,Pcbnew,(7.0.0)*%
%TF.CreationDate,2023-02-16T03:23:41+08:00*%
%TF.ProjectId,STM32F103C8T6_BreakOut_Board,53544d33-3246-4313-9033-433854365f42,rev?*%
%TF.SameCoordinates,Original*%
%TF.FileFunction,Paste,Top*%
%TF.FilePolarity,Positive*%
%FSLAX46Y46*%
G04 Gerber Fmt 4.6, Leading zero omitted, Abs format (unit mm)*
G04 Created by KiCad (PCBNEW (7.0.0)) date 2023-02-16 03:23:41*
%MOMM*%
%LPD*%
G01*
G04 APERTURE LIST*
G04 Aperture macros list*
%AMRoundRect*
0 Rectangle with rounded corners*
0 $1 Rounding radius*
0 $2 $3 $4 $5 $6 $7 $8 $9 X,Y pos of 4 corners*
0 Add a 4 corners polygon primitive as box body*
4,1,4,$2,$3,$4,$5,$6,$7,$8,$9,$2,$3,0*
0 Add four circle primitives for the rounded corners*
1,1,$1+$1,$2,$3*
1,1,$1+$1,$4,$5*
1,1,$1+$1,$6,$7*
1,1,$1+$1,$8,$9*
0 Add four rect primitives between the rounded corners*
20,1,$1+$1,$2,$3,$4,$5,0*
20,1,$1+$1,$4,$5,$6,$7,0*
20,1,$1+$1,$6,$7,$8,$9,0*
20,1,$1+$1,$8,$9,$2,$3,0*%
G04 Aperture macros list end*
%ADD10RoundRect,0.250000X-0.250000X-0.475000X0.250000X-0.475000X0.250000X0.475000X-0.250000X0.475000X0*%
%ADD11RoundRect,0.140000X-0.170000X0.140000X-0.170000X-0.140000X0.170000X-0.140000X0.170000X0.140000X0*%
%ADD12R,2.000000X1.500000*%
%ADD13R,2.000000X3.800000*%
%ADD14R,1.400000X1.200000*%
%ADD15R,0.800000X1.000000*%
%ADD16R,1.500000X0.700000*%
%ADD17RoundRect,0.140000X-0.140000X-0.170000X0.140000X-0.170000X0.140000X0.170000X-0.140000X0.170000X0*%
%ADD18RoundRect,0.140000X0.170000X-0.140000X0.170000X0.140000X-0.170000X0.140000X-0.170000X-0.140000X0*%
%ADD19RoundRect,0.135000X-0.185000X0.135000X-0.185000X-0.135000X0.185000X-0.135000X0.185000X0.135000X0*%
%ADD20RoundRect,0.218750X-0.256250X0.218750X-0.256250X-0.218750X0.256250X-0.218750X0.256250X0.218750X0*%
%ADD21RoundRect,0.075000X-0.662500X-0.075000X0.662500X-0.075000X0.662500X0.075000X-0.662500X0.075000X0*%
%ADD22RoundRect,0.075000X-0.075000X-0.662500X0.075000X-0.662500X0.075000X0.662500X-0.075000X0.662500X0*%
%ADD23RoundRect,0.218750X0.218750X0.256250X-0.218750X0.256250X-0.218750X-0.256250X0.218750X-0.256250X0*%
%ADD24RoundRect,0.225000X0.250000X-0.225000X0.250000X0.225000X-0.250000X0.225000X-0.250000X-0.225000X0*%
%ADD25R,1.300000X0.450000*%
%ADD26RoundRect,0.135000X0.185000X-0.135000X0.185000X0.135000X-0.185000X0.135000X-0.185000X-0.135000X0*%
%ADD27RoundRect,0.135000X0.135000X0.185000X-0.135000X0.185000X-0.135000X-0.185000X0.135000X-0.185000X0*%
G04 APERTURE END LIST*
D10*
%TO.C,C13*%
X160250000Y-91380000D03*
X162150000Y-91380000D03*
%TD*%
D11*
%TO.C,C4*%
X147650000Y-97710000D03*
X147650000Y-98670000D03*
%TD*%
D12*
%TO.C,U2*%
X160149999Y-99159999D03*
X160149999Y-96859999D03*
D13*
X153849999Y-96859999D03*
D12*
X160149999Y-94559999D03*
%TD*%
D14*
%TO.C,Y1*%
X130619999Y-99159999D03*
X132819999Y-99159999D03*
X132819999Y-97459999D03*
X130619999Y-97459999D03*
%TD*%
D15*
%TO.C,SW1*%
X124094999Y-83549999D03*
X121884999Y-83549999D03*
X124094999Y-90849999D03*
X121884999Y-90849999D03*
D16*
X124744999Y-84949999D03*
X124744999Y-87949999D03*
X124744999Y-89449999D03*
%TD*%
D17*
%TO.C,C3*%
X148540000Y-89230000D03*
X149500000Y-89230000D03*
%TD*%
D18*
%TO.C,C9*%
X130765000Y-103542500D03*
X130765000Y-102582500D03*
%TD*%
D19*
%TO.C,R1*%
X132660000Y-88600000D03*
X132660000Y-89620000D03*
%TD*%
D20*
%TO.C,D1*%
X158390000Y-90882500D03*
X158390000Y-92457500D03*
%TD*%
D21*
%TO.C,U1*%
X138647500Y-90280000D03*
X138647500Y-90780000D03*
X138647500Y-91280000D03*
X138647500Y-91780000D03*
X138647500Y-92280000D03*
X138647500Y-92780000D03*
X138647500Y-93280000D03*
X138647500Y-93780000D03*
X138647500Y-94280000D03*
X138647500Y-94780000D03*
X138647500Y-95280000D03*
X138647500Y-95780000D03*
D22*
X140060000Y-97192500D03*
X140560000Y-97192500D03*
X141060000Y-97192500D03*
X141560000Y-97192500D03*
X142060000Y-97192500D03*
X142560000Y-97192500D03*
X143060000Y-97192500D03*
X143560000Y-97192500D03*
X144060000Y-97192500D03*
X144560000Y-97192500D03*
X145060000Y-97192500D03*
X145560000Y-97192500D03*
D21*
X146972500Y-95780000D03*
X146972500Y-95280000D03*
X146972500Y-94780000D03*
X146972500Y-94280000D03*
X146972500Y-93780000D03*
X146972500Y-93280000D03*
X146972500Y-92780000D03*
X146972500Y-92280000D03*
X146972500Y-91780000D03*
X146972500Y-91280000D03*
X146972500Y-90780000D03*
X146972500Y-90280000D03*
D22*
X145560000Y-88867500D03*
X145060000Y-88867500D03*
X144560000Y-88867500D03*
X144060000Y-88867500D03*
X143560000Y-88867500D03*
X143060000Y-88867500D03*
X142560000Y-88867500D03*
X142060000Y-88867500D03*
X141560000Y-88867500D03*
X141060000Y-88867500D03*
X140560000Y-88867500D03*
X140060000Y-88867500D03*
%TD*%
D11*
%TO.C,C12*%
X133000000Y-94200000D03*
X133000000Y-95160000D03*
%TD*%
D23*
%TO.C,FB1*%
X132840000Y-104922500D03*
X131265000Y-104922500D03*
%TD*%
D18*
%TO.C,C5*%
X135410000Y-88760000D03*
X135410000Y-87800000D03*
%TD*%
D24*
%TO.C,C6*%
X137170000Y-88650000D03*
X137170000Y-87100000D03*
%TD*%
D11*
%TO.C,C10*%
X135090000Y-93660000D03*
X135090000Y-94620000D03*
%TD*%
D19*
%TO.C,R2*%
X150970000Y-89010000D03*
X150970000Y-90030000D03*
%TD*%
D25*
%TO.C,J1*%
X164525330Y-90180330D03*
X164525330Y-89530330D03*
X164525330Y-88880330D03*
X164525330Y-88230330D03*
X164525330Y-87580330D03*
%TD*%
D26*
%TO.C,R5*%
X149000000Y-102170000D03*
X149000000Y-101150000D03*
%TD*%
D18*
%TO.C,C1*%
X139040000Y-87960000D03*
X139040000Y-87000000D03*
%TD*%
D19*
%TO.C,R4*%
X145640000Y-100530000D03*
X145640000Y-101550000D03*
%TD*%
D10*
%TO.C,C14*%
X152510000Y-101830000D03*
X154410000Y-101830000D03*
%TD*%
D18*
%TO.C,C7*%
X133485000Y-103552500D03*
X133485000Y-102592500D03*
%TD*%
D27*
%TO.C,R3*%
X161320000Y-87610000D03*
X160300000Y-87610000D03*
%TD*%
D17*
%TO.C,C11*%
X130280000Y-95210000D03*
X131240000Y-95210000D03*
%TD*%
D18*
%TO.C,C8*%
X132235000Y-103542500D03*
X132235000Y-102582500D03*
%TD*%
M02*
