%TF.GenerationSoftware,KiCad,Pcbnew,(7.0.0)*%
%TF.CreationDate,2023-02-16T03:23:41+08:00*%
%TF.ProjectId,STM32F103C8T6_BreakOut_Board,53544d33-3246-4313-9033-433854365f42,rev?*%
%TF.SameCoordinates,Original*%
%TF.FileFunction,Copper,L2,Bot*%
%TF.FilePolarity,Positive*%
%FSLAX46Y46*%
G04 Gerber Fmt 4.6, Leading zero omitted, Abs format (unit mm)*
G04 Created by KiCad (PCBNEW (7.0.0)) date 2023-02-16 03:23:41*
%MOMM*%
%LPD*%
G01*
G04 APERTURE LIST*
%TA.AperFunction,ComponentPad*%
%ADD10R,1.700000X1.700000*%
%TD*%
%TA.AperFunction,ComponentPad*%
%ADD11O,1.700000X1.700000*%
%TD*%
%TA.AperFunction,ComponentPad*%
%ADD12O,1.800000X1.150000*%
%TD*%
%TA.AperFunction,ComponentPad*%
%ADD13O,2.000000X1.450000*%
%TD*%
%TA.AperFunction,ViaPad*%
%ADD14C,0.800000*%
%TD*%
%TA.AperFunction,Conductor*%
%ADD15C,0.300000*%
%TD*%
%TA.AperFunction,Conductor*%
%ADD16C,0.250000*%
%TD*%
%TA.AperFunction,Conductor*%
%ADD17C,0.500000*%
%TD*%
G04 APERTURE END LIST*
D10*
%TO.P,J5,1,Pin_1*%
%TO.N,GND*%
X147329999Y-82969999D03*
D11*
%TO.P,J5,2,Pin_2*%
%TO.N,/SWCLK*%
X149869999Y-82969999D03*
%TO.P,J5,3,Pin_3*%
%TO.N,/SWDIO*%
X152409999Y-82969999D03*
%TO.P,J5,4,Pin_4*%
%TO.N,+3.3V*%
X154949999Y-82969999D03*
%TD*%
D10*
%TO.P,J3,1,Pin_1*%
%TO.N,+3.3V*%
X165119999Y-104239999D03*
D11*
%TO.P,J3,2,Pin_2*%
%TO.N,/I2C2_SCL*%
X165119999Y-101699999D03*
%TO.P,J3,3,Pin_3*%
%TO.N,/I2C2_SDA*%
X165119999Y-99159999D03*
%TO.P,J3,4,Pin_4*%
%TO.N,GND*%
X165119999Y-96619999D03*
%TD*%
D10*
%TO.P,J6,1,Pin_1*%
%TO.N,unconnected-(J6-Pin_1-Pad1)*%
X161679999Y-78549999D03*
D11*
%TO.P,J6,2,Pin_2*%
%TO.N,PB13*%
X159139999Y-78549999D03*
%TO.P,J6,3,Pin_3*%
%TO.N,PB14*%
X156599999Y-78549999D03*
%TO.P,J6,4,Pin_4*%
%TO.N,PB15*%
X154059999Y-78549999D03*
%TO.P,J6,5,Pin_5*%
%TO.N,PA8*%
X151519999Y-78549999D03*
%TO.P,J6,6,Pin_6*%
%TO.N,PA9*%
X148979999Y-78549999D03*
%TO.P,J6,7,Pin_7*%
%TO.N,PA10*%
X146439999Y-78549999D03*
%TO.P,J6,8,Pin_8*%
%TO.N,PA15*%
X143899999Y-78549999D03*
%TO.P,J6,9,Pin_9*%
%TO.N,PB3*%
X141359999Y-78549999D03*
%TO.P,J6,10,Pin_10*%
%TO.N,PB4*%
X138819999Y-78549999D03*
%TO.P,J6,11,Pin_11*%
%TO.N,PB5*%
X136279999Y-78549999D03*
%TO.P,J6,12,Pin_12*%
%TO.N,PB8*%
X133739999Y-78549999D03*
%TO.P,J6,13,Pin_13*%
%TO.N,PB9*%
X131199999Y-78549999D03*
%TO.P,J6,14,Pin_14*%
%TO.N,PC13*%
X128659999Y-78549999D03*
%TD*%
D12*
%TO.P,J1,6,Shield*%
%TO.N,unconnected-(J1-Shield-Pad6)*%
X168375330Y-92755330D03*
D13*
X164575330Y-92605330D03*
X164575330Y-85155330D03*
D12*
X168375330Y-85005330D03*
%TD*%
D10*
%TO.P,J4,1,Pin_1*%
%TO.N,PC14*%
X128929999Y-109359999D03*
D11*
%TO.P,J4,2,Pin_2*%
%TO.N,PC15*%
X131469999Y-109359999D03*
%TO.P,J4,3,Pin_3*%
%TO.N,PA0*%
X134009999Y-109359999D03*
%TO.P,J4,4,Pin_4*%
%TO.N,PA1*%
X136549999Y-109359999D03*
%TO.P,J4,5,Pin_5*%
%TO.N,PA2*%
X139089999Y-109359999D03*
%TO.P,J4,6,Pin_6*%
%TO.N,PA3*%
X141629999Y-109359999D03*
%TO.P,J4,7,Pin_7*%
%TO.N,PA4*%
X144169999Y-109359999D03*
%TO.P,J4,8,Pin_8*%
%TO.N,PA5*%
X146709999Y-109359999D03*
%TO.P,J4,9,Pin_9*%
%TO.N,PA6*%
X149249999Y-109359999D03*
%TO.P,J4,10,Pin_10*%
%TO.N,PA7*%
X151789999Y-109359999D03*
%TO.P,J4,11,Pin_11*%
%TO.N,PB0*%
X154329999Y-109359999D03*
%TO.P,J4,12,Pin_12*%
%TO.N,PB1*%
X156869999Y-109359999D03*
%TO.P,J4,13,Pin_13*%
%TO.N,PB2*%
X159409999Y-109359999D03*
%TO.P,J4,14,Pin_14*%
%TO.N,PB12*%
X161949999Y-109359999D03*
%TD*%
D10*
%TO.P,J2,1,Pin_1*%
%TO.N,+3.3V*%
X140829999Y-82899999D03*
D11*
%TO.P,J2,2,Pin_2*%
%TO.N,/USART1_TX*%
X138289999Y-82899999D03*
%TO.P,J2,3,Pin_3*%
%TO.N,/USART1_RX*%
X135749999Y-82899999D03*
%TO.P,J2,4,Pin_4*%
%TO.N,GND*%
X133209999Y-82899999D03*
%TD*%
D14*
%TO.N,+3.3V*%
X128620000Y-89400000D03*
X134100000Y-88760000D03*
X149230000Y-90710000D03*
X150590000Y-104760000D03*
X128569500Y-103460000D03*
X150590000Y-101234500D03*
X158250000Y-96770000D03*
%TO.N,GND*%
X147680000Y-99720000D03*
X134535331Y-86789500D03*
X140710000Y-93780000D03*
X156340000Y-100980000D03*
%TO.N,/USB_D-*%
X160740000Y-89689500D03*
X152540500Y-89980000D03*
%TO.N,/USB_D+*%
X152540500Y-88940000D03*
X161810000Y-88930000D03*
%TO.N,PB12*%
X151450000Y-97030000D03*
%TO.N,PC13*%
X128530000Y-81060000D03*
X127820500Y-90330000D03*
%TO.N,/SWDIO*%
X150570000Y-85240000D03*
X145380000Y-91620000D03*
%TO.N,/BOOT0*%
X132660000Y-89530500D03*
X142060000Y-90290000D03*
%TD*%
D15*
%TO.N,+3.3V*%
X136240000Y-88760000D02*
X140830000Y-84170000D01*
X150590000Y-101234500D02*
X150590000Y-104760000D01*
X155290000Y-96770000D02*
X158250000Y-96770000D01*
X140830000Y-84170000D02*
X140830000Y-82900000D01*
X149230000Y-90710000D02*
X155290000Y-96770000D01*
X128570000Y-103459500D02*
X128569500Y-103460000D01*
X128620000Y-89400000D02*
X128570000Y-89450000D01*
X128570000Y-89450000D02*
X128570000Y-103459500D01*
X129260000Y-88760000D02*
X134100000Y-88760000D01*
X128620000Y-89400000D02*
X129260000Y-88760000D01*
X134100000Y-88760000D02*
X136240000Y-88760000D01*
D16*
%TO.N,GND*%
X156340000Y-100980000D02*
X155870000Y-100510000D01*
D17*
X140710000Y-93780000D02*
X140710000Y-92928530D01*
X135180000Y-80930000D02*
X145300000Y-80930000D01*
X145300000Y-80930000D02*
X147330000Y-82960000D01*
X140710000Y-92928530D02*
X147330000Y-86308530D01*
D16*
X145420000Y-99720000D02*
X147680000Y-99720000D01*
X148220000Y-99720000D02*
X147680000Y-99720000D01*
D17*
X134535331Y-86789500D02*
X134535331Y-85915331D01*
D16*
X140710000Y-93780000D02*
X140710000Y-95010000D01*
D17*
X133210000Y-82900000D02*
X135180000Y-80930000D01*
D16*
X149010000Y-100510000D02*
X148220000Y-99720000D01*
D17*
X134535331Y-85915331D02*
X133210000Y-84590000D01*
D16*
X140710000Y-95010000D02*
X145420000Y-99720000D01*
D17*
X147330000Y-86308530D02*
X147330000Y-82970000D01*
D16*
X155870000Y-100510000D02*
X149010000Y-100510000D01*
D17*
X133210000Y-84590000D02*
X133210000Y-82900000D01*
X147330000Y-82960000D02*
X147330000Y-82970000D01*
D15*
%TO.N,/USB_D-*%
X152540500Y-89980000D02*
X159840000Y-89980000D01*
X159840000Y-89980000D02*
X160130500Y-89689500D01*
X160130500Y-89689500D02*
X160740000Y-89689500D01*
%TO.N,/USB_D+*%
X152540500Y-88940000D02*
X161800000Y-88940000D01*
X161800000Y-88940000D02*
X161810000Y-88930000D01*
%TO.N,PB12*%
X161950000Y-105529339D02*
X161950000Y-109360000D01*
X153450661Y-97030000D02*
X161950000Y-105529339D01*
X151450000Y-97030000D02*
X153450661Y-97030000D01*
%TO.N,PC13*%
X127620000Y-81970000D02*
X128530000Y-81060000D01*
X127620000Y-90129500D02*
X127620000Y-81970000D01*
X127820500Y-90330000D02*
X127620000Y-90129500D01*
%TO.N,/SWDIO*%
X150570000Y-85240000D02*
X150560000Y-85240000D01*
X145380000Y-90420000D02*
X145380000Y-91620000D01*
X150560000Y-85240000D02*
X145380000Y-90420000D01*
%TO.N,/BOOT0*%
X139550500Y-89530500D02*
X132660000Y-89530500D01*
X142060000Y-90290000D02*
X140310000Y-90290000D01*
X140310000Y-90290000D02*
X139550500Y-89530500D01*
%TD*%
M02*
